<ttFont>
    <TTGlyph name="A" xMin="13" yMin="0" xMax="557" yMax="680">
      <contour>
        <pt x="13" y="0" on="1"/>
        <pt x="319" y="680" on="1"/>
        <pt x="557" y="680" on="1"/>
        <pt x="536" y="0" on="1"/>
        <pt x="398" y="0" on="1"/>
        <pt x="402" y="118" on="1"/>
        <pt x="204" y="118" on="1"/>
        <pt x="151" y="0" on="1"/>
      </contour>
      <contour>
        <pt x="400" y="560" on="1"/>
        <pt x="256" y="238" on="1"/>
        <pt x="407" y="238" on="1"/>
        <pt x="421" y="560" on="1"/>
      </contour>
    </TTGlyph>
    <TTGlyph name="AE" xMin="14" yMin="0" xMax="881" yMax="690">
      <contour>
        <pt x="313" y="0" on="1"/>
        <pt x="341" y="119" on="1"/>
        <pt x="198" y="119" on="1"/>
        <pt x="145" y="0" on="1"/>
        <pt x="14" y="0" on="1"/>
        <pt x="322" y="690" on="1"/>
        <pt x="881" y="690" on="1"/>
        <pt x="851" y="559" on="1"/>
        <pt x="575" y="561" on="1"/>
        <pt x="537" y="402" on="1"/>
        <pt x="757" y="402" on="1"/>
        <pt x="728" y="277" on="1"/>
        <pt x="507" y="277" on="1"/>
        <pt x="472" y="130" on="1"/>
        <pt x="748" y="130" on="1"/>
        <pt x="719" y="0" on="1"/>
      </contour>
      <contour>
        <pt x="393" y="560" on="1"/>
        <pt x="256" y="247" on="1"/>
        <pt x="372" y="247" on="1"/>
        <pt x="445" y="560" on="1"/>
      </contour>
    </TTGlyph>
    <TTGlyph name="AEacute" xMin="14" yMin="0" xMax="881" yMax="962">
      <contour>
        <pt x="313" y="0" on="1"/>
        <pt x="341" y="119" on="1"/>
        <pt x="198" y="119" on="1"/>
        <pt x="145" y="0" on="1"/>
        <pt x="14" y="0" on="1"/>
        <pt x="322" y="690" on="1"/>
        <pt x="881" y="690" on="1"/>
        <pt x="851" y="559" on="1"/>
        <pt x="575" y="561" on="1"/>
        <pt x="537" y="402" on="1"/>
        <pt x="757" y="402" on="1"/>
        <pt x="728" y="277" on="1"/>
        <pt x="507" y="277" on="1"/>
        <pt x="472" y="130" on="1"/>
        <pt x="748" y="130" on="1"/>
        <pt x="719" y="0" on="1"/>
      </contour>
      <contour>
        <pt x="393" y="560" on="1"/>
        <pt x="256" y="247" on="1"/>
        <pt x="372" y="247" on="1"/>
        <pt x="445" y="560" on="1"/>
      </contour>
      <contour>
        <pt x="494" y="765" on="1"/>
        <pt x="484" y="871" on="1"/>
        <pt x="748" y="962" on="1"/>
        <pt x="758" y="842" on="1"/>
      </contour>
    </TTGlyph>
    <TTGlyph name="Aacute" xMin="13" yMin="0" xMax="618" yMax="962">
      <contour>
        <pt x="354" y="765" on="1"/>
        <pt x="344" y="871" on="1"/>
        <pt x="608" y="962" on="1"/>
        <pt x="618" y="842" on="1"/>
      </contour>
      <contour>
        <pt x="13" y="0" on="1"/>
        <pt x="319" y="680" on="1"/>
        <pt x="557" y="680" on="1"/>
        <pt x="536" y="0" on="1"/>
        <pt x="398" y="0" on="1"/>
        <pt x="402" y="118" on="1"/>
        <pt x="204" y="118" on="1"/>
        <pt x="151" y="0" on="1"/>
      </contour>
      <contour>
        <pt x="400" y="560" on="1"/>
        <pt x="256" y="238" on="1"/>
        <pt x="407" y="238" on="1"/>
        <pt x="421" y="560" on="1"/>
      </contour>
    </TTGlyph>
    <TTGlyph name="Abreve" xMin="13" yMin="0" xMax="655" yMax="927">
      <contour>
        <pt x="444" y="918" on="1"/>
        <pt x="444" y="888" on="0"/>
        <pt x="518" y="888" on="0"/>
        <pt x="533" y="927" on="1"/>
        <pt x="655" y="927" on="1"/>
        <pt x="631" y="856" on="0"/>
        <pt x="541" y="783" on="0"/>
        <pt x="384" y="783" on="0"/>
        <pt x="321" y="850" on="0"/>
        <pt x="321" y="900" on="1"/>
        <pt x="321" y="913" on="0"/>
        <pt x="323" y="927" on="1"/>
        <pt x="445" y="927" on="1"/>
        <pt x="444" y="922" on="0"/>
      </contour>
      <contour>
        <pt x="13" y="0" on="1"/>
        <pt x="319" y="680" on="1"/>
        <pt x="557" y="680" on="1"/>
        <pt x="536" y="0" on="1"/>
        <pt x="398" y="0" on="1"/>
        <pt x="402" y="118" on="1"/>
        <pt x="204" y="118" on="1"/>
        <pt x="151" y="0" on="1"/>
      </contour>
      <contour>
        <pt x="400" y="560" on="1"/>
        <pt x="256" y="238" on="1"/>
        <pt x="407" y="238" on="1"/>
        <pt x="421" y="560" on="1"/>
      </contour>
    </TTGlyph>
    <TTGlyph name="Acircumflex" xMin="13" yMin="0" xMax="625" yMax="931">
      <contour>
        <pt x="273" y="779" on="1"/>
        <pt x="449" y="931" on="1"/>
        <pt x="529" y="931" on="1"/>
        <pt x="625" y="779" on="1"/>
        <pt x="503" y="779" on="1"/>
        <pt x="477" y="834" on="1"/>
        <pt x="415" y="779" on="1"/>
      </contour>
      <contour>
        <pt x="13" y="0" on="1"/>
        <pt x="319" y="680" on="1"/>
        <pt x="557" y="680" on="1"/>
        <pt x="536" y="0" on="1"/>
        <pt x="398" y="0" on="1"/>
        <pt x="402" y="118" on="1"/>
        <pt x="204" y="118" on="1"/>
        <pt x="151" y="0" on="1"/>
      </contour>
      <contour>
        <pt x="400" y="560" on="1"/>
        <pt x="256" y="238" on="1"/>
        <pt x="407" y="238" on="1"/>
        <pt x="421" y="560" on="1"/>
      </contour>
    </TTGlyph>
    <TTGlyph name="Adieresis" xMin="13" yMin="0" xMax="649" yMax="923">
      <contour>
        <pt x="308" y="788" on="1"/>
        <pt x="339" y="923" on="1"/>
        <pt x="450" y="923" on="1"/>
        <pt x="418" y="788" on="1"/>
      </contour>
      <contour>
        <pt x="507" y="788" on="1"/>
        <pt x="538" y="923" on="1"/>
        <pt x="649" y="923" on="1"/>
        <pt x="616" y="788" on="1"/>
      </contour>
      <contour>
        <pt x="13" y="0" on="1"/>
        <pt x="319" y="680" on="1"/>
        <pt x="557" y="680" on="1"/>
        <pt x="536" y="0" on="1"/>
        <pt x="398" y="0" on="1"/>
        <pt x="402" y="118" on="1"/>
        <pt x="204" y="118" on="1"/>
        <pt x="151" y="0" on="1"/>
      </contour>
      <contour>
        <pt x="400" y="560" on="1"/>
        <pt x="256" y="238" on="1"/>
        <pt x="407" y="238" on="1"/>
        <pt x="421" y="560" on="1"/>
      </contour>
    </TTGlyph>
    <TTGlyph name="Agrave" xMin="13" yMin="0" xMax="605" yMax="950">
      <contour>
        <pt x="383" y="950" on="1"/>
        <pt x="605" y="859" on="1"/>
        <pt x="544" y="754" on="1"/>
        <pt x="317" y="831" on="1"/>
      </contour>
      <contour>
        <pt x="13" y="0" on="1"/>
        <pt x="319" y="680" on="1"/>
        <pt x="557" y="680" on="1"/>
        <pt x="536" y="0" on="1"/>
        <pt x="398" y="0" on="1"/>
        <pt x="402" y="118" on="1"/>
        <pt x="204" y="118" on="1"/>
        <pt x="151" y="0" on="1"/>
      </contour>
      <contour>
        <pt x="400" y="560" on="1"/>
        <pt x="256" y="238" on="1"/>
        <pt x="407" y="238" on="1"/>
        <pt x="421" y="560" on="1"/>
      </contour>
    </TTGlyph>
    <TTGlyph name="Amacron" xMin="13" yMin="0" xMax="640" yMax="915">
      <contour>
        <pt x="288" y="806" on="1"/>
        <pt x="313" y="915" on="1"/>
        <pt x="640" y="915" on="1"/>
        <pt x="615" y="806" on="1"/>
      </contour>
      <contour>
        <pt x="13" y="0" on="1"/>
        <pt x="319" y="680" on="1"/>
        <pt x="557" y="680" on="1"/>
        <pt x="536" y="0" on="1"/>
        <pt x="398" y="0" on="1"/>
        <pt x="402" y="118" on="1"/>
        <pt x="204" y="118" on="1"/>
        <pt x="151" y="0" on="1"/>
      </contour>
      <contour>
        <pt x="400" y="560" on="1"/>
        <pt x="256" y="238" on="1"/>
        <pt x="407" y="238" on="1"/>
        <pt x="421" y="560" on="1"/>
      </contour>
    </TTGlyph>
    <TTGlyph name="Aogonek" xMin="13" yMin="-214" xMax="557" yMax="680">
      <contour>
        <pt x="536" y="0" on="1"/>
        <pt x="528" y="0" on="1"/>
        <pt x="506" y="-16" on="0"/>
        <pt x="462" y="-67" on="0"/>
        <pt x="462" y="-96" on="0"/>
        <pt x="475" y="-96" on="1"/>
        <pt x="512" y="-93" on="1"/>
        <pt x="499" y="-203" on="1"/>
        <pt x="442" y="-214" on="0"/>
        <pt x="362" y="-214" on="0"/>
        <pt x="318" y="-175" on="0"/>
        <pt x="318" y="-137" on="1"/>
        <pt x="318" y="-73" on="0"/>
        <pt x="408" y="0" on="1"/>
        <pt x="398" y="0" on="1"/>
        <pt x="402" y="118" on="1"/>
        <pt x="204" y="118" on="1"/>
        <pt x="151" y="0" on="1"/>
        <pt x="13" y="0" on="1"/>
        <pt x="319" y="680" on="1"/>
        <pt x="557" y="680" on="1"/>
        <pt x="536" y="5" on="1"/>
      </contour>
      <contour>
        <pt x="400" y="560" on="1"/>
        <pt x="256" y="238" on="1"/>
        <pt x="407" y="238" on="1"/>
        <pt x="421" y="560" on="1"/>
      </contour>
    </TTGlyph>
    <TTGlyph name="Aring" xMin="13" yMin="0" xMax="583" yMax="834">
      <contour>
        <pt x="313" y="666" on="1"/>
        <pt x="312" y="674" on="0"/>
        <pt x="312" y="699" on="0"/>
        <pt x="316" y="717" on="1"/>
        <pt x="330" y="775" on="0"/>
        <pt x="416" y="834" on="0"/>
        <pt x="533" y="834" on="0"/>
        <pt x="562" y="805" on="1"/>
        <pt x="583" y="785" on="0"/>
        <pt x="583" y="752" on="1"/>
        <pt x="583" y="705" on="0"/>
        <pt x="556" y="667" on="1"/>
        <pt x="536" y="0" on="1"/>
        <pt x="398" y="0" on="1"/>
        <pt x="402" y="118" on="1"/>
        <pt x="204" y="118" on="1"/>
        <pt x="151" y="0" on="1"/>
        <pt x="13" y="0" on="1"/>
      </contour>
      <contour>
        <pt x="400" y="560" on="1"/>
        <pt x="256" y="238" on="1"/>
        <pt x="407" y="238" on="1"/>
        <pt x="421" y="560" on="1"/>
      </contour>
      <contour>
        <pt x="402" y="717" on="1"/>
        <pt x="401" y="714" on="0"/>
        <pt x="401" y="701" on="0"/>
        <pt x="419" y="686" on="0"/>
        <pt x="439" y="686" on="1"/>
        <pt x="484" y="686" on="0"/>
        <pt x="491" y="717" on="1"/>
        <pt x="492" y="721" on="0"/>
        <pt x="492" y="736" on="0"/>
        <pt x="470" y="748" on="0"/>
        <pt x="454" y="748" on="1"/>
        <pt x="410" y="748" on="0"/>
      </contour>
    </TTGlyph>
    <TTGlyph name="Aringacute" xMin="13" yMin="0" xMax="619" yMax="1054">
      <contour>
        <pt x="313" y="666" on="1"/>
        <pt x="312" y="674" on="0"/>
        <pt x="312" y="699" on="0"/>
        <pt x="316" y="717" on="1"/>
        <pt x="330" y="775" on="0"/>
        <pt x="416" y="834" on="0"/>
        <pt x="533" y="834" on="0"/>
        <pt x="562" y="805" on="1"/>
        <pt x="583" y="785" on="0"/>
        <pt x="583" y="752" on="1"/>
        <pt x="583" y="705" on="0"/>
        <pt x="556" y="667" on="1"/>
        <pt x="536" y="0" on="1"/>
        <pt x="398" y="0" on="1"/>
        <pt x="402" y="118" on="1"/>
        <pt x="204" y="118" on="1"/>
        <pt x="151" y="0" on="1"/>
        <pt x="13" y="0" on="1"/>
      </contour>
      <contour>
        <pt x="355" y="856" on="1"/>
        <pt x="345" y="963" on="1"/>
        <pt x="609" y="1054" on="1"/>
        <pt x="619" y="934" on="1"/>
      </contour>
      <contour>
        <pt x="400" y="560" on="1"/>
        <pt x="256" y="238" on="1"/>
        <pt x="407" y="238" on="1"/>
        <pt x="421" y="560" on="1"/>
      </contour>
      <contour>
        <pt x="402" y="717" on="1"/>
        <pt x="401" y="714" on="0"/>
        <pt x="401" y="701" on="0"/>
        <pt x="419" y="686" on="0"/>
        <pt x="439" y="686" on="1"/>
        <pt x="484" y="686" on="0"/>
        <pt x="491" y="717" on="1"/>
        <pt x="492" y="721" on="0"/>
        <pt x="492" y="736" on="0"/>
        <pt x="470" y="748" on="0"/>
        <pt x="454" y="748" on="1"/>
        <pt x="410" y="748" on="0"/>
      </contour>
    </TTGlyph>
    <TTGlyph name="Atilde" xMin="13" yMin="0" xMax="633" yMax="940">
      <contour>
        <pt x="541" y="779" on="0"/>
        <pt x="492" y="779" on="0"/>
        <pt x="386" y="822" on="0"/>
        <pt x="372" y="822" on="1"/>
        <pt x="349" y="822" on="0"/>
        <pt x="300" y="792" on="1"/>
        <pt x="285" y="783" on="1"/>
        <pt x="281" y="876" on="1"/>
        <pt x="311" y="902" on="0"/>
        <pt x="376" y="940" on="0"/>
        <pt x="431" y="940" on="0"/>
        <pt x="536" y="898" on="0"/>
        <pt x="546" y="898" on="1"/>
        <pt x="567" y="898" on="0"/>
        <pt x="615" y="926" on="1"/>
        <pt x="631" y="936" on="1"/>
        <pt x="633" y="842" on="1"/>
        <pt x="609" y="818" on="0"/>
      </contour>
      <contour>
        <pt x="13" y="0" on="1"/>
        <pt x="319" y="680" on="1"/>
        <pt x="557" y="680" on="1"/>
        <pt x="536" y="0" on="1"/>
        <pt x="398" y="0" on="1"/>
        <pt x="402" y="118" on="1"/>
        <pt x="204" y="118" on="1"/>
        <pt x="151" y="0" on="1"/>
      </contour>
      <contour>
        <pt x="400" y="560" on="1"/>
        <pt x="256" y="238" on="1"/>
        <pt x="407" y="238" on="1"/>
        <pt x="421" y="560" on="1"/>
      </contour>
    </TTGlyph>
    <TTGlyph name="B" xMin="65" yMin="0" xMax="636" yMax="680">
      <contour>
        <pt x="458" y="680" on="1"/>
        <pt x="636" y="680" on="0"/>
        <pt x="636" y="533" on="1"/>
        <pt x="636" y="468" on="0"/>
        <pt x="580" y="384" on="0"/>
        <pt x="524" y="350" on="1"/>
        <pt x="563" y="327" on="0"/>
        <pt x="589" y="273" on="0"/>
        <pt x="589" y="232" on="1"/>
        <pt x="589" y="132" on="0"/>
        <pt x="450" y="0" on="0"/>
        <pt x="321" y="0" on="1"/>
        <pt x="65" y="0" on="1"/>
        <pt x="222" y="680" on="1"/>
      </contour>
      <contour>
        <pt x="382" y="285" on="1"/>
        <pt x="269" y="285" on="1"/>
        <pt x="230" y="118" on="1"/>
        <pt x="348" y="118" on="1"/>
        <pt x="393" y="118" on="0"/>
        <pt x="447" y="180" on="0"/>
        <pt x="447" y="229" on="1"/>
        <pt x="447" y="285" on="0"/>
      </contour>
      <contour>
        <pt x="436" y="562" on="1"/>
        <pt x="333" y="562" on="1"/>
        <pt x="295" y="400" on="1"/>
        <pt x="398" y="400" on="1"/>
        <pt x="439" y="400" on="0"/>
        <pt x="495" y="459" on="0"/>
        <pt x="495" y="505" on="1"/>
        <pt x="495" y="562" on="0"/>
      </contour>
    </TTGlyph>
    <TTGlyph name="C" xMin="99" yMin="-12" xMax="620" yMax="692">
      <contour>
        <pt x="304" y="-12" on="1"/>
        <pt x="99" y="-12" on="0"/>
        <pt x="99" y="185" on="1"/>
        <pt x="99" y="331" on="0"/>
        <pt x="148" y="454" on="1"/>
        <pt x="175" y="522" on="0"/>
        <pt x="253" y="627" on="0"/>
        <pt x="374" y="692" on="0"/>
        <pt x="449" y="692" on="1"/>
        <pt x="522" y="692" on="0"/>
        <pt x="596" y="670" on="1"/>
        <pt x="620" y="662" on="1"/>
        <pt x="588" y="560" on="1"/>
        <pt x="526" y="572" on="0"/>
        <pt x="444" y="572" on="1"/>
        <pt x="382" y="572" on="0"/>
        <pt x="287" y="462" on="0"/>
        <pt x="241" y="292" on="0"/>
        <pt x="241" y="195" on="1"/>
        <pt x="241" y="108" on="0"/>
        <pt x="322" y="108" on="1"/>
        <pt x="399" y="108" on="0"/>
        <pt x="461" y="118" on="1"/>
        <pt x="484" y="121" on="1"/>
        <pt x="473" y="14" on="1"/>
        <pt x="380" y="-12" on="0"/>
      </contour>
    </TTGlyph>
    <TTGlyph name="Cacute" xMin="99" yMin="-12" xMax="648" yMax="962">
      <contour>
        <pt x="304" y="-12" on="1"/>
        <pt x="99" y="-12" on="0"/>
        <pt x="99" y="185" on="1"/>
        <pt x="99" y="331" on="0"/>
        <pt x="148" y="454" on="1"/>
        <pt x="175" y="522" on="0"/>
        <pt x="253" y="627" on="0"/>
        <pt x="374" y="692" on="0"/>
        <pt x="449" y="692" on="1"/>
        <pt x="522" y="692" on="0"/>
        <pt x="596" y="670" on="1"/>
        <pt x="620" y="662" on="1"/>
        <pt x="588" y="560" on="1"/>
        <pt x="526" y="572" on="0"/>
        <pt x="444" y="572" on="1"/>
        <pt x="382" y="572" on="0"/>
        <pt x="287" y="462" on="0"/>
        <pt x="241" y="292" on="0"/>
        <pt x="241" y="195" on="1"/>
        <pt x="241" y="108" on="0"/>
        <pt x="322" y="108" on="1"/>
        <pt x="399" y="108" on="0"/>
        <pt x="461" y="118" on="1"/>
        <pt x="484" y="121" on="1"/>
        <pt x="473" y="14" on="1"/>
        <pt x="380" y="-12" on="0"/>
      </contour>
      <contour>
        <pt x="384" y="765" on="1"/>
        <pt x="374" y="871" on="1"/>
        <pt x="638" y="962" on="1"/>
        <pt x="648" y="842" on="1"/>
      </contour>
    </TTGlyph>
    <TTGlyph name="Ccaron" xMin="99" yMin="-12" xMax="678" yMax="927">
      <contour>
        <pt x="304" y="-12" on="1"/>
        <pt x="99" y="-12" on="0"/>
        <pt x="99" y="185" on="1"/>
        <pt x="99" y="331" on="0"/>
        <pt x="148" y="454" on="1"/>
        <pt x="175" y="522" on="0"/>
        <pt x="253" y="627" on="0"/>
        <pt x="374" y="692" on="0"/>
        <pt x="449" y="692" on="1"/>
        <pt x="522" y="692" on="0"/>
        <pt x="596" y="670" on="1"/>
        <pt x="620" y="662" on="1"/>
        <pt x="588" y="560" on="1"/>
        <pt x="526" y="572" on="0"/>
        <pt x="444" y="572" on="1"/>
        <pt x="382" y="572" on="0"/>
        <pt x="287" y="462" on="0"/>
        <pt x="241" y="292" on="0"/>
        <pt x="241" y="195" on="1"/>
        <pt x="241" y="108" on="0"/>
        <pt x="322" y="108" on="1"/>
        <pt x="399" y="108" on="0"/>
        <pt x="461" y="118" on="1"/>
        <pt x="484" y="121" on="1"/>
        <pt x="473" y="14" on="1"/>
        <pt x="380" y="-12" on="0"/>
      </contour>
      <contour>
        <pt x="678" y="927" on="1"/>
        <pt x="518" y="776" on="1"/>
        <pt x="426" y="776" on="1"/>
        <pt x="333" y="927" on="1"/>
        <pt x="465" y="927" on="1"/>
        <pt x="494" y="870" on="1"/>
        <pt x="547" y="927" on="1"/>
      </contour>
    </TTGlyph>
    <TTGlyph name="Ccedilla" xMin="99" yMin="-229" xMax="620" yMax="692">
      <contour>
        <pt x="294" y="-33" on="1"/>
        <pt x="387" y="-33" on="0"/>
        <pt x="387" y="-94" on="1"/>
        <pt x="387" y="-107" on="0"/>
        <pt x="383" y="-124" on="1"/>
        <pt x="358" y="-229" on="0"/>
        <pt x="254" y="-229" on="1"/>
        <pt x="214" y="-229" on="0"/>
        <pt x="182" y="-221" on="1"/>
        <pt x="170" y="-218" on="1"/>
        <pt x="190" y="-137" on="1"/>
        <pt x="220" y="-138" on="0"/>
        <pt x="236" y="-138" on="1"/>
        <pt x="272" y="-138" on="0"/>
        <pt x="278" y="-114" on="1"/>
        <pt x="281" y="-102" on="0"/>
        <pt x="266" y="-94" on="0"/>
        <pt x="247" y="-94" on="1"/>
        <pt x="225" y="-94" on="1"/>
        <pt x="244" y="-7" on="1"/>
        <pt x="99" y="20" on="0"/>
        <pt x="99" y="185" on="1"/>
        <pt x="99" y="331" on="0"/>
        <pt x="148" y="454" on="1"/>
        <pt x="175" y="522" on="0"/>
        <pt x="253" y="627" on="0"/>
        <pt x="374" y="692" on="0"/>
        <pt x="449" y="692" on="1"/>
        <pt x="522" y="692" on="0"/>
        <pt x="596" y="670" on="1"/>
        <pt x="620" y="662" on="1"/>
        <pt x="588" y="560" on="1"/>
        <pt x="526" y="572" on="0"/>
        <pt x="444" y="572" on="1"/>
        <pt x="382" y="572" on="0"/>
        <pt x="287" y="462" on="0"/>
        <pt x="241" y="292" on="0"/>
        <pt x="241" y="195" on="1"/>
        <pt x="241" y="108" on="0"/>
        <pt x="322" y="108" on="1"/>
        <pt x="399" y="108" on="0"/>
        <pt x="461" y="118" on="1"/>
        <pt x="484" y="121" on="1"/>
        <pt x="473" y="14" on="1"/>
        <pt x="380" y="-12" on="0"/>
        <pt x="304" y="-12" on="1"/>
        <pt x="294" y="-12" on="1"/>
        <pt x="288" y="-33" on="1"/>
      </contour>
    </TTGlyph>
    <TTGlyph name="Ccircumflex" xMin="99" yMin="-12" xMax="644" yMax="931">
      <contour>
        <pt x="304" y="-12" on="1"/>
        <pt x="99" y="-12" on="0"/>
        <pt x="99" y="185" on="1"/>
        <pt x="99" y="331" on="0"/>
        <pt x="148" y="454" on="1"/>
        <pt x="175" y="522" on="0"/>
        <pt x="253" y="627" on="0"/>
        <pt x="374" y="692" on="0"/>
        <pt x="449" y="692" on="1"/>
        <pt x="522" y="692" on="0"/>
        <pt x="596" y="670" on="1"/>
        <pt x="620" y="662" on="1"/>
        <pt x="588" y="560" on="1"/>
        <pt x="526" y="572" on="0"/>
        <pt x="444" y="572" on="1"/>
        <pt x="382" y="572" on="0"/>
        <pt x="287" y="462" on="0"/>
        <pt x="241" y="292" on="0"/>
        <pt x="241" y="195" on="1"/>
        <pt x="241" y="108" on="0"/>
        <pt x="322" y="108" on="1"/>
        <pt x="399" y="108" on="0"/>
        <pt x="461" y="118" on="1"/>
        <pt x="484" y="121" on="1"/>
        <pt x="473" y="14" on="1"/>
        <pt x="380" y="-12" on="0"/>
      </contour>
      <contour>
        <pt x="292" y="779" on="1"/>
        <pt x="468" y="931" on="1"/>
        <pt x="548" y="931" on="1"/>
        <pt x="644" y="779" on="1"/>
        <pt x="522" y="779" on="1"/>
        <pt x="496" y="834" on="1"/>
        <pt x="434" y="779" on="1"/>
      </contour>
    </TTGlyph>
    <TTGlyph name="Cdotaccent" xMin="99" yMin="-12" xMax="620" yMax="909">
      <contour>
        <pt x="304" y="-12" on="1"/>
        <pt x="99" y="-12" on="0"/>
        <pt x="99" y="185" on="1"/>
        <pt x="99" y="331" on="0"/>
        <pt x="148" y="454" on="1"/>
        <pt x="175" y="522" on="0"/>
        <pt x="253" y="627" on="0"/>
        <pt x="374" y="692" on="0"/>
        <pt x="449" y="692" on="1"/>
        <pt x="522" y="692" on="0"/>
        <pt x="596" y="670" on="1"/>
        <pt x="620" y="662" on="1"/>
        <pt x="588" y="560" on="1"/>
        <pt x="526" y="572" on="0"/>
        <pt x="444" y="572" on="1"/>
        <pt x="382" y="572" on="0"/>
        <pt x="287" y="462" on="0"/>
        <pt x="241" y="292" on="0"/>
        <pt x="241" y="195" on="1"/>
        <pt x="241" y="108" on="0"/>
        <pt x="322" y="108" on="1"/>
        <pt x="399" y="108" on="0"/>
        <pt x="461" y="118" on="1"/>
        <pt x="484" y="121" on="1"/>
        <pt x="473" y="14" on="1"/>
        <pt x="380" y="-12" on="0"/>
      </contour>
      <contour>
        <pt x="405" y="771" on="1"/>
        <pt x="437" y="909" on="1"/>
        <pt x="555" y="909" on="1"/>
        <pt x="521" y="771" on="1"/>
      </contour>
    </TTGlyph>
    <TTGlyph name="D" xMin="65" yMin="0" xMax="660" yMax="680">
      <contour>
        <pt x="309" y="0" on="1"/>
        <pt x="65" y="0" on="1"/>
        <pt x="222" y="680" on="1"/>
        <pt x="436" y="680" on="1"/>
        <pt x="660" y="680" on="0"/>
        <pt x="660" y="473" on="1"/>
        <pt x="660" y="327" on="0"/>
        <pt x="606" y="209" on="1"/>
        <pt x="545" y="77" on="0"/>
        <pt x="439" y="28" on="1"/>
        <pt x="380" y="0" on="0"/>
      </contour>
      <contour>
        <pt x="496" y="307" on="0"/>
        <pt x="518" y="422" on="0"/>
        <pt x="518" y="521" on="0"/>
        <pt x="463" y="560" on="0"/>
        <pt x="408" y="560" on="1"/>
        <pt x="332" y="560" on="1"/>
        <pt x="231" y="120" on="1"/>
        <pt x="321" y="120" on="1"/>
        <pt x="372" y="120" on="0"/>
        <pt x="452" y="194" on="0"/>
      </contour>
    </TTGlyph>
    <TTGlyph name="Dcaron" xMin="65" yMin="0" xMax="660" yMax="927">
      <contour>
        <pt x="309" y="0" on="1"/>
        <pt x="65" y="0" on="1"/>
        <pt x="222" y="680" on="1"/>
        <pt x="436" y="680" on="1"/>
        <pt x="660" y="680" on="0"/>
        <pt x="660" y="473" on="1"/>
        <pt x="660" y="327" on="0"/>
        <pt x="606" y="209" on="1"/>
        <pt x="578" y="148" on="0"/>
        <pt x="498" y="55" on="0"/>
        <pt x="380" y="0" on="0"/>
      </contour>
      <contour>
        <pt x="518" y="521" on="0"/>
        <pt x="463" y="560" on="0"/>
        <pt x="408" y="560" on="1"/>
        <pt x="332" y="560" on="1"/>
        <pt x="231" y="120" on="1"/>
        <pt x="321" y="120" on="1"/>
        <pt x="372" y="120" on="0"/>
        <pt x="452" y="194" on="0"/>
        <pt x="496" y="307" on="0"/>
        <pt x="518" y="422" on="0"/>
      </contour>
      <contour>
        <pt x="647" y="927" on="1"/>
        <pt x="487" y="776" on="1"/>
        <pt x="395" y="776" on="1"/>
        <pt x="302" y="927" on="1"/>
        <pt x="434" y="927" on="1"/>
        <pt x="463" y="870" on="1"/>
        <pt x="516" y="927" on="1"/>
      </contour>
    </TTGlyph>
    <TTGlyph name="Dcroat" xMin="73" yMin="0" xMax="668" yMax="680">
      <contour>
        <pt x="317" y="0" on="1"/>
        <pt x="73" y="0" on="1"/>
        <pt x="136" y="275" on="1"/>
        <pt x="82" y="275" on="1"/>
        <pt x="111" y="411" on="1"/>
        <pt x="168" y="411" on="1"/>
        <pt x="230" y="680" on="1"/>
        <pt x="444" y="680" on="1"/>
        <pt x="668" y="680" on="0"/>
        <pt x="668" y="473" on="1"/>
        <pt x="668" y="327" on="0"/>
        <pt x="614" y="209" on="1"/>
        <pt x="553" y="77" on="0"/>
        <pt x="447" y="28" on="1"/>
        <pt x="388" y="0" on="0"/>
      </contour>
      <contour>
        <pt x="504" y="307" on="0"/>
        <pt x="526" y="422" on="0"/>
        <pt x="526" y="521" on="0"/>
        <pt x="471" y="560" on="0"/>
        <pt x="416" y="560" on="1"/>
        <pt x="340" y="560" on="1"/>
        <pt x="306" y="411" on="1"/>
        <pt x="414" y="411" on="1"/>
        <pt x="384" y="275" on="1"/>
        <pt x="274" y="275" on="1"/>
        <pt x="239" y="120" on="1"/>
        <pt x="329" y="120" on="1"/>
        <pt x="380" y="120" on="0"/>
        <pt x="460" y="194" on="0"/>
      </contour>
    </TTGlyph>
    <TTGlyph name="Delta" xMin="82" yMin="0" xMax="554" yMax="660">
      <contour>
        <pt x="554" y="0" on="1"/>
        <pt x="82" y="0" on="1"/>
        <pt x="82" y="104" on="1"/>
        <pt x="206" y="660" on="1"/>
        <pt x="431" y="660" on="1"/>
        <pt x="554" y="102" on="1"/>
      </contour>
      <contour>
        <pt x="332" y="548" on="1"/>
        <pt x="305" y="548" on="1"/>
        <pt x="215" y="114" on="1"/>
        <pt x="421" y="114" on="1"/>
      </contour>
    </TTGlyph>
    <TTGlyph name="E" xMin="65" yMin="0" xMax="620" yMax="680">
      <contour>
        <pt x="65" y="0" on="1"/>
        <pt x="221" y="680" on="1"/>
        <pt x="620" y="680" on="1"/>
        <pt x="592" y="560" on="1"/>
        <pt x="332" y="560" on="1"/>
        <pt x="295" y="400" on="1"/>
        <pt x="501" y="400" on="1"/>
        <pt x="473" y="280" on="1"/>
        <pt x="268" y="280" on="1"/>
        <pt x="231" y="120" on="1"/>
        <pt x="492" y="120" on="1"/>
        <pt x="465" y="0" on="1"/>
      </contour>
    </TTGlyph>
    <TTGlyph name="Eacute" xMin="65" yMin="0" xMax="620" yMax="962">
      <contour>
        <pt x="349" y="765" on="1"/>
        <pt x="339" y="871" on="1"/>
        <pt x="603" y="962" on="1"/>
        <pt x="613" y="842" on="1"/>
      </contour>
      <contour>
        <pt x="65" y="0" on="1"/>
        <pt x="221" y="680" on="1"/>
        <pt x="620" y="680" on="1"/>
        <pt x="592" y="560" on="1"/>
        <pt x="332" y="560" on="1"/>
        <pt x="295" y="400" on="1"/>
        <pt x="501" y="400" on="1"/>
        <pt x="473" y="280" on="1"/>
        <pt x="268" y="280" on="1"/>
        <pt x="231" y="120" on="1"/>
        <pt x="492" y="120" on="1"/>
        <pt x="465" y="0" on="1"/>
      </contour>
    </TTGlyph>
    <TTGlyph name="Ebreve" xMin="65" yMin="0" xMax="629" yMax="927">
      <contour>
        <pt x="418" y="918" on="1"/>
        <pt x="418" y="888" on="0"/>
        <pt x="492" y="888" on="0"/>
        <pt x="507" y="927" on="1"/>
        <pt x="629" y="927" on="1"/>
        <pt x="605" y="856" on="0"/>
        <pt x="515" y="783" on="0"/>
        <pt x="358" y="783" on="0"/>
        <pt x="295" y="850" on="0"/>
        <pt x="295" y="900" on="1"/>
        <pt x="295" y="913" on="0"/>
        <pt x="297" y="927" on="1"/>
        <pt x="419" y="927" on="1"/>
        <pt x="418" y="922" on="0"/>
      </contour>
      <contour>
        <pt x="65" y="0" on="1"/>
        <pt x="221" y="680" on="1"/>
        <pt x="620" y="680" on="1"/>
        <pt x="592" y="560" on="1"/>
        <pt x="332" y="560" on="1"/>
        <pt x="295" y="400" on="1"/>
        <pt x="501" y="400" on="1"/>
        <pt x="473" y="280" on="1"/>
        <pt x="268" y="280" on="1"/>
        <pt x="231" y="120" on="1"/>
        <pt x="492" y="120" on="1"/>
        <pt x="465" y="0" on="1"/>
      </contour>
    </TTGlyph>
    <TTGlyph name="Ecaron" xMin="65" yMin="0" xMax="639" yMax="945">
      <contour>
        <pt x="639" y="945" on="1"/>
        <pt x="479" y="794" on="1"/>
        <pt x="387" y="794" on="1"/>
        <pt x="294" y="945" on="1"/>
        <pt x="426" y="945" on="1"/>
        <pt x="455" y="888" on="1"/>
        <pt x="508" y="945" on="1"/>
      </contour>
      <contour>
        <pt x="65" y="0" on="1"/>
        <pt x="221" y="680" on="1"/>
        <pt x="620" y="680" on="1"/>
        <pt x="592" y="560" on="1"/>
        <pt x="332" y="560" on="1"/>
        <pt x="295" y="400" on="1"/>
        <pt x="501" y="400" on="1"/>
        <pt x="473" y="280" on="1"/>
        <pt x="268" y="280" on="1"/>
        <pt x="231" y="120" on="1"/>
        <pt x="492" y="120" on="1"/>
        <pt x="465" y="0" on="1"/>
      </contour>
    </TTGlyph>
    <TTGlyph name="Ecircumflex" xMin="65" yMin="0" xMax="620" yMax="934">
      <contour>
        <pt x="260" y="782" on="1"/>
        <pt x="436" y="934" on="1"/>
        <pt x="516" y="934" on="1"/>
        <pt x="612" y="782" on="1"/>
        <pt x="490" y="782" on="1"/>
        <pt x="464" y="837" on="1"/>
        <pt x="402" y="782" on="1"/>
      </contour>
      <contour>
        <pt x="65" y="0" on="1"/>
        <pt x="221" y="680" on="1"/>
        <pt x="620" y="680" on="1"/>
        <pt x="592" y="560" on="1"/>
        <pt x="332" y="560" on="1"/>
        <pt x="295" y="400" on="1"/>
        <pt x="501" y="400" on="1"/>
        <pt x="473" y="280" on="1"/>
        <pt x="268" y="280" on="1"/>
        <pt x="231" y="120" on="1"/>
        <pt x="492" y="120" on="1"/>
        <pt x="465" y="0" on="1"/>
      </contour>
    </TTGlyph>
    <TTGlyph name="Edieresis" xMin="65" yMin="0" xMax="628" yMax="923">
      <contour>
        <pt x="287" y="788" on="1"/>
        <pt x="318" y="923" on="1"/>
        <pt x="429" y="923" on="1"/>
        <pt x="397" y="788" on="1"/>
      </contour>
      <contour>
        <pt x="486" y="788" on="1"/>
        <pt x="517" y="923" on="1"/>
        <pt x="628" y="923" on="1"/>
        <pt x="595" y="788" on="1"/>
      </contour>
      <contour>
        <pt x="65" y="0" on="1"/>
        <pt x="221" y="680" on="1"/>
        <pt x="620" y="680" on="1"/>
        <pt x="592" y="560" on="1"/>
        <pt x="332" y="560" on="1"/>
        <pt x="295" y="400" on="1"/>
        <pt x="501" y="400" on="1"/>
        <pt x="473" y="280" on="1"/>
        <pt x="268" y="280" on="1"/>
        <pt x="231" y="120" on="1"/>
        <pt x="492" y="120" on="1"/>
        <pt x="465" y="0" on="1"/>
      </contour>
    </TTGlyph>
    <TTGlyph name="Edotaccent" xMin="65" yMin="0" xMax="620" yMax="909">
      <contour>
        <pt x="368" y="771" on="1"/>
        <pt x="400" y="909" on="1"/>
        <pt x="518" y="909" on="1"/>
        <pt x="484" y="771" on="1"/>
      </contour>
      <contour>
        <pt x="65" y="0" on="1"/>
        <pt x="221" y="680" on="1"/>
        <pt x="620" y="680" on="1"/>
        <pt x="592" y="560" on="1"/>
        <pt x="332" y="560" on="1"/>
        <pt x="295" y="400" on="1"/>
        <pt x="501" y="400" on="1"/>
        <pt x="473" y="280" on="1"/>
        <pt x="268" y="280" on="1"/>
        <pt x="231" y="120" on="1"/>
        <pt x="492" y="120" on="1"/>
        <pt x="465" y="0" on="1"/>
      </contour>
    </TTGlyph>
    <TTGlyph name="Egrave" xMin="65" yMin="0" xMax="620" yMax="950">
      <contour>
        <pt x="336" y="950" on="1"/>
        <pt x="558" y="859" on="1"/>
        <pt x="497" y="754" on="1"/>
        <pt x="270" y="831" on="1"/>
      </contour>
      <contour>
        <pt x="65" y="0" on="1"/>
        <pt x="221" y="680" on="1"/>
        <pt x="620" y="680" on="1"/>
        <pt x="592" y="560" on="1"/>
        <pt x="332" y="560" on="1"/>
        <pt x="295" y="400" on="1"/>
        <pt x="501" y="400" on="1"/>
        <pt x="473" y="280" on="1"/>
        <pt x="268" y="280" on="1"/>
        <pt x="231" y="120" on="1"/>
        <pt x="492" y="120" on="1"/>
        <pt x="465" y="0" on="1"/>
      </contour>
    </TTGlyph>
    <TTGlyph name="Emacron" xMin="65" yMin="0" xMax="629" yMax="915">
      <contour>
        <pt x="277" y="806" on="1"/>
        <pt x="302" y="915" on="1"/>
        <pt x="629" y="915" on="1"/>
        <pt x="604" y="806" on="1"/>
      </contour>
      <contour>
        <pt x="65" y="0" on="1"/>
        <pt x="221" y="680" on="1"/>
        <pt x="620" y="680" on="1"/>
        <pt x="592" y="560" on="1"/>
        <pt x="332" y="560" on="1"/>
        <pt x="295" y="400" on="1"/>
        <pt x="501" y="400" on="1"/>
        <pt x="473" y="280" on="1"/>
        <pt x="268" y="280" on="1"/>
        <pt x="231" y="120" on="1"/>
        <pt x="492" y="120" on="1"/>
        <pt x="465" y="0" on="1"/>
      </contour>
    </TTGlyph>
    <TTGlyph name="Eng" xMin="65" yMin="-210" xMax="743" yMax="680">
      <contour>
        <pt x="711" y="539" on="1"/>
        <pt x="585" y="-6" on="1"/>
        <pt x="568" y="-79" on="0"/>
        <pt x="541" y="-152" on="0"/>
        <pt x="485" y="-199" on="0"/>
        <pt x="414" y="-210" on="0"/>
        <pt x="345" y="-210" on="1"/>
        <pt x="368" y="-90" on="1"/>
        <pt x="410" y="-88" on="0"/>
        <pt x="440" y="-62" on="0"/>
        <pt x="453" y="-6" on="1"/>
        <pt x="454" y="0" on="1"/>
        <pt x="378" y="0" on="1"/>
        <pt x="334" y="543" on="1"/>
        <pt x="322" y="543" on="1"/>
        <pt x="195" y="0" on="1"/>
        <pt x="65" y="0" on="1"/>
        <pt x="222" y="680" on="1"/>
        <pt x="441" y="680" on="1"/>
        <pt x="477" y="147" on="1"/>
        <pt x="488" y="147" on="1"/>
        <pt x="610" y="680" on="1"/>
        <pt x="743" y="680" on="1"/>
        <pt x="710" y="539" on="1"/>
      </contour>
    </TTGlyph>
    <TTGlyph name="Eogonek" xMin="65" yMin="-214" xMax="620" yMax="680">
      <contour>
        <pt x="431" y="-16" on="0"/>
        <pt x="387" y="-67" on="0"/>
        <pt x="387" y="-96" on="0"/>
        <pt x="400" y="-96" on="1"/>
        <pt x="437" y="-93" on="1"/>
        <pt x="424" y="-203" on="1"/>
        <pt x="367" y="-214" on="0"/>
        <pt x="287" y="-214" on="0"/>
        <pt x="243" y="-175" on="0"/>
        <pt x="243" y="-137" on="1"/>
        <pt x="243" y="-73" on="0"/>
        <pt x="333" y="0" on="1"/>
        <pt x="65" y="0" on="1"/>
        <pt x="221" y="680" on="1"/>
        <pt x="620" y="680" on="1"/>
        <pt x="592" y="560" on="1"/>
        <pt x="332" y="560" on="1"/>
        <pt x="295" y="400" on="1"/>
        <pt x="501" y="400" on="1"/>
        <pt x="473" y="280" on="1"/>
        <pt x="268" y="280" on="1"/>
        <pt x="231" y="120" on="1"/>
        <pt x="492" y="120" on="1"/>
        <pt x="465" y="0" on="1"/>
        <pt x="453" y="0" on="1"/>
      </contour>
    </TTGlyph>
    <TTGlyph name="Eth" xMin="73" yMin="0" xMax="668" yMax="680">
      <contour>
        <pt x="317" y="0" on="1"/>
        <pt x="73" y="0" on="1"/>
        <pt x="136" y="275" on="1"/>
        <pt x="83" y="275" on="1"/>
        <pt x="112" y="411" on="1"/>
        <pt x="168" y="411" on="1"/>
        <pt x="230" y="680" on="1"/>
        <pt x="444" y="680" on="1"/>
        <pt x="668" y="680" on="0"/>
        <pt x="668" y="473" on="1"/>
        <pt x="668" y="327" on="0"/>
        <pt x="614" y="209" on="1"/>
        <pt x="553" y="77" on="0"/>
        <pt x="447" y="28" on="1"/>
        <pt x="388" y="0" on="0"/>
      </contour>
      <contour>
        <pt x="504" y="307" on="0"/>
        <pt x="526" y="422" on="0"/>
        <pt x="526" y="521" on="0"/>
        <pt x="471" y="560" on="0"/>
        <pt x="416" y="560" on="1"/>
        <pt x="340" y="560" on="1"/>
        <pt x="306" y="411" on="1"/>
        <pt x="415" y="411" on="1"/>
        <pt x="385" y="275" on="1"/>
        <pt x="274" y="275" on="1"/>
        <pt x="239" y="120" on="1"/>
        <pt x="329" y="120" on="1"/>
        <pt x="380" y="120" on="0"/>
        <pt x="460" y="194" on="0"/>
      </contour>
    </TTGlyph>
    <TTGlyph name="Euro" xMin="91" yMin="-12" xMax="655" yMax="672">
      <contour>
        <pt x="348" y="-12" on="1"/>
        <pt x="149" y="-12" on="0"/>
        <pt x="149" y="180" on="1"/>
        <pt x="149" y="183" on="1"/>
        <pt x="91" y="183" on="1"/>
        <pt x="115" y="288" on="1"/>
        <pt x="156" y="288" on="1"/>
        <pt x="164" y="334" on="0"/>
        <pt x="170" y="357" on="1"/>
        <pt x="130" y="357" on="1"/>
        <pt x="155" y="462" on="1"/>
        <pt x="204" y="462" on="1"/>
        <pt x="297" y="672" on="0"/>
        <pt x="489" y="672" on="1"/>
        <pt x="564" y="672" on="0"/>
        <pt x="632" y="650" on="1"/>
        <pt x="655" y="643" on="1"/>
        <pt x="624" y="544" on="1"/>
        <pt x="564" y="555" on="0"/>
        <pt x="404" y="555" on="0"/>
        <pt x="349" y="462" on="1"/>
        <pt x="555" y="462" on="1"/>
        <pt x="531" y="357" on="1"/>
        <pt x="308" y="357" on="1"/>
        <pt x="298" y="321" on="0"/>
        <pt x="294" y="288" on="1"/>
        <pt x="516" y="288" on="1"/>
        <pt x="492" y="183" on="1"/>
        <pt x="287" y="183" on="1"/>
        <pt x="289" y="105" on="0"/>
        <pt x="366" y="105" on="1"/>
        <pt x="433" y="105" on="0"/>
        <pt x="500" y="114" on="1"/>
        <pt x="523" y="117" on="1"/>
        <pt x="512" y="14" on="1"/>
        <pt x="422" y="-12" on="0"/>
      </contour>
    </TTGlyph>
    <TTGlyph name="F" xMin="65" yMin="0" xMax="614" yMax="680">
      <contour>
        <pt x="65" y="0" on="1"/>
        <pt x="222" y="680" on="1"/>
        <pt x="614" y="680" on="1"/>
        <pt x="586" y="560" on="1"/>
        <pt x="332" y="560" on="1"/>
        <pt x="285" y="355" on="1"/>
        <pt x="495" y="355" on="1"/>
        <pt x="466" y="235" on="1"/>
        <pt x="257" y="235" on="1"/>
        <pt x="203" y="0" on="1"/>
      </contour>
    </TTGlyph>
    <TTGlyph name="G" xMin="102" yMin="-12" xMax="673" yMax="692">
      <contour>
        <pt x="327" y="-12" on="1"/>
        <pt x="102" y="-12" on="0"/>
        <pt x="102" y="202" on="1"/>
        <pt x="102" y="364" on="0"/>
        <pt x="158" y="484" on="1"/>
        <pt x="219" y="616" on="0"/>
        <pt x="332" y="666" on="1"/>
        <pt x="392" y="692" on="0"/>
        <pt x="514" y="692" on="0"/>
        <pt x="618" y="672" on="0"/>
        <pt x="646" y="662" on="1"/>
        <pt x="673" y="652" on="1"/>
        <pt x="641" y="552" on="1"/>
        <pt x="542" y="572" on="0"/>
        <pt x="454" y="572" on="1"/>
        <pt x="400" y="572" on="0"/>
        <pt x="315" y="501" on="0"/>
        <pt x="292" y="444" on="1"/>
        <pt x="244" y="329" on="0"/>
        <pt x="244" y="201" on="1"/>
        <pt x="244" y="108" on="0"/>
        <pt x="344" y="108" on="1"/>
        <pt x="407" y="113" on="1"/>
        <pt x="442" y="264" on="1"/>
        <pt x="378" y="264" on="1"/>
        <pt x="405" y="378" on="1"/>
        <pt x="606" y="378" on="1"/>
        <pt x="521" y="14" on="1"/>
        <pt x="453" y="-12" on="0"/>
      </contour>
    </TTGlyph>
    <TTGlyph name="Gbreve" xMin="102" yMin="-12" xMax="705" yMax="926">
      <contour>
        <pt x="469" y="926" on="1"/>
        <pt x="469" y="913" on="1"/>
        <pt x="472" y="882" on="0"/>
        <pt x="558" y="882" on="0"/>
        <pt x="574" y="926" on="1"/>
        <pt x="705" y="926" on="1"/>
        <pt x="680" y="850" on="0"/>
        <pt x="565" y="760" on="0"/>
        <pt x="409" y="760" on="0"/>
        <pt x="374" y="794" on="1"/>
        <pt x="336" y="830" on="0"/>
        <pt x="336" y="892" on="1"/>
        <pt x="336" y="907" on="0"/>
        <pt x="338" y="926" on="1"/>
      </contour>
      <contour>
        <pt x="327" y="-12" on="1"/>
        <pt x="102" y="-12" on="0"/>
        <pt x="102" y="202" on="1"/>
        <pt x="102" y="364" on="0"/>
        <pt x="158" y="484" on="1"/>
        <pt x="219" y="616" on="0"/>
        <pt x="332" y="666" on="1"/>
        <pt x="392" y="692" on="0"/>
        <pt x="514" y="692" on="0"/>
        <pt x="618" y="672" on="0"/>
        <pt x="646" y="662" on="1"/>
        <pt x="673" y="652" on="1"/>
        <pt x="641" y="552" on="1"/>
        <pt x="542" y="572" on="0"/>
        <pt x="454" y="572" on="1"/>
        <pt x="400" y="572" on="0"/>
        <pt x="315" y="501" on="0"/>
        <pt x="292" y="444" on="1"/>
        <pt x="244" y="329" on="0"/>
        <pt x="244" y="201" on="1"/>
        <pt x="244" y="108" on="0"/>
        <pt x="344" y="108" on="1"/>
        <pt x="407" y="113" on="1"/>
        <pt x="442" y="264" on="1"/>
        <pt x="378" y="264" on="1"/>
        <pt x="405" y="378" on="1"/>
        <pt x="606" y="378" on="1"/>
        <pt x="521" y="14" on="1"/>
        <pt x="453" y="-12" on="0"/>
      </contour>
    </TTGlyph>
    <TTGlyph name="Gcircumflex" xMin="102" yMin="-12" xMax="673" yMax="930">
      <contour>
        <pt x="300" y="755" on="1"/>
        <pt x="468" y="930" on="1"/>
        <pt x="568" y="930" on="1"/>
        <pt x="654" y="755" on="1"/>
        <pt x="522" y="755" on="1"/>
        <pt x="498" y="819" on="1"/>
        <pt x="440" y="755" on="1"/>
      </contour>
      <contour>
        <pt x="327" y="-12" on="1"/>
        <pt x="102" y="-12" on="0"/>
        <pt x="102" y="202" on="1"/>
        <pt x="102" y="364" on="0"/>
        <pt x="158" y="484" on="1"/>
        <pt x="219" y="616" on="0"/>
        <pt x="332" y="666" on="1"/>
        <pt x="392" y="692" on="0"/>
        <pt x="514" y="692" on="0"/>
        <pt x="618" y="672" on="0"/>
        <pt x="646" y="662" on="1"/>
        <pt x="673" y="652" on="1"/>
        <pt x="641" y="552" on="1"/>
        <pt x="542" y="572" on="0"/>
        <pt x="454" y="572" on="1"/>
        <pt x="400" y="572" on="0"/>
        <pt x="315" y="501" on="0"/>
        <pt x="292" y="444" on="1"/>
        <pt x="244" y="329" on="0"/>
        <pt x="244" y="201" on="1"/>
        <pt x="244" y="108" on="0"/>
        <pt x="344" y="108" on="1"/>
        <pt x="407" y="113" on="1"/>
        <pt x="442" y="264" on="1"/>
        <pt x="378" y="264" on="1"/>
        <pt x="405" y="378" on="1"/>
        <pt x="606" y="378" on="1"/>
        <pt x="521" y="14" on="1"/>
        <pt x="453" y="-12" on="0"/>
      </contour>
    </TTGlyph>
    <TTGlyph name="Gcommaaccent" xMin="102" yMin="-309" xMax="673" yMax="692">
      <contour>
        <pt x="327" y="-12" on="1"/>
        <pt x="102" y="-12" on="0"/>
        <pt x="102" y="202" on="1"/>
        <pt x="102" y="364" on="0"/>
        <pt x="158" y="484" on="1"/>
        <pt x="219" y="616" on="0"/>
        <pt x="332" y="666" on="1"/>
        <pt x="392" y="692" on="0"/>
        <pt x="514" y="692" on="0"/>
        <pt x="618" y="672" on="0"/>
        <pt x="646" y="662" on="1"/>
        <pt x="673" y="652" on="1"/>
        <pt x="641" y="552" on="1"/>
        <pt x="542" y="572" on="0"/>
        <pt x="454" y="572" on="1"/>
        <pt x="400" y="572" on="0"/>
        <pt x="315" y="501" on="0"/>
        <pt x="292" y="444" on="1"/>
        <pt x="244" y="329" on="0"/>
        <pt x="244" y="201" on="1"/>
        <pt x="244" y="108" on="0"/>
        <pt x="344" y="108" on="1"/>
        <pt x="407" y="113" on="1"/>
        <pt x="442" y="264" on="1"/>
        <pt x="378" y="264" on="1"/>
        <pt x="405" y="378" on="1"/>
        <pt x="606" y="378" on="1"/>
        <pt x="521" y="14" on="1"/>
        <pt x="453" y="-12" on="0"/>
      </contour>
      <contour>
        <pt x="233" y="-72" on="1"/>
        <pt x="356" y="-72" on="1"/>
        <pt x="249" y="-309" on="1"/>
        <pt x="136" y="-309" on="1"/>
      </contour>
    </TTGlyph>
    <TTGlyph name="Gdotaccent" xMin="102" yMin="-12" xMax="673" yMax="869">
      <contour>
        <pt x="419" y="732" on="1"/>
        <pt x="451" y="869" on="1"/>
        <pt x="577" y="869" on="1"/>
        <pt x="545" y="732" on="1"/>
      </contour>
      <contour>
        <pt x="327" y="-12" on="1"/>
        <pt x="102" y="-12" on="0"/>
        <pt x="102" y="202" on="1"/>
        <pt x="102" y="364" on="0"/>
        <pt x="158" y="484" on="1"/>
        <pt x="219" y="616" on="0"/>
        <pt x="332" y="666" on="1"/>
        <pt x="392" y="692" on="0"/>
        <pt x="514" y="692" on="0"/>
        <pt x="618" y="672" on="0"/>
        <pt x="646" y="662" on="1"/>
        <pt x="673" y="652" on="1"/>
        <pt x="641" y="552" on="1"/>
        <pt x="542" y="572" on="0"/>
        <pt x="454" y="572" on="1"/>
        <pt x="400" y="572" on="0"/>
        <pt x="315" y="501" on="0"/>
        <pt x="292" y="444" on="1"/>
        <pt x="244" y="329" on="0"/>
        <pt x="244" y="201" on="1"/>
        <pt x="244" y="108" on="0"/>
        <pt x="344" y="108" on="1"/>
        <pt x="407" y="113" on="1"/>
        <pt x="442" y="264" on="1"/>
        <pt x="378" y="264" on="1"/>
        <pt x="405" y="378" on="1"/>
        <pt x="606" y="378" on="1"/>
        <pt x="521" y="14" on="1"/>
        <pt x="453" y="-12" on="0"/>
      </contour>
    </TTGlyph>
    <TTGlyph name="H" xMin="65" yMin="0" xMax="712" yMax="680">
      <contour>
        <pt x="417" y="0" on="1"/>
        <pt x="483" y="288" on="1"/>
        <pt x="269" y="288" on="1"/>
        <pt x="203" y="0" on="1"/>
        <pt x="65" y="0" on="1"/>
        <pt x="222" y="680" on="1"/>
        <pt x="360" y="680" on="1"/>
        <pt x="297" y="408" on="1"/>
        <pt x="511" y="408" on="1"/>
        <pt x="574" y="680" on="1"/>
        <pt x="712" y="680" on="1"/>
        <pt x="555" y="0" on="1"/>
      </contour>
    </TTGlyph>
    <TTGlyph name="Hbar" xMin="69" yMin="0" xMax="761" yMax="680">
      <contour>
        <pt x="115" y="481" on="1"/>
        <pt x="115" y="484" on="1"/>
        <pt x="143" y="600" on="1"/>
        <pt x="207" y="600" on="1"/>
        <pt x="226" y="680" on="1"/>
        <pt x="358" y="680" on="1"/>
        <pt x="339" y="600" on="1"/>
        <pt x="565" y="600" on="1"/>
        <pt x="584" y="680" on="1"/>
        <pt x="716" y="680" on="1"/>
        <pt x="697" y="600" on="1"/>
        <pt x="761" y="600" on="1"/>
        <pt x="731" y="481" on="1"/>
        <pt x="670" y="481" on="1"/>
        <pt x="559" y="0" on="1"/>
        <pt x="427" y="0" on="1"/>
        <pt x="491" y="278" on="1"/>
        <pt x="265" y="278" on="1"/>
        <pt x="201" y="0" on="1"/>
        <pt x="69" y="0" on="1"/>
        <pt x="180" y="481" on="1"/>
      </contour>
      <contour>
        <pt x="295" y="407" on="1"/>
        <pt x="521" y="407" on="1"/>
        <pt x="538" y="481" on="1"/>
        <pt x="312" y="481" on="1"/>
      </contour>
    </TTGlyph>
    <TTGlyph name="Hcircumflex" xMin="65" yMin="0" xMax="712" yMax="931">
      <contour>
        <pt x="417" y="0" on="1"/>
        <pt x="483" y="288" on="1"/>
        <pt x="269" y="288" on="1"/>
        <pt x="203" y="0" on="1"/>
        <pt x="65" y="0" on="1"/>
        <pt x="222" y="680" on="1"/>
        <pt x="360" y="680" on="1"/>
        <pt x="297" y="408" on="1"/>
        <pt x="511" y="408" on="1"/>
        <pt x="574" y="680" on="1"/>
        <pt x="712" y="680" on="1"/>
        <pt x="555" y="0" on="1"/>
      </contour>
      <contour>
        <pt x="308" y="779" on="1"/>
        <pt x="484" y="931" on="1"/>
        <pt x="564" y="931" on="1"/>
        <pt x="660" y="779" on="1"/>
        <pt x="538" y="779" on="1"/>
        <pt x="512" y="834" on="1"/>
        <pt x="450" y="779" on="1"/>
      </contour>
    </TTGlyph>
    <TTGlyph name="I" xMin="65" yMin="0" xMax="360" yMax="680">
      <contour>
        <pt x="65" y="0" on="1"/>
        <pt x="222" y="680" on="1"/>
        <pt x="360" y="680" on="1"/>
        <pt x="203" y="0" on="1"/>
      </contour>
    </TTGlyph>
    <TTGlyph name="Iacute" xMin="65" yMin="0" xMax="493" yMax="962">
      <contour>
        <pt x="229" y="765" on="1"/>
        <pt x="219" y="871" on="1"/>
        <pt x="483" y="962" on="1"/>
        <pt x="493" y="842" on="1"/>
      </contour>
      <contour>
        <pt x="65" y="0" on="1"/>
        <pt x="222" y="680" on="1"/>
        <pt x="360" y="680" on="1"/>
        <pt x="203" y="0" on="1"/>
      </contour>
    </TTGlyph>
    <TTGlyph name="Ibreve" xMin="65" yMin="0" xMax="514" yMax="927">
      <contour>
        <pt x="303" y="918" on="1"/>
        <pt x="303" y="888" on="0"/>
        <pt x="377" y="888" on="0"/>
        <pt x="392" y="927" on="1"/>
        <pt x="514" y="927" on="1"/>
        <pt x="490" y="856" on="0"/>
        <pt x="400" y="783" on="0"/>
        <pt x="243" y="783" on="0"/>
        <pt x="180" y="850" on="0"/>
        <pt x="180" y="900" on="1"/>
        <pt x="180" y="913" on="0"/>
        <pt x="182" y="927" on="1"/>
        <pt x="304" y="927" on="1"/>
        <pt x="303" y="922" on="0"/>
      </contour>
      <contour>
        <pt x="65" y="0" on="1"/>
        <pt x="222" y="680" on="1"/>
        <pt x="360" y="680" on="1"/>
        <pt x="203" y="0" on="1"/>
      </contour>
    </TTGlyph>
    <TTGlyph name="Icircumflex" xMin="65" yMin="0" xMax="484" yMax="934">
      <contour>
        <pt x="132" y="782" on="1"/>
        <pt x="308" y="934" on="1"/>
        <pt x="388" y="934" on="1"/>
        <pt x="484" y="782" on="1"/>
        <pt x="362" y="782" on="1"/>
        <pt x="336" y="837" on="1"/>
        <pt x="274" y="782" on="1"/>
      </contour>
      <contour>
        <pt x="65" y="0" on="1"/>
        <pt x="222" y="680" on="1"/>
        <pt x="360" y="680" on="1"/>
        <pt x="203" y="0" on="1"/>
      </contour>
    </TTGlyph>
    <TTGlyph name="Idieresis" xMin="65" yMin="0" xMax="499" yMax="935">
      <contour>
        <pt x="158" y="800" on="1"/>
        <pt x="189" y="935" on="1"/>
        <pt x="300" y="935" on="1"/>
        <pt x="268" y="800" on="1"/>
      </contour>
      <contour>
        <pt x="357" y="800" on="1"/>
        <pt x="388" y="935" on="1"/>
        <pt x="499" y="935" on="1"/>
        <pt x="466" y="800" on="1"/>
      </contour>
      <contour>
        <pt x="65" y="0" on="1"/>
        <pt x="222" y="680" on="1"/>
        <pt x="360" y="680" on="1"/>
        <pt x="203" y="0" on="1"/>
      </contour>
    </TTGlyph>
    <TTGlyph name="Idotaccent" xMin="65" yMin="0" xMax="401" yMax="909">
      <contour>
        <pt x="251" y="771" on="1"/>
        <pt x="283" y="909" on="1"/>
        <pt x="401" y="909" on="1"/>
        <pt x="367" y="771" on="1"/>
      </contour>
      <contour>
        <pt x="65" y="0" on="1"/>
        <pt x="222" y="680" on="1"/>
        <pt x="360" y="680" on="1"/>
        <pt x="203" y="0" on="1"/>
      </contour>
    </TTGlyph>
    <TTGlyph name="Igrave" xMin="65" yMin="0" xMax="432" yMax="950">
      <contour>
        <pt x="210" y="950" on="1"/>
        <pt x="432" y="859" on="1"/>
        <pt x="371" y="754" on="1"/>
        <pt x="144" y="831" on="1"/>
      </contour>
      <contour>
        <pt x="65" y="0" on="1"/>
        <pt x="222" y="680" on="1"/>
        <pt x="360" y="680" on="1"/>
        <pt x="203" y="0" on="1"/>
      </contour>
    </TTGlyph>
    <TTGlyph name="Imacron" xMin="65" yMin="0" xMax="502" yMax="926">
      <contour>
        <pt x="150" y="817" on="1"/>
        <pt x="175" y="926" on="1"/>
        <pt x="502" y="926" on="1"/>
        <pt x="477" y="817" on="1"/>
      </contour>
      <contour>
        <pt x="65" y="0" on="1"/>
        <pt x="222" y="680" on="1"/>
        <pt x="360" y="680" on="1"/>
        <pt x="203" y="0" on="1"/>
      </contour>
    </TTGlyph>
    <TTGlyph name="Iogonek" xMin="-19" yMin="-214" xMax="360" yMax="680">
      <contour>
        <pt x="177" y="-11" on="0"/>
        <pt x="125" y="-65" on="0"/>
        <pt x="125" y="-96" on="0"/>
        <pt x="138" y="-96" on="1"/>
        <pt x="175" y="-93" on="1"/>
        <pt x="162" y="-203" on="1"/>
        <pt x="105" y="-214" on="0"/>
        <pt x="25" y="-214" on="0"/>
        <pt x="-19" y="-175" on="0"/>
        <pt x="-19" y="-137" on="1"/>
        <pt x="-19" y="-73" on="0"/>
        <pt x="71" y="0" on="1"/>
        <pt x="65" y="0" on="1"/>
        <pt x="222" y="680" on="1"/>
        <pt x="360" y="680" on="1"/>
        <pt x="203" y="0" on="1"/>
      </contour>
    </TTGlyph>
    <TTGlyph name="Itilde" xMin="65" yMin="0" xMax="505" yMax="930">
      <contour>
        <pt x="413" y="769" on="0"/>
        <pt x="364" y="769" on="0"/>
        <pt x="258" y="812" on="0"/>
        <pt x="244" y="812" on="1"/>
        <pt x="221" y="812" on="0"/>
        <pt x="172" y="782" on="1"/>
        <pt x="157" y="773" on="1"/>
        <pt x="153" y="866" on="1"/>
        <pt x="183" y="892" on="0"/>
        <pt x="248" y="930" on="0"/>
        <pt x="303" y="930" on="0"/>
        <pt x="408" y="888" on="0"/>
        <pt x="418" y="888" on="1"/>
        <pt x="439" y="888" on="0"/>
        <pt x="487" y="916" on="1"/>
        <pt x="503" y="926" on="1"/>
        <pt x="505" y="832" on="1"/>
        <pt x="481" y="808" on="0"/>
      </contour>
      <contour>
        <pt x="65" y="0" on="1"/>
        <pt x="222" y="680" on="1"/>
        <pt x="360" y="680" on="1"/>
        <pt x="203" y="0" on="1"/>
      </contour>
    </TTGlyph>
    <TTGlyph name="J" xMin="6" yMin="-69" xMax="378" yMax="680">
      <contour>
        <pt x="378" y="680" on="1"/>
        <pt x="252" y="135" on="1"/>
        <pt x="229" y="34" on="0"/>
        <pt x="198" y="-15" on="1"/>
        <pt x="182" y="-40" on="0"/>
        <pt x="155" y="-50" on="1"/>
        <pt x="104" y="-69" on="0"/>
        <pt x="6" y="-69" on="1"/>
        <pt x="29" y="51" on="1"/>
        <pt x="71" y="53" on="0"/>
        <pt x="101" y="79" on="0"/>
        <pt x="114" y="135" on="1"/>
        <pt x="240" y="680" on="1"/>
      </contour>
    </TTGlyph>
    <TTGlyph name="Jcircumflex" xMin="6" yMin="-69" xMax="496" yMax="931">
      <contour>
        <pt x="378" y="680" on="1"/>
        <pt x="252" y="135" on="1"/>
        <pt x="229" y="34" on="0"/>
        <pt x="198" y="-15" on="1"/>
        <pt x="182" y="-40" on="0"/>
        <pt x="155" y="-50" on="1"/>
        <pt x="104" y="-69" on="0"/>
        <pt x="6" y="-69" on="1"/>
        <pt x="29" y="51" on="1"/>
        <pt x="71" y="53" on="0"/>
        <pt x="101" y="79" on="0"/>
        <pt x="114" y="135" on="1"/>
        <pt x="240" y="680" on="1"/>
      </contour>
      <contour>
        <pt x="144" y="779" on="1"/>
        <pt x="320" y="931" on="1"/>
        <pt x="400" y="931" on="1"/>
        <pt x="496" y="779" on="1"/>
        <pt x="374" y="779" on="1"/>
        <pt x="348" y="834" on="1"/>
        <pt x="286" y="779" on="1"/>
      </contour>
    </TTGlyph>
    <TTGlyph name="K" xMin="65" yMin="0" xMax="683" yMax="680">
      <contour>
        <pt x="384" y="0" on="1"/>
        <pt x="340" y="273" on="1"/>
        <pt x="264" y="266" on="1"/>
        <pt x="203" y="0" on="1"/>
        <pt x="65" y="0" on="1"/>
        <pt x="222" y="680" on="1"/>
        <pt x="360" y="680" on="1"/>
        <pt x="292" y="386" on="1"/>
        <pt x="356" y="394" on="1"/>
        <pt x="532" y="680" on="1"/>
        <pt x="683" y="680" on="1"/>
        <pt x="466" y="339" on="1"/>
        <pt x="529" y="0" on="1"/>
      </contour>
    </TTGlyph>
    <TTGlyph name="Kcommaaccent" xMin="65" yMin="-309" xMax="683" yMax="680">
      <contour>
        <pt x="215" y="-72" on="1"/>
        <pt x="338" y="-72" on="1"/>
        <pt x="231" y="-309" on="1"/>
        <pt x="118" y="-309" on="1"/>
      </contour>
      <contour>
        <pt x="384" y="0" on="1"/>
        <pt x="340" y="273" on="1"/>
        <pt x="264" y="266" on="1"/>
        <pt x="203" y="0" on="1"/>
        <pt x="65" y="0" on="1"/>
        <pt x="222" y="680" on="1"/>
        <pt x="360" y="680" on="1"/>
        <pt x="292" y="386" on="1"/>
        <pt x="356" y="394" on="1"/>
        <pt x="532" y="680" on="1"/>
        <pt x="683" y="680" on="1"/>
        <pt x="466" y="339" on="1"/>
        <pt x="529" y="0" on="1"/>
      </contour>
    </TTGlyph>
    <TTGlyph name="L" xMin="65" yMin="0" xMax="446" yMax="680">
      <contour>
        <pt x="419" y="0" on="1"/>
        <pt x="65" y="0" on="1"/>
        <pt x="222" y="680" on="1"/>
        <pt x="360" y="680" on="1"/>
        <pt x="231" y="120" on="1"/>
        <pt x="446" y="120" on="1"/>
      </contour>
    </TTGlyph>
    <TTGlyph name="Lacute" xMin="65" yMin="0" xMax="564" yMax="962">
      <contour>
        <pt x="300" y="765" on="1"/>
        <pt x="290" y="871" on="1"/>
        <pt x="554" y="962" on="1"/>
        <pt x="564" y="842" on="1"/>
      </contour>
      <contour>
        <pt x="419" y="0" on="1"/>
        <pt x="65" y="0" on="1"/>
        <pt x="222" y="680" on="1"/>
        <pt x="360" y="680" on="1"/>
        <pt x="231" y="120" on="1"/>
        <pt x="446" y="120" on="1"/>
      </contour>
    </TTGlyph>
    <TTGlyph name="Lcaron" xMin="65" yMin="0" xMax="590" yMax="680">
      <contour>
        <pt x="590" y="680" on="1"/>
        <pt x="530" y="429" on="1"/>
        <pt x="407" y="429" on="1"/>
        <pt x="468" y="680" on="1"/>
      </contour>
      <contour>
        <pt x="419" y="0" on="1"/>
        <pt x="65" y="0" on="1"/>
        <pt x="222" y="680" on="1"/>
        <pt x="360" y="680" on="1"/>
        <pt x="231" y="120" on="1"/>
        <pt x="446" y="120" on="1"/>
      </contour>
    </TTGlyph>
    <TTGlyph name="Lcommaaccent" xMin="65" yMin="-309" xMax="446" yMax="680">
      <contour>
        <pt x="165" y="-72" on="1"/>
        <pt x="288" y="-72" on="1"/>
        <pt x="181" y="-309" on="1"/>
        <pt x="68" y="-309" on="1"/>
      </contour>
      <contour>
        <pt x="419" y="0" on="1"/>
        <pt x="65" y="0" on="1"/>
        <pt x="222" y="680" on="1"/>
        <pt x="360" y="680" on="1"/>
        <pt x="231" y="120" on="1"/>
        <pt x="446" y="120" on="1"/>
      </contour>
    </TTGlyph>
    <TTGlyph name="Lslash" xMin="46" yMin="0" xMax="448" yMax="680">
      <contour>
        <pt x="421" y="0" on="1"/>
        <pt x="67" y="0" on="1"/>
        <pt x="115" y="208" on="1"/>
        <pt x="87" y="191" on="1"/>
        <pt x="46" y="284" on="1"/>
        <pt x="147" y="346" on="1"/>
        <pt x="224" y="680" on="1"/>
        <pt x="362" y="680" on="1"/>
        <pt x="308" y="446" on="1"/>
        <pt x="404" y="506" on="1"/>
        <pt x="445" y="414" on="1"/>
        <pt x="276" y="309" on="1"/>
        <pt x="233" y="120" on="1"/>
        <pt x="448" y="120" on="1"/>
      </contour>
    </TTGlyph>
    <TTGlyph name="M" xMin="65" yMin="0" xMax="881" yMax="680">
      <contour>
        <pt x="65" y="0" on="1"/>
        <pt x="222" y="680" on="1"/>
        <pt x="436" y="680" on="1"/>
        <pt x="437" y="185" on="1"/>
        <pt x="663" y="680" on="1"/>
        <pt x="881" y="680" on="1"/>
        <pt x="724" y="0" on="1"/>
        <pt x="586" y="0" on="1"/>
        <pt x="716" y="560" on="1"/>
        <pt x="710" y="560" on="1"/>
        <pt x="467" y="30" on="1"/>
        <pt x="337" y="30" on="1"/>
        <pt x="336" y="560" on="1"/>
        <pt x="331" y="560" on="1"/>
        <pt x="203" y="0" on="1"/>
      </contour>
    </TTGlyph>
    <TTGlyph name="N" xMin="65" yMin="0" xMax="743" yMax="680">
      <contour>
        <pt x="65" y="0" on="1"/>
        <pt x="222" y="680" on="1"/>
        <pt x="441" y="680" on="1"/>
        <pt x="477" y="147" on="1"/>
        <pt x="489" y="147" on="1"/>
        <pt x="610" y="680" on="1"/>
        <pt x="743" y="680" on="1"/>
        <pt x="586" y="0" on="1"/>
        <pt x="378" y="0" on="1"/>
        <pt x="334" y="543" on="1"/>
        <pt x="322" y="543" on="1"/>
        <pt x="195" y="0" on="1"/>
      </contour>
    </TTGlyph>
    <TTGlyph name="Nacute" xMin="65" yMin="0" xMax="743" yMax="962">
      <contour>
        <pt x="389" y="765" on="1"/>
        <pt x="379" y="871" on="1"/>
        <pt x="643" y="962" on="1"/>
        <pt x="653" y="842" on="1"/>
      </contour>
      <contour>
        <pt x="65" y="0" on="1"/>
        <pt x="222" y="680" on="1"/>
        <pt x="441" y="680" on="1"/>
        <pt x="477" y="147" on="1"/>
        <pt x="489" y="147" on="1"/>
        <pt x="610" y="680" on="1"/>
        <pt x="743" y="680" on="1"/>
        <pt x="586" y="0" on="1"/>
        <pt x="378" y="0" on="1"/>
        <pt x="334" y="543" on="1"/>
        <pt x="322" y="543" on="1"/>
        <pt x="195" y="0" on="1"/>
      </contour>
    </TTGlyph>
    <TTGlyph name="Ncaron" xMin="65" yMin="0" xMax="743" yMax="926">
      <contour>
        <pt x="690" y="926" on="1"/>
        <pt x="530" y="775" on="1"/>
        <pt x="438" y="775" on="1"/>
        <pt x="345" y="926" on="1"/>
        <pt x="477" y="926" on="1"/>
        <pt x="506" y="869" on="1"/>
        <pt x="559" y="926" on="1"/>
      </contour>
      <contour>
        <pt x="65" y="0" on="1"/>
        <pt x="222" y="680" on="1"/>
        <pt x="441" y="680" on="1"/>
        <pt x="477" y="147" on="1"/>
        <pt x="489" y="147" on="1"/>
        <pt x="610" y="680" on="1"/>
        <pt x="743" y="680" on="1"/>
        <pt x="586" y="0" on="1"/>
        <pt x="378" y="0" on="1"/>
        <pt x="334" y="543" on="1"/>
        <pt x="322" y="543" on="1"/>
        <pt x="195" y="0" on="1"/>
      </contour>
    </TTGlyph>
    <TTGlyph name="Ncommaaccent" xMin="65" yMin="-309" xMax="743" yMax="680">
      <contour>
        <pt x="280" y="-72" on="1"/>
        <pt x="403" y="-72" on="1"/>
        <pt x="296" y="-309" on="1"/>
        <pt x="183" y="-309" on="1"/>
      </contour>
      <contour>
        <pt x="65" y="0" on="1"/>
        <pt x="222" y="680" on="1"/>
        <pt x="441" y="680" on="1"/>
        <pt x="477" y="147" on="1"/>
        <pt x="489" y="147" on="1"/>
        <pt x="610" y="680" on="1"/>
        <pt x="743" y="680" on="1"/>
        <pt x="586" y="0" on="1"/>
        <pt x="378" y="0" on="1"/>
        <pt x="334" y="543" on="1"/>
        <pt x="322" y="543" on="1"/>
        <pt x="195" y="0" on="1"/>
      </contour>
    </TTGlyph>
    <TTGlyph name="Ntilde" xMin="65" yMin="0" xMax="743" yMax="939">
      <contour>
        <pt x="585" y="778" on="0"/>
        <pt x="536" y="778" on="0"/>
        <pt x="430" y="821" on="0"/>
        <pt x="416" y="821" on="1"/>
        <pt x="389" y="821" on="0"/>
        <pt x="344" y="792" on="1"/>
        <pt x="329" y="782" on="1"/>
        <pt x="325" y="875" on="1"/>
        <pt x="355" y="901" on="0"/>
        <pt x="420" y="939" on="0"/>
        <pt x="475" y="939" on="0"/>
        <pt x="580" y="897" on="0"/>
        <pt x="590" y="897" on="1"/>
        <pt x="611" y="897" on="0"/>
        <pt x="659" y="926" on="1"/>
        <pt x="675" y="935" on="1"/>
        <pt x="677" y="841" on="1"/>
        <pt x="653" y="817" on="0"/>
      </contour>
      <contour>
        <pt x="65" y="0" on="1"/>
        <pt x="222" y="680" on="1"/>
        <pt x="441" y="680" on="1"/>
        <pt x="477" y="147" on="1"/>
        <pt x="489" y="147" on="1"/>
        <pt x="610" y="680" on="1"/>
        <pt x="743" y="680" on="1"/>
        <pt x="586" y="0" on="1"/>
        <pt x="378" y="0" on="1"/>
        <pt x="334" y="543" on="1"/>
        <pt x="322" y="543" on="1"/>
        <pt x="195" y="0" on="1"/>
      </contour>
    </TTGlyph>
    <TTGlyph name="O" xMin="101" yMin="-12" xMax="669" yMax="692">
      <contour>
        <pt x="243" y="155" on="0"/>
        <pt x="286" y="108" on="0"/>
        <pt x="389" y="108" on="0"/>
        <pt x="423" y="142" on="1"/>
        <pt x="470" y="189" on="0"/>
        <pt x="527" y="379" on="0"/>
        <pt x="527" y="470" on="1"/>
        <pt x="527" y="525" on="0"/>
        <pt x="485" y="572" on="0"/>
        <pt x="381" y="572" on="0"/>
        <pt x="351" y="542" on="1"/>
        <pt x="301" y="493" on="0"/>
        <pt x="243" y="294" on="0"/>
      </contour>
      <contour>
        <pt x="669" y="347" on="0"/>
        <pt x="587" y="110" on="0"/>
        <pt x="430" y="-12" on="0"/>
        <pt x="322" y="-12" on="1"/>
        <pt x="101" y="-12" on="0"/>
        <pt x="101" y="196" on="1"/>
        <pt x="101" y="327" on="0"/>
        <pt x="181" y="559" on="0"/>
        <pt x="335" y="692" on="0"/>
        <pt x="448" y="692" on="1"/>
        <pt x="669" y="692" on="0"/>
        <pt x="669" y="484" on="1"/>
      </contour>
    </TTGlyph>
    <TTGlyph name="OE" xMin="94" yMin="-12" xMax="959" yMax="702">
      <contour>
        <pt x="279" y="-12" on="1"/>
        <pt x="94" y="-12" on="0"/>
        <pt x="94" y="177" on="1"/>
        <pt x="94" y="249" on="0"/>
        <pt x="117" y="345" on="1"/>
        <pt x="161" y="530" on="0"/>
        <pt x="324" y="702" on="0"/>
        <pt x="447" y="702" on="1"/>
        <pt x="489" y="702" on="0"/>
        <pt x="555" y="690" on="1"/>
        <pt x="959" y="690" on="1"/>
        <pt x="929" y="559" on="1"/>
        <pt x="653" y="559" on="1"/>
        <pt x="614" y="402" on="1"/>
        <pt x="834" y="402" on="1"/>
        <pt x="805" y="277" on="1"/>
        <pt x="586" y="279" on="1"/>
        <pt x="551" y="131" on="1"/>
        <pt x="826" y="131" on="1"/>
        <pt x="796" y="0" on="1"/>
        <pt x="395" y="0" on="1"/>
        <pt x="321" y="-12" on="0"/>
      </contour>
      <contour>
        <pt x="328" y="120" on="1"/>
        <pt x="355" y="120" on="0"/>
        <pt x="421" y="126" on="1"/>
        <pt x="526" y="564" on="1"/>
        <pt x="475" y="570" on="0"/>
        <pt x="433" y="570" on="1"/>
        <pt x="365" y="570" on="0"/>
        <pt x="281" y="469" on="0"/>
        <pt x="252" y="345" on="1"/>
        <pt x="232" y="262" on="0"/>
        <pt x="232" y="165" on="0"/>
        <pt x="277" y="120" on="0"/>
      </contour>
    </TTGlyph>
    <TTGlyph name="Oacute" xMin="101" yMin="-12" xMax="669" yMax="962">
      <contour>
        <pt x="243" y="155" on="0"/>
        <pt x="286" y="108" on="0"/>
        <pt x="389" y="108" on="0"/>
        <pt x="423" y="142" on="1"/>
        <pt x="470" y="189" on="0"/>
        <pt x="527" y="379" on="0"/>
        <pt x="527" y="470" on="1"/>
        <pt x="527" y="525" on="0"/>
        <pt x="485" y="572" on="0"/>
        <pt x="381" y="572" on="0"/>
        <pt x="351" y="542" on="1"/>
        <pt x="301" y="493" on="0"/>
        <pt x="243" y="294" on="0"/>
      </contour>
      <contour>
        <pt x="669" y="347" on="0"/>
        <pt x="587" y="110" on="0"/>
        <pt x="430" y="-12" on="0"/>
        <pt x="322" y="-12" on="1"/>
        <pt x="101" y="-12" on="0"/>
        <pt x="101" y="196" on="1"/>
        <pt x="101" y="327" on="0"/>
        <pt x="181" y="559" on="0"/>
        <pt x="335" y="692" on="0"/>
        <pt x="448" y="692" on="1"/>
        <pt x="669" y="692" on="0"/>
        <pt x="669" y="484" on="1"/>
      </contour>
      <contour>
        <pt x="388" y="765" on="1"/>
        <pt x="378" y="871" on="1"/>
        <pt x="642" y="962" on="1"/>
        <pt x="652" y="842" on="1"/>
      </contour>
    </TTGlyph>
    <TTGlyph name="Obreve" xMin="101" yMin="-12" xMax="675" yMax="927">
      <contour>
        <pt x="464" y="918" on="1"/>
        <pt x="464" y="888" on="0"/>
        <pt x="538" y="888" on="0"/>
        <pt x="553" y="927" on="1"/>
        <pt x="675" y="927" on="1"/>
        <pt x="651" y="856" on="0"/>
        <pt x="561" y="783" on="0"/>
        <pt x="404" y="783" on="0"/>
        <pt x="341" y="850" on="0"/>
        <pt x="341" y="900" on="1"/>
        <pt x="341" y="913" on="0"/>
        <pt x="343" y="927" on="1"/>
        <pt x="465" y="927" on="1"/>
        <pt x="464" y="922" on="0"/>
      </contour>
      <contour>
        <pt x="243" y="155" on="0"/>
        <pt x="286" y="108" on="0"/>
        <pt x="389" y="108" on="0"/>
        <pt x="423" y="142" on="1"/>
        <pt x="470" y="189" on="0"/>
        <pt x="527" y="379" on="0"/>
        <pt x="527" y="470" on="1"/>
        <pt x="527" y="525" on="0"/>
        <pt x="485" y="572" on="0"/>
        <pt x="381" y="572" on="0"/>
        <pt x="351" y="542" on="1"/>
        <pt x="301" y="493" on="0"/>
        <pt x="243" y="294" on="0"/>
      </contour>
      <contour>
        <pt x="669" y="347" on="0"/>
        <pt x="587" y="110" on="0"/>
        <pt x="430" y="-12" on="0"/>
        <pt x="322" y="-12" on="1"/>
        <pt x="101" y="-12" on="0"/>
        <pt x="101" y="196" on="1"/>
        <pt x="101" y="327" on="0"/>
        <pt x="181" y="559" on="0"/>
        <pt x="335" y="692" on="0"/>
        <pt x="448" y="692" on="1"/>
        <pt x="669" y="692" on="0"/>
        <pt x="669" y="484" on="1"/>
      </contour>
    </TTGlyph>
    <TTGlyph name="Ocircumflex" xMin="101" yMin="-12" xMax="669" yMax="931">
      <contour>
        <pt x="243" y="155" on="0"/>
        <pt x="286" y="108" on="0"/>
        <pt x="389" y="108" on="0"/>
        <pt x="423" y="142" on="1"/>
        <pt x="470" y="189" on="0"/>
        <pt x="527" y="379" on="0"/>
        <pt x="527" y="470" on="1"/>
        <pt x="527" y="525" on="0"/>
        <pt x="485" y="572" on="0"/>
        <pt x="381" y="572" on="0"/>
        <pt x="351" y="542" on="1"/>
        <pt x="301" y="493" on="0"/>
        <pt x="243" y="294" on="0"/>
      </contour>
      <contour>
        <pt x="669" y="347" on="0"/>
        <pt x="587" y="110" on="0"/>
        <pt x="430" y="-12" on="0"/>
        <pt x="322" y="-12" on="1"/>
        <pt x="101" y="-12" on="0"/>
        <pt x="101" y="196" on="1"/>
        <pt x="101" y="327" on="0"/>
        <pt x="181" y="559" on="0"/>
        <pt x="335" y="692" on="0"/>
        <pt x="448" y="692" on="1"/>
        <pt x="669" y="692" on="0"/>
        <pt x="669" y="484" on="1"/>
      </contour>
      <contour>
        <pt x="309" y="779" on="1"/>
        <pt x="485" y="931" on="1"/>
        <pt x="565" y="931" on="1"/>
        <pt x="661" y="779" on="1"/>
        <pt x="539" y="779" on="1"/>
        <pt x="513" y="834" on="1"/>
        <pt x="451" y="779" on="1"/>
      </contour>
    </TTGlyph>
    <TTGlyph name="Odieresis" xMin="101" yMin="-12" xMax="677" yMax="916">
      <contour>
        <pt x="321" y="781" on="1"/>
        <pt x="352" y="916" on="1"/>
        <pt x="473" y="916" on="1"/>
        <pt x="441" y="781" on="1"/>
      </contour>
      <contour>
        <pt x="525" y="781" on="1"/>
        <pt x="556" y="916" on="1"/>
        <pt x="677" y="916" on="1"/>
        <pt x="645" y="781" on="1"/>
      </contour>
      <contour>
        <pt x="243" y="155" on="0"/>
        <pt x="286" y="108" on="0"/>
        <pt x="389" y="108" on="0"/>
        <pt x="423" y="142" on="1"/>
        <pt x="470" y="189" on="0"/>
        <pt x="527" y="379" on="0"/>
        <pt x="527" y="470" on="1"/>
        <pt x="527" y="525" on="0"/>
        <pt x="485" y="572" on="0"/>
        <pt x="381" y="572" on="0"/>
        <pt x="351" y="542" on="1"/>
        <pt x="301" y="493" on="0"/>
        <pt x="243" y="294" on="0"/>
      </contour>
      <contour>
        <pt x="669" y="347" on="0"/>
        <pt x="587" y="110" on="0"/>
        <pt x="430" y="-12" on="0"/>
        <pt x="322" y="-12" on="1"/>
        <pt x="101" y="-12" on="0"/>
        <pt x="101" y="196" on="1"/>
        <pt x="101" y="327" on="0"/>
        <pt x="181" y="559" on="0"/>
        <pt x="335" y="692" on="0"/>
        <pt x="448" y="692" on="1"/>
        <pt x="669" y="692" on="0"/>
        <pt x="669" y="484" on="1"/>
      </contour>
    </TTGlyph>
    <TTGlyph name="Ograve" xMin="101" yMin="-12" xMax="669" yMax="950">
      <contour>
        <pt x="396" y="950" on="1"/>
        <pt x="618" y="859" on="1"/>
        <pt x="557" y="754" on="1"/>
        <pt x="330" y="831" on="1"/>
      </contour>
      <contour>
        <pt x="243" y="155" on="0"/>
        <pt x="286" y="108" on="0"/>
        <pt x="389" y="108" on="0"/>
        <pt x="423" y="142" on="1"/>
        <pt x="470" y="189" on="0"/>
        <pt x="527" y="379" on="0"/>
        <pt x="527" y="470" on="1"/>
        <pt x="527" y="525" on="0"/>
        <pt x="485" y="572" on="0"/>
        <pt x="381" y="572" on="0"/>
        <pt x="351" y="542" on="1"/>
        <pt x="301" y="493" on="0"/>
        <pt x="243" y="294" on="0"/>
      </contour>
      <contour>
        <pt x="669" y="347" on="0"/>
        <pt x="587" y="110" on="0"/>
        <pt x="430" y="-12" on="0"/>
        <pt x="322" y="-12" on="1"/>
        <pt x="101" y="-12" on="0"/>
        <pt x="101" y="196" on="1"/>
        <pt x="101" y="327" on="0"/>
        <pt x="181" y="559" on="0"/>
        <pt x="335" y="692" on="0"/>
        <pt x="448" y="692" on="1"/>
        <pt x="669" y="692" on="0"/>
        <pt x="669" y="484" on="1"/>
      </contour>
    </TTGlyph>
    <TTGlyph name="Ohungarumlaut" xMin="101" yMin="-12" xMax="744" yMax="979">
      <contour>
        <pt x="623" y="740" on="1"/>
        <pt x="524" y="780" on="1"/>
        <pt x="635" y="978" on="1"/>
        <pt x="744" y="933" on="1"/>
      </contour>
      <contour>
        <pt x="419" y="741" on="1"/>
        <pt x="319" y="780" on="1"/>
        <pt x="431" y="979" on="1"/>
        <pt x="540" y="934" on="1"/>
      </contour>
      <contour>
        <pt x="243" y="155" on="0"/>
        <pt x="286" y="108" on="0"/>
        <pt x="389" y="108" on="0"/>
        <pt x="423" y="142" on="1"/>
        <pt x="470" y="189" on="0"/>
        <pt x="527" y="379" on="0"/>
        <pt x="527" y="470" on="1"/>
        <pt x="527" y="525" on="0"/>
        <pt x="485" y="572" on="0"/>
        <pt x="381" y="572" on="0"/>
        <pt x="351" y="542" on="1"/>
        <pt x="301" y="493" on="0"/>
        <pt x="243" y="294" on="0"/>
      </contour>
      <contour>
        <pt x="669" y="347" on="0"/>
        <pt x="587" y="110" on="0"/>
        <pt x="430" y="-12" on="0"/>
        <pt x="322" y="-12" on="1"/>
        <pt x="101" y="-12" on="0"/>
        <pt x="101" y="196" on="1"/>
        <pt x="101" y="327" on="0"/>
        <pt x="181" y="559" on="0"/>
        <pt x="335" y="692" on="0"/>
        <pt x="448" y="692" on="1"/>
        <pt x="669" y="692" on="0"/>
        <pt x="669" y="484" on="1"/>
      </contour>
    </TTGlyph>
    <TTGlyph name="Omacron" xMin="101" yMin="-12" xMax="669" yMax="915">
      <contour>
        <pt x="243" y="155" on="0"/>
        <pt x="286" y="108" on="0"/>
        <pt x="389" y="108" on="0"/>
        <pt x="423" y="142" on="1"/>
        <pt x="470" y="189" on="0"/>
        <pt x="527" y="379" on="0"/>
        <pt x="527" y="470" on="1"/>
        <pt x="527" y="525" on="0"/>
        <pt x="485" y="572" on="0"/>
        <pt x="381" y="572" on="0"/>
        <pt x="351" y="542" on="1"/>
        <pt x="301" y="493" on="0"/>
        <pt x="243" y="294" on="0"/>
      </contour>
      <contour>
        <pt x="669" y="347" on="0"/>
        <pt x="587" y="110" on="0"/>
        <pt x="430" y="-12" on="0"/>
        <pt x="322" y="-12" on="1"/>
        <pt x="101" y="-12" on="0"/>
        <pt x="101" y="196" on="1"/>
        <pt x="101" y="327" on="0"/>
        <pt x="181" y="559" on="0"/>
        <pt x="335" y="692" on="0"/>
        <pt x="448" y="692" on="1"/>
        <pt x="669" y="692" on="0"/>
        <pt x="669" y="484" on="1"/>
      </contour>
      <contour>
        <pt x="317" y="806" on="1"/>
        <pt x="342" y="915" on="1"/>
        <pt x="669" y="915" on="1"/>
        <pt x="644" y="806" on="1"/>
      </contour>
    </TTGlyph>
    <TTGlyph name="Omega" xMin="103" yMin="-9" xMax="583" yMax="672">
      <contour>
        <pt x="115" y="105" on="1"/>
        <pt x="195" y="105" on="1"/>
        <pt x="186" y="114" on="0"/>
        <pt x="147" y="182" on="0"/>
        <pt x="135" y="212" on="1"/>
        <pt x="103" y="294" on="0"/>
        <pt x="103" y="385" on="1"/>
        <pt x="103" y="536" on="0"/>
        <pt x="215" y="672" on="0"/>
        <pt x="471" y="672" on="0"/>
        <pt x="583" y="536" on="0"/>
        <pt x="583" y="385" on="1"/>
        <pt x="583" y="309" on="0"/>
        <pt x="537" y="169" on="0"/>
        <pt x="514" y="137" on="1"/>
        <pt x="491" y="105" on="1"/>
        <pt x="571" y="105" on="1"/>
        <pt x="571" y="-9" on="1"/>
        <pt x="363" y="-9" on="1"/>
        <pt x="363" y="90" on="1"/>
        <pt x="392" y="139" on="0"/>
        <pt x="441" y="294" on="0"/>
        <pt x="441" y="350" on="1"/>
        <pt x="441" y="466" on="0"/>
        <pt x="404" y="552" on="0"/>
        <pt x="282" y="552" on="0"/>
        <pt x="245" y="466" on="0"/>
        <pt x="245" y="350" on="1"/>
        <pt x="245" y="294" on="0"/>
        <pt x="284" y="164" on="0"/>
        <pt x="304" y="127" on="1"/>
        <pt x="323" y="90" on="1"/>
        <pt x="323" y="-9" on="1"/>
        <pt x="115" y="-9" on="1"/>
      </contour>
    </TTGlyph>
    <TTGlyph name="Oslash" xMin="53" yMin="-121" xMax="728" yMax="805">
      <contour>
        <pt x="101" y="196" on="1"/>
        <pt x="101" y="327" on="0"/>
        <pt x="181" y="559" on="0"/>
        <pt x="335" y="692" on="0"/>
        <pt x="448" y="692" on="1"/>
        <pt x="517" y="692" on="0"/>
        <pt x="563" y="672" on="1"/>
        <pt x="654" y="805" on="1"/>
        <pt x="728" y="774" on="1"/>
        <pt x="626" y="624" on="1"/>
        <pt x="669" y="571" on="0"/>
        <pt x="669" y="484" on="1"/>
        <pt x="669" y="347" on="0"/>
        <pt x="628" y="228" on="1"/>
        <pt x="545" y="-12" on="0"/>
        <pt x="315" y="-12" on="1"/>
        <pt x="255" y="-12" on="0"/>
        <pt x="206" y="7" on="1"/>
        <pt x="119" y="-121" on="1"/>
        <pt x="53" y="-81" on="1"/>
        <pt x="144" y="53" on="1"/>
        <pt x="101" y="105" on="0"/>
      </contour>
      <contour>
        <pt x="282" y="118" on="1"/>
        <pt x="302" y="108" on="0"/>
        <pt x="389" y="108" on="0"/>
        <pt x="423" y="142" on="1"/>
        <pt x="470" y="189" on="0"/>
        <pt x="527" y="379" on="0"/>
        <pt x="527" y="470" on="1"/>
        <pt x="527" y="478" on="1"/>
      </contour>
      <contour>
        <pt x="488" y="562" on="1"/>
        <pt x="468" y="572" on="0"/>
        <pt x="381" y="572" on="0"/>
        <pt x="351" y="542" on="1"/>
        <pt x="301" y="493" on="0"/>
        <pt x="243" y="294" on="0"/>
        <pt x="243" y="210" on="1"/>
        <pt x="243" y="200" on="1"/>
      </contour>
    </TTGlyph>
    <TTGlyph name="Oslashacute" xMin="54" yMin="-121" xMax="729" yMax="962">
      <contour>
        <pt x="102" y="196" on="1"/>
        <pt x="102" y="327" on="0"/>
        <pt x="182" y="559" on="0"/>
        <pt x="336" y="692" on="0"/>
        <pt x="449" y="692" on="1"/>
        <pt x="518" y="692" on="0"/>
        <pt x="564" y="672" on="1"/>
        <pt x="655" y="805" on="1"/>
        <pt x="729" y="774" on="1"/>
        <pt x="627" y="624" on="1"/>
        <pt x="670" y="571" on="0"/>
        <pt x="670" y="484" on="1"/>
        <pt x="670" y="347" on="0"/>
        <pt x="629" y="228" on="1"/>
        <pt x="546" y="-12" on="0"/>
        <pt x="316" y="-12" on="1"/>
        <pt x="256" y="-12" on="0"/>
        <pt x="207" y="7" on="1"/>
        <pt x="120" y="-121" on="1"/>
        <pt x="54" y="-81" on="1"/>
        <pt x="145" y="53" on="1"/>
        <pt x="102" y="105" on="0"/>
      </contour>
      <contour>
        <pt x="388" y="755" on="1"/>
        <pt x="377" y="871" on="1"/>
        <pt x="641" y="962" on="1"/>
        <pt x="652" y="832" on="1"/>
      </contour>
      <contour>
        <pt x="283" y="118" on="1"/>
        <pt x="303" y="108" on="0"/>
        <pt x="390" y="108" on="0"/>
        <pt x="424" y="142" on="1"/>
        <pt x="471" y="189" on="0"/>
        <pt x="528" y="379" on="0"/>
        <pt x="528" y="470" on="1"/>
        <pt x="528" y="478" on="1"/>
      </contour>
      <contour>
        <pt x="489" y="562" on="1"/>
        <pt x="469" y="572" on="0"/>
        <pt x="382" y="572" on="0"/>
        <pt x="352" y="542" on="1"/>
        <pt x="302" y="493" on="0"/>
        <pt x="244" y="294" on="0"/>
        <pt x="244" y="210" on="1"/>
        <pt x="244" y="200" on="1"/>
      </contour>
    </TTGlyph>
    <TTGlyph name="Otilde" xMin="101" yMin="-12" xMax="680" yMax="939">
      <contour>
        <pt x="588" y="778" on="0"/>
        <pt x="539" y="778" on="0"/>
        <pt x="433" y="821" on="0"/>
        <pt x="419" y="821" on="1"/>
        <pt x="392" y="821" on="0"/>
        <pt x="348" y="792" on="1"/>
        <pt x="332" y="782" on="1"/>
        <pt x="328" y="875" on="1"/>
        <pt x="358" y="901" on="0"/>
        <pt x="423" y="939" on="0"/>
        <pt x="478" y="939" on="0"/>
        <pt x="583" y="897" on="0"/>
        <pt x="592" y="897" on="1"/>
        <pt x="614" y="897" on="0"/>
        <pt x="662" y="926" on="1"/>
        <pt x="678" y="935" on="1"/>
        <pt x="680" y="841" on="1"/>
        <pt x="656" y="817" on="0"/>
      </contour>
      <contour>
        <pt x="243" y="155" on="0"/>
        <pt x="286" y="108" on="0"/>
        <pt x="389" y="108" on="0"/>
        <pt x="423" y="142" on="1"/>
        <pt x="470" y="189" on="0"/>
        <pt x="527" y="379" on="0"/>
        <pt x="527" y="470" on="1"/>
        <pt x="527" y="525" on="0"/>
        <pt x="485" y="572" on="0"/>
        <pt x="381" y="572" on="0"/>
        <pt x="351" y="542" on="1"/>
        <pt x="301" y="493" on="0"/>
        <pt x="243" y="294" on="0"/>
      </contour>
      <contour>
        <pt x="669" y="347" on="0"/>
        <pt x="587" y="110" on="0"/>
        <pt x="430" y="-12" on="0"/>
        <pt x="322" y="-12" on="1"/>
        <pt x="101" y="-12" on="0"/>
        <pt x="101" y="196" on="1"/>
        <pt x="101" y="327" on="0"/>
        <pt x="181" y="559" on="0"/>
        <pt x="335" y="692" on="0"/>
        <pt x="448" y="692" on="1"/>
        <pt x="669" y="692" on="0"/>
        <pt x="669" y="484" on="1"/>
      </contour>
    </TTGlyph>
    <TTGlyph name="P" xMin="65" yMin="0" xMax="628" yMax="680">
      <contour>
        <pt x="333" y="196" on="1"/>
        <pt x="248" y="196" on="1"/>
        <pt x="203" y="0" on="1"/>
        <pt x="65" y="0" on="1"/>
        <pt x="222" y="680" on="1"/>
        <pt x="418" y="680" on="1"/>
        <pt x="529" y="680" on="0"/>
        <pt x="628" y="589" on="0"/>
        <pt x="628" y="488" on="1"/>
        <pt x="628" y="345" on="0"/>
        <pt x="471" y="196" on="0"/>
      </contour>
      <contour>
        <pt x="351" y="316" on="1"/>
        <pt x="414" y="316" on="0"/>
        <pt x="486" y="405" on="0"/>
        <pt x="486" y="486" on="1"/>
        <pt x="486" y="524" on="0"/>
        <pt x="450" y="560" on="0"/>
        <pt x="408" y="560" on="1"/>
        <pt x="332" y="560" on="1"/>
        <pt x="276" y="316" on="1"/>
      </contour>
    </TTGlyph>
    <TTGlyph name="Q" xMin="101" yMin="-154" xMax="669" yMax="692">
      <contour>
        <pt x="315" y="-12" on="1"/>
        <pt x="213" y="-12" on="0"/>
        <pt x="101" y="91" on="0"/>
        <pt x="101" y="196" on="1"/>
        <pt x="101" y="327" on="0"/>
        <pt x="181" y="559" on="0"/>
        <pt x="335" y="692" on="0"/>
        <pt x="448" y="692" on="1"/>
        <pt x="669" y="692" on="0"/>
        <pt x="669" y="484" on="1"/>
        <pt x="669" y="347" on="0"/>
        <pt x="587" y="110" on="0"/>
        <pt x="505" y="46" on="1"/>
        <pt x="483" y="30" on="0"/>
        <pt x="471" y="24" on="1"/>
        <pt x="519" y="-111" on="1"/>
        <pt x="388" y="-154" on="1"/>
        <pt x="345" y="-10" on="1"/>
        <pt x="325" y="-12" on="0"/>
      </contour>
      <contour>
        <pt x="243" y="155" on="0"/>
        <pt x="286" y="108" on="0"/>
        <pt x="389" y="108" on="0"/>
        <pt x="423" y="142" on="1"/>
        <pt x="470" y="189" on="0"/>
        <pt x="527" y="379" on="0"/>
        <pt x="527" y="470" on="1"/>
        <pt x="527" y="525" on="0"/>
        <pt x="485" y="572" on="0"/>
        <pt x="381" y="572" on="0"/>
        <pt x="351" y="542" on="1"/>
        <pt x="301" y="493" on="0"/>
        <pt x="243" y="294" on="0"/>
      </contour>
    </TTGlyph>
    <TTGlyph name="R" xMin="65" yMin="0" xMax="628" yMax="680">
      <contour>
        <pt x="418" y="680" on="1"/>
        <pt x="526" y="680" on="0"/>
        <pt x="628" y="589" on="0"/>
        <pt x="628" y="393" on="0"/>
        <pt x="542" y="261" on="0"/>
        <pt x="476" y="235" on="1"/>
        <pt x="531" y="0" on="1"/>
        <pt x="393" y="0" on="1"/>
        <pt x="348" y="216" on="1"/>
        <pt x="253" y="216" on="1"/>
        <pt x="203" y="0" on="1"/>
        <pt x="65" y="0" on="1"/>
        <pt x="222" y="680" on="1"/>
      </contour>
      <contour>
        <pt x="423" y="334" on="0"/>
        <pt x="486" y="420" on="0"/>
        <pt x="486" y="524" on="0"/>
        <pt x="452" y="562" on="0"/>
        <pt x="410" y="562" on="1"/>
        <pt x="333" y="562" on="1"/>
        <pt x="280" y="334" on="1"/>
        <pt x="369" y="334" on="1"/>
      </contour>
    </TTGlyph>
    <TTGlyph name="Racute" xMin="65" yMin="0" xMax="628" yMax="962">
      <contour>
        <pt x="628" y="393" on="0"/>
        <pt x="542" y="261" on="0"/>
        <pt x="476" y="235" on="1"/>
        <pt x="531" y="0" on="1"/>
        <pt x="393" y="0" on="1"/>
        <pt x="348" y="216" on="1"/>
        <pt x="253" y="216" on="1"/>
        <pt x="203" y="0" on="1"/>
        <pt x="65" y="0" on="1"/>
        <pt x="222" y="680" on="1"/>
        <pt x="418" y="680" on="1"/>
        <pt x="526" y="680" on="0"/>
        <pt x="628" y="589" on="0"/>
      </contour>
      <contour>
        <pt x="486" y="524" on="0"/>
        <pt x="452" y="562" on="0"/>
        <pt x="410" y="562" on="1"/>
        <pt x="333" y="562" on="1"/>
        <pt x="280" y="334" on="1"/>
        <pt x="369" y="334" on="1"/>
        <pt x="423" y="334" on="0"/>
        <pt x="486" y="420" on="0"/>
      </contour>
      <contour>
        <pt x="331" y="765" on="1"/>
        <pt x="321" y="871" on="1"/>
        <pt x="585" y="962" on="1"/>
        <pt x="595" y="842" on="1"/>
      </contour>
    </TTGlyph>
    <TTGlyph name="Rcaron" xMin="65" yMin="0" xMax="628" yMax="927">
      <contour>
        <pt x="627" y="927" on="1"/>
        <pt x="467" y="776" on="1"/>
        <pt x="375" y="776" on="1"/>
        <pt x="282" y="927" on="1"/>
        <pt x="414" y="927" on="1"/>
        <pt x="443" y="870" on="1"/>
        <pt x="496" y="927" on="1"/>
      </contour>
      <contour>
        <pt x="628" y="393" on="0"/>
        <pt x="542" y="261" on="0"/>
        <pt x="476" y="235" on="1"/>
        <pt x="531" y="0" on="1"/>
        <pt x="393" y="0" on="1"/>
        <pt x="348" y="216" on="1"/>
        <pt x="253" y="216" on="1"/>
        <pt x="203" y="0" on="1"/>
        <pt x="65" y="0" on="1"/>
        <pt x="222" y="680" on="1"/>
        <pt x="418" y="680" on="1"/>
        <pt x="526" y="680" on="0"/>
        <pt x="628" y="589" on="0"/>
      </contour>
      <contour>
        <pt x="486" y="524" on="0"/>
        <pt x="452" y="562" on="0"/>
        <pt x="410" y="562" on="1"/>
        <pt x="333" y="562" on="1"/>
        <pt x="280" y="334" on="1"/>
        <pt x="369" y="334" on="1"/>
        <pt x="423" y="334" on="0"/>
        <pt x="486" y="420" on="0"/>
      </contour>
    </TTGlyph>
    <TTGlyph name="Rcommaaccent" xMin="65" yMin="-309" xMax="628" yMax="680">
      <contour>
        <pt x="132" y="-309" on="1"/>
        <pt x="229" y="-72" on="1"/>
        <pt x="352" y="-72" on="1"/>
        <pt x="245" y="-309" on="1"/>
      </contour>
      <contour>
        <pt x="418" y="680" on="1"/>
        <pt x="526" y="680" on="0"/>
        <pt x="628" y="589" on="0"/>
        <pt x="628" y="393" on="0"/>
        <pt x="542" y="261" on="0"/>
        <pt x="476" y="235" on="1"/>
        <pt x="531" y="0" on="1"/>
        <pt x="393" y="0" on="1"/>
        <pt x="348" y="216" on="1"/>
        <pt x="253" y="216" on="1"/>
        <pt x="203" y="0" on="1"/>
        <pt x="65" y="0" on="1"/>
        <pt x="222" y="680" on="1"/>
      </contour>
      <contour>
        <pt x="423" y="334" on="0"/>
        <pt x="486" y="420" on="0"/>
        <pt x="486" y="524" on="0"/>
        <pt x="452" y="562" on="0"/>
        <pt x="410" y="562" on="1"/>
        <pt x="333" y="562" on="1"/>
        <pt x="280" y="334" on="1"/>
        <pt x="369" y="334" on="1"/>
      </contour>
    </TTGlyph>
    <TTGlyph name="S" xMin="50" yMin="-12" xMax="586" yMax="692">
      <contour>
        <pt x="381" y="574" on="1"/>
        <pt x="337" y="574" on="0"/>
        <pt x="286" y="525" on="0"/>
        <pt x="286" y="457" on="0"/>
        <pt x="318" y="426" on="0"/>
        <pt x="462" y="362" on="0"/>
        <pt x="515" y="291" on="0"/>
        <pt x="515" y="223" on="1"/>
        <pt x="515" y="110" on="0"/>
        <pt x="376" y="-12" on="0"/>
        <pt x="258" y="-12" on="1"/>
        <pt x="211" y="-12" on="0"/>
        <pt x="107" y="8" on="0"/>
        <pt x="78" y="18" on="1"/>
        <pt x="50" y="29" on="1"/>
        <pt x="73" y="128" on="1"/>
        <pt x="186" y="108" on="0"/>
        <pt x="315" y="108" on="0"/>
        <pt x="375" y="153" on="0"/>
        <pt x="375" y="207" on="1"/>
        <pt x="375" y="236" on="0"/>
        <pt x="340" y="267" on="0"/>
        <pt x="204" y="329" on="0"/>
        <pt x="146" y="403" on="0"/>
        <pt x="146" y="469" on="1"/>
        <pt x="146" y="566" on="0"/>
        <pt x="272" y="692" on="0"/>
        <pt x="377" y="692" on="1"/>
        <pt x="425" y="692" on="0"/>
        <pt x="530" y="673" on="0"/>
        <pt x="558" y="664" on="1"/>
        <pt x="586" y="654" on="1"/>
        <pt x="561" y="556" on="1"/>
        <pt x="451" y="574" on="0"/>
      </contour>
    </TTGlyph>
    <TTGlyph name="Sacute" xMin="50" yMin="-12" xMax="603" yMax="962">
      <contour>
        <pt x="381" y="574" on="1"/>
        <pt x="337" y="574" on="0"/>
        <pt x="286" y="525" on="0"/>
        <pt x="286" y="457" on="0"/>
        <pt x="318" y="426" on="0"/>
        <pt x="462" y="362" on="0"/>
        <pt x="515" y="291" on="0"/>
        <pt x="515" y="223" on="1"/>
        <pt x="515" y="110" on="0"/>
        <pt x="376" y="-12" on="0"/>
        <pt x="258" y="-12" on="1"/>
        <pt x="211" y="-12" on="0"/>
        <pt x="107" y="8" on="0"/>
        <pt x="78" y="18" on="1"/>
        <pt x="50" y="29" on="1"/>
        <pt x="73" y="128" on="1"/>
        <pt x="186" y="108" on="0"/>
        <pt x="315" y="108" on="0"/>
        <pt x="375" y="153" on="0"/>
        <pt x="375" y="207" on="1"/>
        <pt x="375" y="236" on="0"/>
        <pt x="340" y="267" on="0"/>
        <pt x="204" y="329" on="0"/>
        <pt x="146" y="403" on="0"/>
        <pt x="146" y="469" on="1"/>
        <pt x="146" y="566" on="0"/>
        <pt x="272" y="692" on="0"/>
        <pt x="377" y="692" on="1"/>
        <pt x="425" y="692" on="0"/>
        <pt x="530" y="673" on="0"/>
        <pt x="558" y="664" on="1"/>
        <pt x="586" y="654" on="1"/>
        <pt x="561" y="556" on="1"/>
        <pt x="451" y="574" on="0"/>
      </contour>
      <contour>
        <pt x="339" y="765" on="1"/>
        <pt x="329" y="871" on="1"/>
        <pt x="593" y="962" on="1"/>
        <pt x="603" y="842" on="1"/>
      </contour>
    </TTGlyph>
    <TTGlyph name="Scaron" xMin="50" yMin="-12" xMax="637" yMax="927">
      <contour>
        <pt x="637" y="927" on="1"/>
        <pt x="477" y="776" on="1"/>
        <pt x="385" y="776" on="1"/>
        <pt x="292" y="927" on="1"/>
        <pt x="424" y="927" on="1"/>
        <pt x="453" y="870" on="1"/>
        <pt x="506" y="927" on="1"/>
      </contour>
      <contour>
        <pt x="381" y="574" on="1"/>
        <pt x="337" y="574" on="0"/>
        <pt x="286" y="525" on="0"/>
        <pt x="286" y="457" on="0"/>
        <pt x="318" y="426" on="0"/>
        <pt x="462" y="362" on="0"/>
        <pt x="515" y="291" on="0"/>
        <pt x="515" y="223" on="1"/>
        <pt x="515" y="110" on="0"/>
        <pt x="376" y="-12" on="0"/>
        <pt x="258" y="-12" on="1"/>
        <pt x="211" y="-12" on="0"/>
        <pt x="107" y="8" on="0"/>
        <pt x="78" y="18" on="1"/>
        <pt x="50" y="29" on="1"/>
        <pt x="73" y="128" on="1"/>
        <pt x="186" y="108" on="0"/>
        <pt x="315" y="108" on="0"/>
        <pt x="375" y="153" on="0"/>
        <pt x="375" y="207" on="1"/>
        <pt x="375" y="236" on="0"/>
        <pt x="340" y="267" on="0"/>
        <pt x="204" y="329" on="0"/>
        <pt x="146" y="403" on="0"/>
        <pt x="146" y="469" on="1"/>
        <pt x="146" y="566" on="0"/>
        <pt x="272" y="692" on="0"/>
        <pt x="377" y="692" on="1"/>
        <pt x="425" y="692" on="0"/>
        <pt x="530" y="673" on="0"/>
        <pt x="558" y="664" on="1"/>
        <pt x="586" y="654" on="1"/>
        <pt x="561" y="556" on="1"/>
        <pt x="451" y="574" on="0"/>
      </contour>
    </TTGlyph>
    <TTGlyph name="Scedilla" xMin="50" yMin="-229" xMax="586" yMax="692">
      <contour>
        <pt x="266" y="-33" on="1"/>
        <pt x="359" y="-33" on="0"/>
        <pt x="359" y="-94" on="1"/>
        <pt x="359" y="-107" on="0"/>
        <pt x="355" y="-124" on="1"/>
        <pt x="330" y="-229" on="0"/>
        <pt x="226" y="-229" on="1"/>
        <pt x="186" y="-229" on="0"/>
        <pt x="154" y="-221" on="1"/>
        <pt x="142" y="-218" on="1"/>
        <pt x="162" y="-137" on="1"/>
        <pt x="192" y="-138" on="0"/>
        <pt x="208" y="-138" on="1"/>
        <pt x="244" y="-138" on="0"/>
        <pt x="250" y="-114" on="1"/>
        <pt x="253" y="-102" on="0"/>
        <pt x="238" y="-94" on="0"/>
        <pt x="219" y="-94" on="1"/>
        <pt x="197" y="-94" on="1"/>
        <pt x="215" y="-10" on="1"/>
        <pt x="133" y="-2" on="0"/>
        <pt x="72" y="21" on="1"/>
        <pt x="50" y="29" on="1"/>
        <pt x="73" y="128" on="1"/>
        <pt x="186" y="108" on="0"/>
        <pt x="315" y="108" on="0"/>
        <pt x="375" y="153" on="0"/>
        <pt x="375" y="207" on="1"/>
        <pt x="375" y="236" on="0"/>
        <pt x="340" y="267" on="0"/>
        <pt x="204" y="329" on="0"/>
        <pt x="146" y="403" on="0"/>
        <pt x="146" y="469" on="1"/>
        <pt x="146" y="566" on="0"/>
        <pt x="272" y="692" on="0"/>
        <pt x="377" y="692" on="1"/>
        <pt x="425" y="692" on="0"/>
        <pt x="530" y="673" on="0"/>
        <pt x="558" y="664" on="1"/>
        <pt x="586" y="654" on="1"/>
        <pt x="561" y="556" on="1"/>
        <pt x="451" y="574" on="0"/>
        <pt x="381" y="574" on="1"/>
        <pt x="337" y="574" on="0"/>
        <pt x="286" y="525" on="0"/>
        <pt x="286" y="457" on="0"/>
        <pt x="318" y="426" on="0"/>
        <pt x="462" y="362" on="0"/>
        <pt x="515" y="291" on="0"/>
        <pt x="515" y="223" on="1"/>
        <pt x="515" y="112" on="0"/>
        <pt x="381" y="-10" on="0"/>
        <pt x="266" y="-12" on="1"/>
        <pt x="260" y="-33" on="1"/>
      </contour>
    </TTGlyph>
    <TTGlyph name="Scircumflex" xMin="50" yMin="-12" xMax="596" yMax="931">
      <contour>
        <pt x="381" y="574" on="1"/>
        <pt x="337" y="574" on="0"/>
        <pt x="286" y="525" on="0"/>
        <pt x="286" y="457" on="0"/>
        <pt x="318" y="426" on="0"/>
        <pt x="462" y="362" on="0"/>
        <pt x="515" y="291" on="0"/>
        <pt x="515" y="223" on="1"/>
        <pt x="515" y="110" on="0"/>
        <pt x="376" y="-12" on="0"/>
        <pt x="258" y="-12" on="1"/>
        <pt x="211" y="-12" on="0"/>
        <pt x="107" y="8" on="0"/>
        <pt x="78" y="18" on="1"/>
        <pt x="50" y="29" on="1"/>
        <pt x="73" y="128" on="1"/>
        <pt x="186" y="108" on="0"/>
        <pt x="315" y="108" on="0"/>
        <pt x="375" y="153" on="0"/>
        <pt x="375" y="207" on="1"/>
        <pt x="375" y="236" on="0"/>
        <pt x="340" y="267" on="0"/>
        <pt x="204" y="329" on="0"/>
        <pt x="146" y="403" on="0"/>
        <pt x="146" y="469" on="1"/>
        <pt x="146" y="566" on="0"/>
        <pt x="272" y="692" on="0"/>
        <pt x="377" y="692" on="1"/>
        <pt x="425" y="692" on="0"/>
        <pt x="530" y="673" on="0"/>
        <pt x="558" y="664" on="1"/>
        <pt x="586" y="654" on="1"/>
        <pt x="561" y="556" on="1"/>
        <pt x="451" y="574" on="0"/>
      </contour>
      <contour>
        <pt x="244" y="779" on="1"/>
        <pt x="420" y="931" on="1"/>
        <pt x="500" y="931" on="1"/>
        <pt x="596" y="779" on="1"/>
        <pt x="474" y="779" on="1"/>
        <pt x="448" y="834" on="1"/>
        <pt x="386" y="779" on="1"/>
      </contour>
    </TTGlyph>
    <TTGlyph name="Scommaaccent" xMin="50" yMin="-309" xMax="586" yMax="692">
      <contour>
        <pt x="180" y="-72" on="1"/>
        <pt x="303" y="-72" on="1"/>
        <pt x="196" y="-309" on="1"/>
        <pt x="83" y="-309" on="1"/>
      </contour>
      <contour>
        <pt x="381" y="574" on="1"/>
        <pt x="337" y="574" on="0"/>
        <pt x="286" y="525" on="0"/>
        <pt x="286" y="457" on="0"/>
        <pt x="318" y="426" on="0"/>
        <pt x="462" y="362" on="0"/>
        <pt x="515" y="291" on="0"/>
        <pt x="515" y="223" on="1"/>
        <pt x="515" y="110" on="0"/>
        <pt x="376" y="-12" on="0"/>
        <pt x="258" y="-12" on="1"/>
        <pt x="211" y="-12" on="0"/>
        <pt x="107" y="8" on="0"/>
        <pt x="78" y="18" on="1"/>
        <pt x="50" y="29" on="1"/>
        <pt x="73" y="128" on="1"/>
        <pt x="186" y="108" on="0"/>
        <pt x="315" y="108" on="0"/>
        <pt x="375" y="153" on="0"/>
        <pt x="375" y="207" on="1"/>
        <pt x="375" y="236" on="0"/>
        <pt x="340" y="267" on="0"/>
        <pt x="204" y="329" on="0"/>
        <pt x="146" y="403" on="0"/>
        <pt x="146" y="469" on="1"/>
        <pt x="146" y="566" on="0"/>
        <pt x="272" y="692" on="0"/>
        <pt x="377" y="692" on="1"/>
        <pt x="425" y="692" on="0"/>
        <pt x="530" y="673" on="0"/>
        <pt x="558" y="664" on="1"/>
        <pt x="586" y="654" on="1"/>
        <pt x="561" y="556" on="1"/>
        <pt x="451" y="574" on="0"/>
      </contour>
    </TTGlyph>
    <TTGlyph name="T" xMin="138" yMin="0" xMax="604" yMax="680">
      <contour>
        <pt x="138" y="560" on="1"/>
        <pt x="166" y="680" on="1"/>
        <pt x="604" y="680" on="1"/>
        <pt x="576" y="560" on="1"/>
        <pt x="425" y="560" on="1"/>
        <pt x="296" y="0" on="1"/>
        <pt x="158" y="0" on="1"/>
        <pt x="287" y="560" on="1"/>
      </contour>
    </TTGlyph>
    <TTGlyph name="Tbar" xMin="97" yMin="0" xMax="607" yMax="680">
      <contour>
        <pt x="141" y="560" on="1"/>
        <pt x="169" y="680" on="1"/>
        <pt x="607" y="680" on="1"/>
        <pt x="579" y="560" on="1"/>
        <pt x="428" y="560" on="1"/>
        <pt x="383" y="367" on="1"/>
        <pt x="511" y="367" on="1"/>
        <pt x="482" y="248" on="1"/>
        <pt x="356" y="248" on="1"/>
        <pt x="299" y="0" on="1"/>
        <pt x="161" y="0" on="1"/>
        <pt x="218" y="248" on="1"/>
        <pt x="97" y="248" on="1"/>
        <pt x="124" y="367" on="1"/>
        <pt x="245" y="367" on="1"/>
        <pt x="290" y="560" on="1"/>
      </contour>
    </TTGlyph>
    <TTGlyph name="Tcaron" xMin="138" yMin="0" xMax="604" yMax="927">
      <contour>
        <pt x="595" y="927" on="1"/>
        <pt x="435" y="776" on="1"/>
        <pt x="343" y="776" on="1"/>
        <pt x="250" y="927" on="1"/>
        <pt x="382" y="927" on="1"/>
        <pt x="411" y="870" on="1"/>
        <pt x="464" y="927" on="1"/>
      </contour>
      <contour>
        <pt x="138" y="560" on="1"/>
        <pt x="166" y="680" on="1"/>
        <pt x="604" y="680" on="1"/>
        <pt x="576" y="560" on="1"/>
        <pt x="425" y="560" on="1"/>
        <pt x="296" y="0" on="1"/>
        <pt x="158" y="0" on="1"/>
        <pt x="287" y="560" on="1"/>
      </contour>
    </TTGlyph>
    <TTGlyph name="Tcedilla" xMin="128" yMin="-229" xMax="604" yMax="680">
      <contour>
        <pt x="252" y="-33" on="1"/>
        <pt x="345" y="-33" on="0"/>
        <pt x="345" y="-94" on="1"/>
        <pt x="345" y="-107" on="0"/>
        <pt x="341" y="-124" on="1"/>
        <pt x="316" y="-229" on="0"/>
        <pt x="212" y="-229" on="1"/>
        <pt x="172" y="-229" on="0"/>
        <pt x="140" y="-221" on="1"/>
        <pt x="128" y="-218" on="1"/>
        <pt x="148" y="-137" on="1"/>
        <pt x="178" y="-138" on="0"/>
        <pt x="194" y="-138" on="1"/>
        <pt x="230" y="-138" on="0"/>
        <pt x="236" y="-114" on="1"/>
        <pt x="239" y="-102" on="0"/>
        <pt x="224" y="-94" on="0"/>
        <pt x="205" y="-94" on="1"/>
        <pt x="183" y="-94" on="1"/>
        <pt x="204" y="0" on="1"/>
        <pt x="158" y="0" on="1"/>
        <pt x="287" y="560" on="1"/>
        <pt x="138" y="560" on="1"/>
        <pt x="166" y="680" on="1"/>
        <pt x="604" y="680" on="1"/>
        <pt x="576" y="560" on="1"/>
        <pt x="425" y="560" on="1"/>
        <pt x="296" y="0" on="1"/>
        <pt x="255" y="0" on="1"/>
        <pt x="246" y="-33" on="1"/>
      </contour>
    </TTGlyph>
    <TTGlyph name="Tcommaaccent" xMin="58" yMin="-309" xMax="604" yMax="680">
      <contour>
        <pt x="155" y="-72" on="1"/>
        <pt x="278" y="-72" on="1"/>
        <pt x="171" y="-309" on="1"/>
        <pt x="58" y="-309" on="1"/>
      </contour>
      <contour>
        <pt x="138" y="560" on="1"/>
        <pt x="166" y="680" on="1"/>
        <pt x="604" y="680" on="1"/>
        <pt x="576" y="560" on="1"/>
        <pt x="425" y="560" on="1"/>
        <pt x="296" y="0" on="1"/>
        <pt x="158" y="0" on="1"/>
        <pt x="287" y="560" on="1"/>
      </contour>
    </TTGlyph>
    <TTGlyph name="Thorn" xMin="63" yMin="0" xMax="607" yMax="690">
      <contour>
        <pt x="343" y="236" on="1"/>
        <pt x="439" y="236" on="0"/>
        <pt x="467" y="348" on="1"/>
        <pt x="471" y="367" on="0"/>
        <pt x="471" y="407" on="0"/>
        <pt x="462" y="425" on="1"/>
        <pt x="446" y="456" on="0"/>
        <pt x="397" y="457" on="1"/>
        <pt x="301" y="459" on="1"/>
        <pt x="248" y="236" on="1"/>
      </contour>
      <contour>
        <pt x="428" y="593" on="1"/>
        <pt x="528" y="593" on="0"/>
        <pt x="574" y="522" on="1"/>
        <pt x="606" y="475" on="0"/>
        <pt x="606" y="411" on="1"/>
        <pt x="606" y="381" on="0"/>
        <pt x="599" y="348" on="1"/>
        <pt x="573" y="231" on="0"/>
        <pt x="422" y="99" on="0"/>
        <pt x="315" y="99" on="1"/>
        <pt x="314" y="99" on="0"/>
        <pt x="312" y="99" on="1"/>
        <pt x="216" y="100" on="1"/>
        <pt x="193" y="0" on="1"/>
        <pt x="63" y="0" on="1"/>
        <pt x="226" y="690" on="1"/>
        <pt x="357" y="690" on="1"/>
        <pt x="332" y="593" on="1"/>
      </contour>
    </TTGlyph>
    <TTGlyph name="U" xMin="103" yMin="-12" xMax="693" yMax="680">
      <contour>
        <pt x="249" y="231" on="1"/>
        <pt x="240" y="193" on="0"/>
        <pt x="240" y="132" on="0"/>
        <pt x="281" y="108" on="0"/>
        <pt x="384" y="108" on="0"/>
        <pt x="436" y="163" on="0"/>
        <pt x="451" y="231" on="1"/>
        <pt x="555" y="680" on="1"/>
        <pt x="693" y="680" on="1"/>
        <pt x="589" y="231" on="1"/>
        <pt x="560" y="103" on="0"/>
        <pt x="429" y="-12" on="0"/>
        <pt x="321" y="-12" on="1"/>
        <pt x="103" y="-12" on="0"/>
        <pt x="103" y="142" on="1"/>
        <pt x="103" y="194" on="0"/>
        <pt x="116" y="253" on="1"/>
        <pt x="215" y="680" on="1"/>
        <pt x="353" y="680" on="1"/>
      </contour>
    </TTGlyph>
    <TTGlyph name="Uacute" xMin="103" yMin="-12" xMax="693" yMax="962">
      <contour>
        <pt x="249" y="231" on="1"/>
        <pt x="240" y="193" on="0"/>
        <pt x="240" y="132" on="0"/>
        <pt x="281" y="108" on="0"/>
        <pt x="384" y="108" on="0"/>
        <pt x="436" y="163" on="0"/>
        <pt x="451" y="231" on="1"/>
        <pt x="555" y="680" on="1"/>
        <pt x="693" y="680" on="1"/>
        <pt x="589" y="231" on="1"/>
        <pt x="560" y="103" on="0"/>
        <pt x="429" y="-12" on="0"/>
        <pt x="321" y="-12" on="1"/>
        <pt x="103" y="-12" on="0"/>
        <pt x="103" y="142" on="1"/>
        <pt x="103" y="194" on="0"/>
        <pt x="116" y="253" on="1"/>
        <pt x="215" y="680" on="1"/>
        <pt x="353" y="680" on="1"/>
      </contour>
      <contour>
        <pt x="361" y="765" on="1"/>
        <pt x="351" y="871" on="1"/>
        <pt x="615" y="962" on="1"/>
        <pt x="625" y="842" on="1"/>
      </contour>
    </TTGlyph>
    <TTGlyph name="Ubreve" xMin="103" yMin="-12" xMax="693" yMax="927">
      <contour>
        <pt x="444" y="918" on="1"/>
        <pt x="444" y="888" on="0"/>
        <pt x="518" y="888" on="0"/>
        <pt x="533" y="927" on="1"/>
        <pt x="655" y="927" on="1"/>
        <pt x="631" y="856" on="0"/>
        <pt x="541" y="783" on="0"/>
        <pt x="384" y="783" on="0"/>
        <pt x="321" y="850" on="0"/>
        <pt x="321" y="900" on="1"/>
        <pt x="321" y="913" on="0"/>
        <pt x="323" y="927" on="1"/>
        <pt x="445" y="927" on="1"/>
        <pt x="444" y="922" on="0"/>
      </contour>
      <contour>
        <pt x="249" y="231" on="1"/>
        <pt x="240" y="193" on="0"/>
        <pt x="240" y="132" on="0"/>
        <pt x="281" y="108" on="0"/>
        <pt x="384" y="108" on="0"/>
        <pt x="436" y="163" on="0"/>
        <pt x="451" y="231" on="1"/>
        <pt x="555" y="680" on="1"/>
        <pt x="693" y="680" on="1"/>
        <pt x="589" y="231" on="1"/>
        <pt x="560" y="103" on="0"/>
        <pt x="429" y="-12" on="0"/>
        <pt x="321" y="-12" on="1"/>
        <pt x="103" y="-12" on="0"/>
        <pt x="103" y="142" on="1"/>
        <pt x="103" y="194" on="0"/>
        <pt x="116" y="253" on="1"/>
        <pt x="215" y="680" on="1"/>
        <pt x="353" y="680" on="1"/>
      </contour>
    </TTGlyph>
    <TTGlyph name="Ucircumflex" xMin="103" yMin="-12" xMax="693" yMax="931">
      <contour>
        <pt x="249" y="231" on="1"/>
        <pt x="240" y="193" on="0"/>
        <pt x="240" y="132" on="0"/>
        <pt x="281" y="108" on="0"/>
        <pt x="384" y="108" on="0"/>
        <pt x="436" y="163" on="0"/>
        <pt x="451" y="231" on="1"/>
        <pt x="555" y="680" on="1"/>
        <pt x="693" y="680" on="1"/>
        <pt x="589" y="231" on="1"/>
        <pt x="560" y="103" on="0"/>
        <pt x="429" y="-12" on="0"/>
        <pt x="321" y="-12" on="1"/>
        <pt x="103" y="-12" on="0"/>
        <pt x="103" y="142" on="1"/>
        <pt x="103" y="194" on="0"/>
        <pt x="116" y="253" on="1"/>
        <pt x="215" y="680" on="1"/>
        <pt x="353" y="680" on="1"/>
      </contour>
      <contour>
        <pt x="295" y="779" on="1"/>
        <pt x="471" y="931" on="1"/>
        <pt x="551" y="931" on="1"/>
        <pt x="647" y="779" on="1"/>
        <pt x="525" y="779" on="1"/>
        <pt x="499" y="834" on="1"/>
        <pt x="437" y="779" on="1"/>
      </contour>
    </TTGlyph>
    <TTGlyph name="Udieresis" xMin="103" yMin="-12" xMax="693" yMax="916">
      <contour>
        <pt x="305" y="781" on="1"/>
        <pt x="336" y="916" on="1"/>
        <pt x="457" y="916" on="1"/>
        <pt x="425" y="781" on="1"/>
      </contour>
      <contour>
        <pt x="509" y="781" on="1"/>
        <pt x="540" y="916" on="1"/>
        <pt x="661" y="916" on="1"/>
        <pt x="629" y="781" on="1"/>
      </contour>
      <contour>
        <pt x="249" y="231" on="1"/>
        <pt x="240" y="193" on="0"/>
        <pt x="240" y="132" on="0"/>
        <pt x="281" y="108" on="0"/>
        <pt x="384" y="108" on="0"/>
        <pt x="436" y="163" on="0"/>
        <pt x="451" y="231" on="1"/>
        <pt x="555" y="680" on="1"/>
        <pt x="693" y="680" on="1"/>
        <pt x="589" y="231" on="1"/>
        <pt x="560" y="103" on="0"/>
        <pt x="429" y="-12" on="0"/>
        <pt x="321" y="-12" on="1"/>
        <pt x="103" y="-12" on="0"/>
        <pt x="103" y="142" on="1"/>
        <pt x="103" y="194" on="0"/>
        <pt x="116" y="253" on="1"/>
        <pt x="215" y="680" on="1"/>
        <pt x="353" y="680" on="1"/>
      </contour>
    </TTGlyph>
    <TTGlyph name="Ugrave" xMin="103" yMin="-12" xMax="693" yMax="950">
      <contour>
        <pt x="389" y="950" on="1"/>
        <pt x="611" y="859" on="1"/>
        <pt x="550" y="754" on="1"/>
        <pt x="323" y="831" on="1"/>
      </contour>
      <contour>
        <pt x="249" y="231" on="1"/>
        <pt x="240" y="193" on="0"/>
        <pt x="240" y="132" on="0"/>
        <pt x="281" y="108" on="0"/>
        <pt x="384" y="108" on="0"/>
        <pt x="436" y="163" on="0"/>
        <pt x="451" y="231" on="1"/>
        <pt x="555" y="680" on="1"/>
        <pt x="693" y="680" on="1"/>
        <pt x="589" y="231" on="1"/>
        <pt x="560" y="103" on="0"/>
        <pt x="429" y="-12" on="0"/>
        <pt x="321" y="-12" on="1"/>
        <pt x="103" y="-12" on="0"/>
        <pt x="103" y="142" on="1"/>
        <pt x="103" y="194" on="0"/>
        <pt x="116" y="253" on="1"/>
        <pt x="215" y="680" on="1"/>
        <pt x="353" y="680" on="1"/>
      </contour>
    </TTGlyph>
    <TTGlyph name="Uhungarumlaut" xMin="103" yMin="-12" xMax="721" yMax="979">
      <contour>
        <pt x="600" y="740" on="1"/>
        <pt x="501" y="780" on="1"/>
        <pt x="612" y="978" on="1"/>
        <pt x="721" y="933" on="1"/>
      </contour>
      <contour>
        <pt x="396" y="741" on="1"/>
        <pt x="296" y="780" on="1"/>
        <pt x="408" y="979" on="1"/>
        <pt x="517" y="934" on="1"/>
      </contour>
      <contour>
        <pt x="249" y="231" on="1"/>
        <pt x="240" y="193" on="0"/>
        <pt x="240" y="132" on="0"/>
        <pt x="281" y="108" on="0"/>
        <pt x="384" y="108" on="0"/>
        <pt x="436" y="163" on="0"/>
        <pt x="451" y="231" on="1"/>
        <pt x="555" y="680" on="1"/>
        <pt x="693" y="680" on="1"/>
        <pt x="589" y="231" on="1"/>
        <pt x="560" y="103" on="0"/>
        <pt x="429" y="-12" on="0"/>
        <pt x="321" y="-12" on="1"/>
        <pt x="103" y="-12" on="0"/>
        <pt x="103" y="142" on="1"/>
        <pt x="103" y="194" on="0"/>
        <pt x="116" y="253" on="1"/>
        <pt x="215" y="680" on="1"/>
        <pt x="353" y="680" on="1"/>
      </contour>
    </TTGlyph>
    <TTGlyph name="Umacron" xMin="103" yMin="-12" xMax="693" yMax="915">
      <contour>
        <pt x="249" y="231" on="1"/>
        <pt x="240" y="193" on="0"/>
        <pt x="240" y="132" on="0"/>
        <pt x="281" y="108" on="0"/>
        <pt x="384" y="108" on="0"/>
        <pt x="436" y="163" on="0"/>
        <pt x="451" y="231" on="1"/>
        <pt x="555" y="680" on="1"/>
        <pt x="693" y="680" on="1"/>
        <pt x="589" y="231" on="1"/>
        <pt x="560" y="103" on="0"/>
        <pt x="429" y="-12" on="0"/>
        <pt x="321" y="-12" on="1"/>
        <pt x="103" y="-12" on="0"/>
        <pt x="103" y="142" on="1"/>
        <pt x="103" y="194" on="0"/>
        <pt x="116" y="253" on="1"/>
        <pt x="215" y="680" on="1"/>
        <pt x="353" y="680" on="1"/>
      </contour>
      <contour>
        <pt x="305" y="806" on="1"/>
        <pt x="330" y="915" on="1"/>
        <pt x="657" y="915" on="1"/>
        <pt x="632" y="806" on="1"/>
      </contour>
    </TTGlyph>
    <TTGlyph name="Uogonek" xMin="105" yMin="-214" xMax="695" yMax="680">
      <contour>
        <pt x="251" y="231" on="1"/>
        <pt x="242" y="193" on="0"/>
        <pt x="242" y="132" on="0"/>
        <pt x="283" y="108" on="0"/>
        <pt x="386" y="108" on="0"/>
        <pt x="438" y="163" on="0"/>
        <pt x="453" y="231" on="1"/>
        <pt x="557" y="680" on="1"/>
        <pt x="695" y="680" on="1"/>
        <pt x="591" y="231" on="1"/>
        <pt x="566" y="122" on="0"/>
        <pt x="464" y="7" on="0"/>
        <pt x="377" y="-7" on="1"/>
        <pt x="356" y="-24" on="0"/>
        <pt x="320" y="-69" on="0"/>
        <pt x="320" y="-96" on="0"/>
        <pt x="333" y="-96" on="1"/>
        <pt x="370" y="-93" on="1"/>
        <pt x="357" y="-203" on="1"/>
        <pt x="300" y="-214" on="0"/>
        <pt x="220" y="-214" on="0"/>
        <pt x="176" y="-175" on="0"/>
        <pt x="176" y="-137" on="1"/>
        <pt x="176" y="-77" on="0"/>
        <pt x="256" y="-8" on="1"/>
        <pt x="105" y="13" on="0"/>
        <pt x="105" y="142" on="1"/>
        <pt x="105" y="194" on="0"/>
        <pt x="118" y="253" on="1"/>
        <pt x="217" y="680" on="1"/>
        <pt x="355" y="680" on="1"/>
      </contour>
    </TTGlyph>
    <TTGlyph name="Uring" xMin="103" yMin="-12" xMax="693" yMax="952">
      <contour>
        <pt x="605" y="778" on="0"/>
        <pt x="519" y="718" on="0"/>
        <pt x="401" y="718" on="0"/>
        <pt x="372" y="748" on="1"/>
        <pt x="352" y="768" on="0"/>
        <pt x="352" y="792" on="1"/>
        <pt x="352" y="880" on="0"/>
        <pt x="414" y="922" on="1"/>
        <pt x="457" y="952" on="0"/>
        <pt x="574" y="952" on="0"/>
        <pt x="604" y="923" on="1"/>
        <pt x="624" y="903" on="0"/>
        <pt x="624" y="870" on="1"/>
        <pt x="624" y="854" on="0"/>
        <pt x="619" y="835" on="1"/>
      </contour>
      <contour>
        <pt x="480" y="804" on="1"/>
        <pt x="525" y="804" on="0"/>
        <pt x="532" y="835" on="1"/>
        <pt x="536" y="852" on="0"/>
        <pt x="511" y="866" on="0"/>
        <pt x="495" y="866" on="1"/>
        <pt x="451" y="866" on="0"/>
        <pt x="443" y="835" on="1"/>
        <pt x="440" y="821" on="0"/>
        <pt x="460" y="804" on="0"/>
      </contour>
      <contour>
        <pt x="249" y="231" on="1"/>
        <pt x="240" y="193" on="0"/>
        <pt x="240" y="132" on="0"/>
        <pt x="281" y="108" on="0"/>
        <pt x="384" y="108" on="0"/>
        <pt x="436" y="163" on="0"/>
        <pt x="451" y="231" on="1"/>
        <pt x="555" y="680" on="1"/>
        <pt x="693" y="680" on="1"/>
        <pt x="589" y="231" on="1"/>
        <pt x="560" y="103" on="0"/>
        <pt x="429" y="-12" on="0"/>
        <pt x="321" y="-12" on="1"/>
        <pt x="103" y="-12" on="0"/>
        <pt x="103" y="142" on="1"/>
        <pt x="103" y="194" on="0"/>
        <pt x="116" y="253" on="1"/>
        <pt x="215" y="680" on="1"/>
        <pt x="353" y="680" on="1"/>
      </contour>
    </TTGlyph>
    <TTGlyph name="Utilde" xMin="103" yMin="-12" xMax="693" yMax="940">
      <contour>
        <pt x="560" y="779" on="0"/>
        <pt x="511" y="779" on="0"/>
        <pt x="405" y="822" on="0"/>
        <pt x="391" y="822" on="1"/>
        <pt x="368" y="822" on="0"/>
        <pt x="320" y="792" on="1"/>
        <pt x="304" y="783" on="1"/>
        <pt x="300" y="876" on="1"/>
        <pt x="330" y="902" on="0"/>
        <pt x="395" y="940" on="0"/>
        <pt x="450" y="940" on="0"/>
        <pt x="555" y="898" on="0"/>
        <pt x="564" y="898" on="1"/>
        <pt x="586" y="898" on="0"/>
        <pt x="634" y="926" on="1"/>
        <pt x="650" y="936" on="1"/>
        <pt x="652" y="842" on="1"/>
        <pt x="628" y="818" on="0"/>
      </contour>
      <contour>
        <pt x="249" y="231" on="1"/>
        <pt x="240" y="193" on="0"/>
        <pt x="240" y="132" on="0"/>
        <pt x="281" y="108" on="0"/>
        <pt x="384" y="108" on="0"/>
        <pt x="436" y="163" on="0"/>
        <pt x="451" y="231" on="1"/>
        <pt x="555" y="680" on="1"/>
        <pt x="693" y="680" on="1"/>
        <pt x="589" y="231" on="1"/>
        <pt x="560" y="103" on="0"/>
        <pt x="429" y="-12" on="0"/>
        <pt x="321" y="-12" on="1"/>
        <pt x="103" y="-12" on="0"/>
        <pt x="103" y="142" on="1"/>
        <pt x="103" y="194" on="0"/>
        <pt x="116" y="253" on="1"/>
        <pt x="215" y="680" on="1"/>
        <pt x="353" y="680" on="1"/>
      </contour>
    </TTGlyph>
    <TTGlyph name="V" xMin="156" yMin="0" xMax="699" yMax="680">
      <contour>
        <pt x="561" y="680" on="1"/>
        <pt x="699" y="680" on="1"/>
        <pt x="391" y="0" on="1"/>
        <pt x="156" y="0" on="1"/>
        <pt x="170" y="680" on="1"/>
        <pt x="308" y="680" on="1"/>
        <pt x="284" y="120" on="1"/>
        <pt x="317" y="120" on="1"/>
      </contour>
    </TTGlyph>
    <TTGlyph name="W" xMin="143" yMin="0" xMax="1005" yMax="680">
      <contour>
        <pt x="174" y="680" on="1"/>
        <pt x="312" y="680" on="1"/>
        <pt x="270" y="127" on="1"/>
        <pt x="284" y="127" on="1"/>
        <pt x="510" y="670" on="1"/>
        <pt x="662" y="670" on="1"/>
        <pt x="629" y="127" on="1"/>
        <pt x="643" y="127" on="1"/>
        <pt x="867" y="680" on="1"/>
        <pt x="1005" y="680" on="1"/>
        <pt x="714" y="0" on="1"/>
        <pt x="514" y="0" on="1"/>
        <pt x="547" y="494" on="1"/>
        <pt x="349" y="0" on="1"/>
        <pt x="143" y="0" on="1"/>
      </contour>
    </TTGlyph>
    <TTGlyph name="Wacute" xMin="143" yMin="0" xMax="1005" yMax="962">
      <contour>
        <pt x="502" y="765" on="1"/>
        <pt x="492" y="871" on="1"/>
        <pt x="756" y="962" on="1"/>
        <pt x="766" y="842" on="1"/>
      </contour>
      <contour>
        <pt x="174" y="680" on="1"/>
        <pt x="312" y="680" on="1"/>
        <pt x="270" y="127" on="1"/>
        <pt x="284" y="127" on="1"/>
        <pt x="510" y="670" on="1"/>
        <pt x="662" y="670" on="1"/>
        <pt x="629" y="127" on="1"/>
        <pt x="643" y="127" on="1"/>
        <pt x="867" y="680" on="1"/>
        <pt x="1005" y="680" on="1"/>
        <pt x="714" y="0" on="1"/>
        <pt x="514" y="0" on="1"/>
        <pt x="547" y="494" on="1"/>
        <pt x="349" y="0" on="1"/>
        <pt x="143" y="0" on="1"/>
      </contour>
    </TTGlyph>
    <TTGlyph name="Wcircumflex" xMin="143" yMin="0" xMax="1005" yMax="931">
      <contour>
        <pt x="428" y="779" on="1"/>
        <pt x="604" y="931" on="1"/>
        <pt x="684" y="931" on="1"/>
        <pt x="780" y="779" on="1"/>
        <pt x="658" y="779" on="1"/>
        <pt x="632" y="834" on="1"/>
        <pt x="570" y="779" on="1"/>
      </contour>
      <contour>
        <pt x="174" y="680" on="1"/>
        <pt x="312" y="680" on="1"/>
        <pt x="270" y="127" on="1"/>
        <pt x="284" y="127" on="1"/>
        <pt x="510" y="670" on="1"/>
        <pt x="662" y="670" on="1"/>
        <pt x="629" y="127" on="1"/>
        <pt x="643" y="127" on="1"/>
        <pt x="867" y="680" on="1"/>
        <pt x="1005" y="680" on="1"/>
        <pt x="714" y="0" on="1"/>
        <pt x="514" y="0" on="1"/>
        <pt x="547" y="494" on="1"/>
        <pt x="349" y="0" on="1"/>
        <pt x="143" y="0" on="1"/>
      </contour>
    </TTGlyph>
    <TTGlyph name="Wdieresis" xMin="143" yMin="0" xMax="1005" yMax="923">
      <contour>
        <pt x="449" y="788" on="1"/>
        <pt x="480" y="923" on="1"/>
        <pt x="591" y="923" on="1"/>
        <pt x="559" y="788" on="1"/>
      </contour>
      <contour>
        <pt x="648" y="788" on="1"/>
        <pt x="679" y="923" on="1"/>
        <pt x="790" y="923" on="1"/>
        <pt x="757" y="788" on="1"/>
      </contour>
      <contour>
        <pt x="174" y="680" on="1"/>
        <pt x="312" y="680" on="1"/>
        <pt x="270" y="127" on="1"/>
        <pt x="284" y="127" on="1"/>
        <pt x="510" y="670" on="1"/>
        <pt x="662" y="670" on="1"/>
        <pt x="629" y="127" on="1"/>
        <pt x="643" y="127" on="1"/>
        <pt x="867" y="680" on="1"/>
        <pt x="1005" y="680" on="1"/>
        <pt x="714" y="0" on="1"/>
        <pt x="514" y="0" on="1"/>
        <pt x="547" y="494" on="1"/>
        <pt x="349" y="0" on="1"/>
        <pt x="143" y="0" on="1"/>
      </contour>
    </TTGlyph>
    <TTGlyph name="Wgrave" xMin="143" yMin="0" xMax="1005" yMax="950">
      <contour>
        <pt x="517" y="950" on="1"/>
        <pt x="739" y="859" on="1"/>
        <pt x="678" y="754" on="1"/>
        <pt x="451" y="831" on="1"/>
      </contour>
      <contour>
        <pt x="174" y="680" on="1"/>
        <pt x="312" y="680" on="1"/>
        <pt x="270" y="127" on="1"/>
        <pt x="284" y="127" on="1"/>
        <pt x="510" y="670" on="1"/>
        <pt x="662" y="670" on="1"/>
        <pt x="629" y="127" on="1"/>
        <pt x="643" y="127" on="1"/>
        <pt x="867" y="680" on="1"/>
        <pt x="1005" y="680" on="1"/>
        <pt x="714" y="0" on="1"/>
        <pt x="514" y="0" on="1"/>
        <pt x="547" y="494" on="1"/>
        <pt x="349" y="0" on="1"/>
        <pt x="143" y="0" on="1"/>
      </contour>
    </TTGlyph>
    <TTGlyph name="X" xMin="1" yMin="0" xMax="671" yMax="680">
      <contour>
        <pt x="313" y="680" on="1"/>
        <pt x="362" y="441" on="1"/>
        <pt x="526" y="680" on="1"/>
        <pt x="671" y="680" on="1"/>
        <pt x="421" y="342" on="1"/>
        <pt x="515" y="0" on="1"/>
        <pt x="370" y="0" on="1"/>
        <pt x="315" y="243" on="1"/>
        <pt x="146" y="0" on="1"/>
        <pt x="1" y="0" on="1"/>
        <pt x="257" y="343" on="1"/>
        <pt x="167" y="680" on="1"/>
      </contour>
    </TTGlyph>
    <TTGlyph name="Y" xMin="158" yMin="0" xMax="661" yMax="680">
      <contour>
        <pt x="661" y="680" on="1"/>
        <pt x="381" y="288" on="1"/>
        <pt x="313" y="0" on="1"/>
        <pt x="185" y="0" on="1"/>
        <pt x="253" y="294" on="1"/>
        <pt x="158" y="680" on="1"/>
        <pt x="298" y="680" on="1"/>
        <pt x="346" y="415" on="1"/>
        <pt x="515" y="680" on="1"/>
      </contour>
    </TTGlyph>
    <TTGlyph name="Yacute" xMin="158" yMin="0" xMax="661" yMax="962">
      <contour>
        <pt x="345" y="765" on="1"/>
        <pt x="335" y="871" on="1"/>
        <pt x="599" y="962" on="1"/>
        <pt x="609" y="842" on="1"/>
      </contour>
      <contour>
        <pt x="661" y="680" on="1"/>
        <pt x="381" y="288" on="1"/>
        <pt x="313" y="0" on="1"/>
        <pt x="185" y="0" on="1"/>
        <pt x="253" y="294" on="1"/>
        <pt x="158" y="680" on="1"/>
        <pt x="298" y="680" on="1"/>
        <pt x="346" y="415" on="1"/>
        <pt x="515" y="680" on="1"/>
      </contour>
    </TTGlyph>
    <TTGlyph name="Ycircumflex" xMin="158" yMin="0" xMax="661" yMax="931">
      <contour>
        <pt x="251" y="779" on="1"/>
        <pt x="427" y="931" on="1"/>
        <pt x="507" y="931" on="1"/>
        <pt x="603" y="779" on="1"/>
        <pt x="481" y="779" on="1"/>
        <pt x="455" y="834" on="1"/>
        <pt x="393" y="779" on="1"/>
      </contour>
      <contour>
        <pt x="661" y="680" on="1"/>
        <pt x="381" y="288" on="1"/>
        <pt x="313" y="0" on="1"/>
        <pt x="185" y="0" on="1"/>
        <pt x="253" y="294" on="1"/>
        <pt x="158" y="680" on="1"/>
        <pt x="298" y="680" on="1"/>
        <pt x="346" y="415" on="1"/>
        <pt x="515" y="680" on="1"/>
      </contour>
    </TTGlyph>
    <TTGlyph name="Ydieresis" xMin="158" yMin="0" xMax="661" yMax="923">
      <contour>
        <pt x="273" y="788" on="1"/>
        <pt x="304" y="923" on="1"/>
        <pt x="415" y="923" on="1"/>
        <pt x="383" y="788" on="1"/>
      </contour>
      <contour>
        <pt x="472" y="788" on="1"/>
        <pt x="503" y="923" on="1"/>
        <pt x="614" y="923" on="1"/>
        <pt x="581" y="788" on="1"/>
      </contour>
      <contour>
        <pt x="661" y="680" on="1"/>
        <pt x="381" y="288" on="1"/>
        <pt x="313" y="0" on="1"/>
        <pt x="185" y="0" on="1"/>
        <pt x="253" y="294" on="1"/>
        <pt x="158" y="680" on="1"/>
        <pt x="298" y="680" on="1"/>
        <pt x="346" y="415" on="1"/>
        <pt x="515" y="680" on="1"/>
      </contour>
    </TTGlyph>
    <TTGlyph name="Ygrave" xMin="158" yMin="0" xMax="661" yMax="950">
      <contour>
        <pt x="339" y="950" on="1"/>
        <pt x="561" y="859" on="1"/>
        <pt x="500" y="754" on="1"/>
        <pt x="273" y="831" on="1"/>
      </contour>
      <contour>
        <pt x="661" y="680" on="1"/>
        <pt x="381" y="288" on="1"/>
        <pt x="313" y="0" on="1"/>
        <pt x="185" y="0" on="1"/>
        <pt x="253" y="294" on="1"/>
        <pt x="158" y="680" on="1"/>
        <pt x="298" y="680" on="1"/>
        <pt x="346" y="415" on="1"/>
        <pt x="515" y="680" on="1"/>
      </contour>
    </TTGlyph>
    <TTGlyph name="Z" xMin="36" yMin="0" xMax="611" yMax="680">
      <contour>
        <pt x="165" y="560" on="1"/>
        <pt x="193" y="680" on="1"/>
        <pt x="611" y="680" on="1"/>
        <pt x="579" y="541" on="1"/>
        <pt x="226" y="144" on="1"/>
        <pt x="220" y="120" on="1"/>
        <pt x="482" y="120" on="1"/>
        <pt x="454" y="0" on="1"/>
        <pt x="36" y="0" on="1"/>
        <pt x="67" y="137" on="1"/>
        <pt x="418" y="536" on="1"/>
        <pt x="423" y="560" on="1"/>
      </contour>
    </TTGlyph>
    <TTGlyph name="Zacute" xMin="36" yMin="0" xMax="611" yMax="962">
      <contour>
        <pt x="316" y="765" on="1"/>
        <pt x="306" y="871" on="1"/>
        <pt x="570" y="962" on="1"/>
        <pt x="580" y="842" on="1"/>
      </contour>
      <contour>
        <pt x="165" y="560" on="1"/>
        <pt x="193" y="680" on="1"/>
        <pt x="611" y="680" on="1"/>
        <pt x="579" y="541" on="1"/>
        <pt x="226" y="144" on="1"/>
        <pt x="220" y="120" on="1"/>
        <pt x="482" y="120" on="1"/>
        <pt x="454" y="0" on="1"/>
        <pt x="36" y="0" on="1"/>
        <pt x="67" y="137" on="1"/>
        <pt x="418" y="536" on="1"/>
        <pt x="423" y="560" on="1"/>
      </contour>
    </TTGlyph>
    <TTGlyph name="Zcaron" xMin="36" yMin="0" xMax="630" yMax="927">
      <contour>
        <pt x="630" y="927" on="1"/>
        <pt x="470" y="776" on="1"/>
        <pt x="378" y="776" on="1"/>
        <pt x="285" y="927" on="1"/>
        <pt x="417" y="927" on="1"/>
        <pt x="446" y="870" on="1"/>
        <pt x="499" y="927" on="1"/>
      </contour>
      <contour>
        <pt x="165" y="560" on="1"/>
        <pt x="193" y="680" on="1"/>
        <pt x="611" y="680" on="1"/>
        <pt x="579" y="541" on="1"/>
        <pt x="226" y="144" on="1"/>
        <pt x="220" y="120" on="1"/>
        <pt x="482" y="120" on="1"/>
        <pt x="454" y="0" on="1"/>
        <pt x="36" y="0" on="1"/>
        <pt x="67" y="137" on="1"/>
        <pt x="418" y="536" on="1"/>
        <pt x="423" y="560" on="1"/>
      </contour>
    </TTGlyph>
    <TTGlyph name="Zdotaccent" xMin="36" yMin="0" xMax="611" yMax="909">
      <contour>
        <pt x="367" y="771" on="1"/>
        <pt x="399" y="909" on="1"/>
        <pt x="517" y="909" on="1"/>
        <pt x="483" y="771" on="1"/>
      </contour>
      <contour>
        <pt x="165" y="560" on="1"/>
        <pt x="193" y="680" on="1"/>
        <pt x="611" y="680" on="1"/>
        <pt x="579" y="541" on="1"/>
        <pt x="226" y="144" on="1"/>
        <pt x="220" y="120" on="1"/>
        <pt x="482" y="120" on="1"/>
        <pt x="454" y="0" on="1"/>
        <pt x="36" y="0" on="1"/>
        <pt x="67" y="137" on="1"/>
        <pt x="418" y="536" on="1"/>
        <pt x="423" y="560" on="1"/>
      </contour>
    </TTGlyph>
    <TTGlyph name="a" xMin="80" yMin="-12" xMax="584" yMax="512">
      <contour>
        <pt x="221" y="-12" on="1"/>
        <pt x="148" y="-12" on="0"/>
        <pt x="80" y="87" on="0"/>
        <pt x="80" y="170" on="1"/>
        <pt x="80" y="285" on="0"/>
        <pt x="138" y="391" on="1"/>
        <pt x="167" y="444" on="0"/>
        <pt x="269" y="512" on="0"/>
        <pt x="334" y="512" on="1"/>
        <pt x="403" y="512" on="0"/>
        <pt x="538" y="488" on="1"/>
        <pt x="584" y="479" on="1"/>
        <pt x="509" y="156" on="1"/>
        <pt x="482" y="3" on="1"/>
        <pt x="349" y="-2" on="1"/>
        <pt x="358" y="59" on="0"/>
        <pt x="362" y="76" on="1"/>
        <pt x="321" y="21" on="0"/>
        <pt x="266" y="-2" on="1"/>
        <pt x="243" y="-12" on="0"/>
      </contour>
      <contour>
        <pt x="338" y="398" on="1"/>
        <pt x="300" y="398" on="0"/>
        <pt x="271" y="359" on="1"/>
        <pt x="216" y="285" on="0"/>
        <pt x="216" y="170" on="1"/>
        <pt x="216" y="135" on="0"/>
        <pt x="238" y="102" on="0"/>
        <pt x="285" y="102" on="0"/>
        <pt x="344" y="146" on="0"/>
        <pt x="364" y="168" on="1"/>
        <pt x="384" y="191" on="1"/>
        <pt x="430" y="384" on="1"/>
        <pt x="364" y="398" on="0"/>
      </contour>
    </TTGlyph>
    <TTGlyph name="aacute" xMin="80" yMin="-12" xMax="600" yMax="774">
      <contour>
        <pt x="221" y="-12" on="1"/>
        <pt x="148" y="-12" on="0"/>
        <pt x="80" y="87" on="0"/>
        <pt x="80" y="170" on="1"/>
        <pt x="80" y="285" on="0"/>
        <pt x="138" y="391" on="1"/>
        <pt x="167" y="444" on="0"/>
        <pt x="269" y="512" on="0"/>
        <pt x="334" y="512" on="1"/>
        <pt x="403" y="512" on="0"/>
        <pt x="538" y="488" on="1"/>
        <pt x="584" y="479" on="1"/>
        <pt x="509" y="156" on="1"/>
        <pt x="482" y="3" on="1"/>
        <pt x="349" y="-2" on="1"/>
        <pt x="358" y="59" on="0"/>
        <pt x="362" y="76" on="1"/>
        <pt x="321" y="21" on="0"/>
        <pt x="266" y="-2" on="1"/>
        <pt x="243" y="-12" on="0"/>
      </contour>
      <contour>
        <pt x="338" y="398" on="1"/>
        <pt x="300" y="398" on="0"/>
        <pt x="271" y="359" on="1"/>
        <pt x="216" y="285" on="0"/>
        <pt x="216" y="170" on="1"/>
        <pt x="216" y="135" on="0"/>
        <pt x="238" y="102" on="0"/>
        <pt x="285" y="102" on="0"/>
        <pt x="344" y="146" on="0"/>
        <pt x="364" y="168" on="1"/>
        <pt x="384" y="191" on="1"/>
        <pt x="430" y="384" on="1"/>
        <pt x="364" y="398" on="0"/>
      </contour>
      <contour>
        <pt x="336" y="576" on="1"/>
        <pt x="326" y="683" on="1"/>
        <pt x="590" y="774" on="1"/>
        <pt x="600" y="654" on="1"/>
      </contour>
    </TTGlyph>
    <TTGlyph name="abreve" xMin="80" yMin="-12" xMax="634" yMax="746">
      <contour>
        <pt x="221" y="-12" on="1"/>
        <pt x="148" y="-12" on="0"/>
        <pt x="80" y="87" on="0"/>
        <pt x="80" y="170" on="1"/>
        <pt x="80" y="285" on="0"/>
        <pt x="138" y="391" on="1"/>
        <pt x="167" y="444" on="0"/>
        <pt x="269" y="512" on="0"/>
        <pt x="334" y="512" on="1"/>
        <pt x="403" y="512" on="0"/>
        <pt x="538" y="488" on="1"/>
        <pt x="584" y="479" on="1"/>
        <pt x="509" y="156" on="1"/>
        <pt x="482" y="3" on="1"/>
        <pt x="349" y="-2" on="1"/>
        <pt x="358" y="59" on="0"/>
        <pt x="362" y="76" on="1"/>
        <pt x="321" y="21" on="0"/>
        <pt x="266" y="-2" on="1"/>
        <pt x="243" y="-12" on="0"/>
      </contour>
      <contour>
        <pt x="338" y="398" on="1"/>
        <pt x="300" y="398" on="0"/>
        <pt x="271" y="359" on="1"/>
        <pt x="216" y="285" on="0"/>
        <pt x="216" y="170" on="1"/>
        <pt x="216" y="135" on="0"/>
        <pt x="238" y="102" on="0"/>
        <pt x="285" y="102" on="0"/>
        <pt x="344" y="146" on="0"/>
        <pt x="364" y="168" on="1"/>
        <pt x="384" y="191" on="1"/>
        <pt x="430" y="384" on="1"/>
        <pt x="364" y="398" on="0"/>
      </contour>
      <contour>
        <pt x="408" y="739" on="1"/>
        <pt x="408" y="702" on="0"/>
        <pt x="497" y="702" on="0"/>
        <pt x="513" y="746" on="1"/>
        <pt x="634" y="746" on="1"/>
        <pt x="582" y="590" on="0"/>
        <pt x="416" y="590" on="1"/>
        <pt x="284" y="590" on="0"/>
        <pt x="284" y="710" on="1"/>
        <pt x="284" y="727" on="0"/>
        <pt x="287" y="746" on="1"/>
        <pt x="408" y="746" on="1"/>
        <pt x="408" y="742" on="0"/>
      </contour>
    </TTGlyph>
    <TTGlyph name="acircumflex" xMin="80" yMin="-12" xMax="584" yMax="750">
      <contour>
        <pt x="212" y="575" on="1"/>
        <pt x="380" y="750" on="1"/>
        <pt x="480" y="750" on="1"/>
        <pt x="566" y="575" on="1"/>
        <pt x="434" y="575" on="1"/>
        <pt x="410" y="639" on="1"/>
        <pt x="352" y="575" on="1"/>
      </contour>
      <contour>
        <pt x="221" y="-12" on="1"/>
        <pt x="148" y="-12" on="0"/>
        <pt x="80" y="87" on="0"/>
        <pt x="80" y="170" on="1"/>
        <pt x="80" y="285" on="0"/>
        <pt x="138" y="391" on="1"/>
        <pt x="167" y="444" on="0"/>
        <pt x="269" y="512" on="0"/>
        <pt x="334" y="512" on="1"/>
        <pt x="403" y="512" on="0"/>
        <pt x="538" y="488" on="1"/>
        <pt x="584" y="479" on="1"/>
        <pt x="509" y="156" on="1"/>
        <pt x="482" y="3" on="1"/>
        <pt x="349" y="-2" on="1"/>
        <pt x="358" y="59" on="0"/>
        <pt x="362" y="76" on="1"/>
        <pt x="321" y="21" on="0"/>
        <pt x="266" y="-2" on="1"/>
        <pt x="243" y="-12" on="0"/>
      </contour>
      <contour>
        <pt x="338" y="398" on="1"/>
        <pt x="300" y="398" on="0"/>
        <pt x="271" y="359" on="1"/>
        <pt x="216" y="285" on="0"/>
        <pt x="216" y="170" on="1"/>
        <pt x="216" y="135" on="0"/>
        <pt x="238" y="102" on="0"/>
        <pt x="285" y="102" on="0"/>
        <pt x="344" y="146" on="0"/>
        <pt x="364" y="168" on="1"/>
        <pt x="384" y="191" on="1"/>
        <pt x="430" y="384" on="1"/>
        <pt x="364" y="398" on="0"/>
      </contour>
    </TTGlyph>
    <TTGlyph name="acute" xMin="244" yMin="576" xMax="518" yMax="774">
      <contour>
        <pt x="254" y="576" on="1"/>
        <pt x="244" y="683" on="1"/>
        <pt x="508" y="774" on="1"/>
        <pt x="518" y="654" on="1"/>
      </contour>
    </TTGlyph>
    <TTGlyph name="acute.cap.001" xMin="289" yMin="765" xMax="563" yMax="962">
      <contour>
        <pt x="299" y="765" on="1"/>
        <pt x="289" y="871" on="1"/>
        <pt x="553" y="962" on="1"/>
        <pt x="563" y="842" on="1"/>
      </contour>
    </TTGlyph>
    <TTGlyph name="adieresis" xMin="80" yMin="-12" xMax="598" yMax="736">
      <contour>
        <pt x="242" y="601" on="1"/>
        <pt x="273" y="736" on="1"/>
        <pt x="394" y="736" on="1"/>
        <pt x="362" y="601" on="1"/>
      </contour>
      <contour>
        <pt x="446" y="601" on="1"/>
        <pt x="477" y="736" on="1"/>
        <pt x="598" y="736" on="1"/>
        <pt x="566" y="601" on="1"/>
      </contour>
      <contour>
        <pt x="221" y="-12" on="1"/>
        <pt x="148" y="-12" on="0"/>
        <pt x="80" y="87" on="0"/>
        <pt x="80" y="170" on="1"/>
        <pt x="80" y="285" on="0"/>
        <pt x="138" y="391" on="1"/>
        <pt x="167" y="444" on="0"/>
        <pt x="269" y="512" on="0"/>
        <pt x="334" y="512" on="1"/>
        <pt x="403" y="512" on="0"/>
        <pt x="538" y="488" on="1"/>
        <pt x="584" y="479" on="1"/>
        <pt x="509" y="156" on="1"/>
        <pt x="482" y="3" on="1"/>
        <pt x="349" y="-2" on="1"/>
        <pt x="358" y="59" on="0"/>
        <pt x="362" y="76" on="1"/>
        <pt x="321" y="21" on="0"/>
        <pt x="266" y="-2" on="1"/>
        <pt x="243" y="-12" on="0"/>
      </contour>
      <contour>
        <pt x="338" y="398" on="1"/>
        <pt x="300" y="398" on="0"/>
        <pt x="271" y="359" on="1"/>
        <pt x="216" y="285" on="0"/>
        <pt x="216" y="170" on="1"/>
        <pt x="216" y="135" on="0"/>
        <pt x="238" y="102" on="0"/>
        <pt x="285" y="102" on="0"/>
        <pt x="344" y="146" on="0"/>
        <pt x="364" y="168" on="1"/>
        <pt x="384" y="191" on="1"/>
        <pt x="430" y="384" on="1"/>
        <pt x="364" y="398" on="0"/>
      </contour>
    </TTGlyph>
    <TTGlyph name="ae" xMin="51" yMin="-12" xMax="761" yMax="511">
      <contour>
        <pt x="452" y="167" on="1"/>
        <pt x="452" y="109" on="0"/>
        <pt x="521" y="109" on="1"/>
        <pt x="569" y="109" on="0"/>
        <pt x="666" y="116" on="1"/>
        <pt x="693" y="118" on="1"/>
        <pt x="670" y="16" on="1"/>
        <pt x="579" y="-12" on="0"/>
        <pt x="381" y="-12" on="0"/>
        <pt x="344" y="37" on="1"/>
        <pt x="318" y="23" on="0"/>
        <pt x="201" y="-12" on="0"/>
        <pt x="168" y="-12" on="1"/>
        <pt x="105" y="-12" on="0"/>
        <pt x="73" y="39" on="1"/>
        <pt x="52" y="73" on="0"/>
        <pt x="52" y="132" on="0"/>
        <pt x="57" y="153" on="1"/>
        <pt x="86" y="279" on="0"/>
        <pt x="210" y="302" on="1"/>
        <pt x="266" y="312" on="0"/>
        <pt x="338" y="312" on="0"/>
        <pt x="349" y="312" on="1"/>
        <pt x="356" y="325" on="0"/>
        <pt x="356" y="341" on="1"/>
        <pt x="356" y="386" on="0"/>
        <pt x="324" y="386" on="1"/>
        <pt x="262" y="386" on="0"/>
        <pt x="172" y="376" on="1"/>
        <pt x="142" y="372" on="1"/>
        <pt x="163" y="489" on="1"/>
        <pt x="290" y="511" on="0"/>
        <pt x="443" y="511" on="0"/>
        <pt x="473" y="470" on="1"/>
        <pt x="529" y="511" on="0"/>
        <pt x="679" y="511" on="0"/>
        <pt x="718" y="476" on="1"/>
        <pt x="760" y="437" on="0"/>
        <pt x="760" y="364" on="1"/>
        <pt x="760" y="324" on="0"/>
        <pt x="747" y="277" on="1"/>
        <pt x="724" y="192" on="1"/>
        <pt x="455" y="194" on="1"/>
        <pt x="452" y="180" on="0"/>
      </contour>
      <contour>
        <pt x="184" y="143" on="1"/>
        <pt x="184" y="103" on="0"/>
        <pt x="215" y="103" on="1"/>
        <pt x="262" y="103" on="0"/>
        <pt x="316" y="116" on="1"/>
        <pt x="315" y="126" on="0"/>
        <pt x="315" y="170" on="0"/>
        <pt x="326" y="212" on="1"/>
        <pt x="301" y="212" on="0"/>
        <pt x="247" y="208" on="1"/>
        <pt x="225" y="206" on="0"/>
        <pt x="208" y="192" on="1"/>
        <pt x="184" y="174" on="0"/>
      </contour>
      <contour>
        <pt x="628" y="294" on="1"/>
        <pt x="635" y="319" on="0"/>
        <pt x="635" y="349" on="0"/>
        <pt x="633" y="358" on="1"/>
        <pt x="625" y="396" on="0"/>
        <pt x="534" y="396" on="0"/>
        <pt x="491" y="345" on="0"/>
        <pt x="478" y="296" on="1"/>
      </contour>
    </TTGlyph>
    <TTGlyph name="aeacute" xMin="51" yMin="-12" xMax="761" yMax="774">
      <contour>
        <pt x="452" y="167" on="1"/>
        <pt x="452" y="109" on="0"/>
        <pt x="521" y="109" on="1"/>
        <pt x="569" y="109" on="0"/>
        <pt x="666" y="116" on="1"/>
        <pt x="693" y="118" on="1"/>
        <pt x="670" y="16" on="1"/>
        <pt x="579" y="-12" on="0"/>
        <pt x="381" y="-12" on="0"/>
        <pt x="344" y="37" on="1"/>
        <pt x="318" y="23" on="0"/>
        <pt x="201" y="-12" on="0"/>
        <pt x="168" y="-12" on="1"/>
        <pt x="105" y="-12" on="0"/>
        <pt x="73" y="39" on="1"/>
        <pt x="52" y="73" on="0"/>
        <pt x="52" y="132" on="0"/>
        <pt x="57" y="153" on="1"/>
        <pt x="86" y="279" on="0"/>
        <pt x="210" y="302" on="1"/>
        <pt x="266" y="312" on="0"/>
        <pt x="338" y="312" on="0"/>
        <pt x="349" y="312" on="1"/>
        <pt x="356" y="325" on="0"/>
        <pt x="356" y="341" on="1"/>
        <pt x="356" y="386" on="0"/>
        <pt x="324" y="386" on="1"/>
        <pt x="262" y="386" on="0"/>
        <pt x="172" y="376" on="1"/>
        <pt x="142" y="372" on="1"/>
        <pt x="163" y="489" on="1"/>
        <pt x="290" y="511" on="0"/>
        <pt x="443" y="511" on="0"/>
        <pt x="473" y="470" on="1"/>
        <pt x="529" y="511" on="0"/>
        <pt x="679" y="511" on="0"/>
        <pt x="718" y="476" on="1"/>
        <pt x="760" y="437" on="0"/>
        <pt x="760" y="364" on="1"/>
        <pt x="760" y="324" on="0"/>
        <pt x="747" y="277" on="1"/>
        <pt x="724" y="192" on="1"/>
        <pt x="455" y="194" on="1"/>
        <pt x="452" y="180" on="0"/>
      </contour>
      <contour>
        <pt x="184" y="143" on="1"/>
        <pt x="184" y="103" on="0"/>
        <pt x="215" y="103" on="1"/>
        <pt x="262" y="103" on="0"/>
        <pt x="316" y="116" on="1"/>
        <pt x="315" y="126" on="0"/>
        <pt x="315" y="170" on="0"/>
        <pt x="326" y="212" on="1"/>
        <pt x="301" y="212" on="0"/>
        <pt x="247" y="208" on="1"/>
        <pt x="225" y="206" on="0"/>
        <pt x="208" y="192" on="1"/>
        <pt x="184" y="174" on="0"/>
      </contour>
      <contour>
        <pt x="628" y="294" on="1"/>
        <pt x="635" y="319" on="0"/>
        <pt x="635" y="349" on="0"/>
        <pt x="633" y="358" on="1"/>
        <pt x="625" y="396" on="0"/>
        <pt x="534" y="396" on="0"/>
        <pt x="491" y="345" on="0"/>
        <pt x="478" y="296" on="1"/>
      </contour>
      <contour>
        <pt x="387" y="576" on="1"/>
        <pt x="377" y="683" on="1"/>
        <pt x="641" y="774" on="1"/>
        <pt x="651" y="654" on="1"/>
      </contour>
    </TTGlyph>
    <TTGlyph name="agrave" xMin="80" yMin="-12" xMax="584" yMax="772">
      <contour>
        <pt x="221" y="-12" on="1"/>
        <pt x="148" y="-12" on="0"/>
        <pt x="80" y="87" on="0"/>
        <pt x="80" y="170" on="1"/>
        <pt x="80" y="285" on="0"/>
        <pt x="138" y="391" on="1"/>
        <pt x="167" y="444" on="0"/>
        <pt x="269" y="512" on="0"/>
        <pt x="334" y="512" on="1"/>
        <pt x="403" y="512" on="0"/>
        <pt x="538" y="488" on="1"/>
        <pt x="584" y="479" on="1"/>
        <pt x="509" y="156" on="1"/>
        <pt x="482" y="3" on="1"/>
        <pt x="349" y="-2" on="1"/>
        <pt x="358" y="59" on="0"/>
        <pt x="362" y="76" on="1"/>
        <pt x="321" y="21" on="0"/>
        <pt x="266" y="-2" on="1"/>
        <pt x="243" y="-12" on="0"/>
      </contour>
      <contour>
        <pt x="338" y="398" on="1"/>
        <pt x="300" y="398" on="0"/>
        <pt x="271" y="359" on="1"/>
        <pt x="216" y="285" on="0"/>
        <pt x="216" y="170" on="1"/>
        <pt x="216" y="135" on="0"/>
        <pt x="238" y="102" on="0"/>
        <pt x="285" y="102" on="0"/>
        <pt x="344" y="146" on="0"/>
        <pt x="364" y="168" on="1"/>
        <pt x="384" y="191" on="1"/>
        <pt x="430" y="384" on="1"/>
        <pt x="364" y="398" on="0"/>
      </contour>
      <contour>
        <pt x="352" y="772" on="1"/>
        <pt x="573" y="682" on="1"/>
        <pt x="517" y="583" on="1"/>
        <pt x="288" y="662" on="1"/>
      </contour>
    </TTGlyph>
    <TTGlyph name="amacron" xMin="80" yMin="-12" xMax="611" yMax="736">
      <contour>
        <pt x="221" y="-12" on="1"/>
        <pt x="148" y="-12" on="0"/>
        <pt x="80" y="87" on="0"/>
        <pt x="80" y="170" on="1"/>
        <pt x="80" y="285" on="0"/>
        <pt x="138" y="391" on="1"/>
        <pt x="167" y="444" on="0"/>
        <pt x="269" y="512" on="0"/>
        <pt x="334" y="512" on="1"/>
        <pt x="403" y="512" on="0"/>
        <pt x="538" y="488" on="1"/>
        <pt x="584" y="479" on="1"/>
        <pt x="509" y="156" on="1"/>
        <pt x="482" y="3" on="1"/>
        <pt x="349" y="-2" on="1"/>
        <pt x="358" y="59" on="0"/>
        <pt x="362" y="76" on="1"/>
        <pt x="321" y="21" on="0"/>
        <pt x="266" y="-2" on="1"/>
        <pt x="243" y="-12" on="0"/>
      </contour>
      <contour>
        <pt x="338" y="398" on="1"/>
        <pt x="300" y="398" on="0"/>
        <pt x="271" y="359" on="1"/>
        <pt x="216" y="285" on="0"/>
        <pt x="216" y="170" on="1"/>
        <pt x="216" y="135" on="0"/>
        <pt x="238" y="102" on="0"/>
        <pt x="285" y="102" on="0"/>
        <pt x="344" y="146" on="0"/>
        <pt x="364" y="168" on="1"/>
        <pt x="384" y="191" on="1"/>
        <pt x="430" y="384" on="1"/>
        <pt x="364" y="398" on="0"/>
      </contour>
      <contour>
        <pt x="277" y="627" on="1"/>
        <pt x="302" y="736" on="1"/>
        <pt x="611" y="736" on="1"/>
        <pt x="585" y="627" on="1"/>
      </contour>
    </TTGlyph>
    <TTGlyph name="ampersand" xMin="63" yMin="-14" xMax="678" yMax="692">
      <contour>
        <pt x="430" y="692" on="1"/>
        <pt x="606" y="692" on="0"/>
        <pt x="606" y="541" on="1"/>
        <pt x="606" y="470" on="0"/>
        <pt x="533" y="388" on="0"/>
        <pt x="430" y="347" on="1"/>
        <pt x="506" y="245" on="1"/>
        <pt x="518" y="263" on="0"/>
        <pt x="551" y="342" on="0"/>
        <pt x="555" y="366" on="1"/>
        <pt x="678" y="366" on="1"/>
        <pt x="667" y="321" on="0"/>
        <pt x="602" y="192" on="0"/>
        <pt x="574" y="159" on="1"/>
        <pt x="654" y="66" on="1"/>
        <pt x="561" y="-14" on="1"/>
        <pt x="489" y="78" on="1"/>
        <pt x="396" y="-12" on="0"/>
        <pt x="154" y="-12" on="0"/>
        <pt x="63" y="83" on="0"/>
        <pt x="63" y="249" on="0"/>
        <pt x="160" y="362" on="0"/>
        <pt x="259" y="402" on="1"/>
        <pt x="229" y="454" on="0"/>
        <pt x="229" y="509" on="1"/>
        <pt x="229" y="602" on="0"/>
        <pt x="339" y="692" on="0"/>
      </contour>
      <contour>
        <pt x="297" y="102" on="1"/>
        <pt x="329" y="102" on="0"/>
        <pt x="404" y="137" on="0"/>
        <pt x="425" y="158" on="1"/>
        <pt x="307" y="325" on="1"/>
        <pt x="202" y="276" on="0"/>
        <pt x="202" y="179" on="1"/>
        <pt x="202" y="102" on="0"/>
      </contour>
      <contour>
        <pt x="428" y="580" on="1"/>
        <pt x="363" y="580" on="0"/>
        <pt x="363" y="494" on="1"/>
        <pt x="363" y="450" on="0"/>
        <pt x="383" y="419" on="1"/>
        <pt x="438" y="448" on="0"/>
        <pt x="472" y="492" on="0"/>
        <pt x="472" y="529" on="1"/>
        <pt x="472" y="580" on="0"/>
      </contour>
    </TTGlyph>
    <TTGlyph name="aogonek" xMin="80" yMin="-214" xMax="584" yMax="512">
      <contour>
        <pt x="439" y="-203" on="1"/>
        <pt x="382" y="-214" on="0"/>
        <pt x="302" y="-214" on="0"/>
        <pt x="258" y="-175" on="0"/>
        <pt x="258" y="-137" on="1"/>
        <pt x="258" y="-73" on="0"/>
        <pt x="349" y="1" on="1"/>
        <pt x="349" y="2" on="0"/>
        <pt x="360" y="67" on="0"/>
        <pt x="362" y="76" on="1"/>
        <pt x="321" y="21" on="0"/>
        <pt x="266" y="-2" on="1"/>
        <pt x="243" y="-12" on="0"/>
        <pt x="221" y="-12" on="1"/>
        <pt x="148" y="-12" on="0"/>
        <pt x="80" y="87" on="0"/>
        <pt x="80" y="170" on="1"/>
        <pt x="80" y="285" on="0"/>
        <pt x="138" y="391" on="1"/>
        <pt x="167" y="444" on="0"/>
        <pt x="269" y="512" on="0"/>
        <pt x="334" y="512" on="1"/>
        <pt x="403" y="512" on="0"/>
        <pt x="538" y="488" on="1"/>
        <pt x="584" y="479" on="1"/>
        <pt x="509" y="156" on="1"/>
        <pt x="482" y="3" on="1"/>
        <pt x="472" y="2" on="1"/>
        <pt x="450" y="-12" on="0"/>
        <pt x="402" y="-66" on="0"/>
        <pt x="402" y="-96" on="0"/>
        <pt x="415" y="-96" on="1"/>
        <pt x="452" y="-93" on="1"/>
      </contour>
      <contour>
        <pt x="338" y="398" on="1"/>
        <pt x="300" y="398" on="0"/>
        <pt x="271" y="359" on="1"/>
        <pt x="216" y="285" on="0"/>
        <pt x="216" y="170" on="1"/>
        <pt x="216" y="135" on="0"/>
        <pt x="238" y="102" on="0"/>
        <pt x="285" y="102" on="0"/>
        <pt x="344" y="146" on="0"/>
        <pt x="364" y="168" on="1"/>
        <pt x="384" y="191" on="1"/>
        <pt x="430" y="384" on="1"/>
        <pt x="364" y="398" on="0"/>
      </contour>
    </TTGlyph>
    <TTGlyph name="approxequal" xMin="114" yMin="45" xMax="555" yMax="429">
      <contour>
        <pt x="467" y="265" on="0"/>
        <pt x="411" y="265" on="0"/>
        <pt x="252" y="309" on="0"/>
        <pt x="213" y="309" on="0"/>
        <pt x="158" y="290" on="0"/>
        <pt x="141" y="280" on="1"/>
        <pt x="124" y="270" on="1"/>
        <pt x="114" y="377" on="1"/>
        <pt x="178" y="429" on="0"/>
        <pt x="238" y="429" on="1"/>
        <pt x="266" y="429" on="0"/>
        <pt x="420" y="385" on="0"/>
        <pt x="440" y="385" on="1"/>
        <pt x="478" y="385" on="0"/>
        <pt x="529" y="414" on="1"/>
        <pt x="546" y="423" on="1"/>
        <pt x="555" y="316" on="1"/>
        <pt x="535" y="296" on="0"/>
      </contour>
      <contour>
        <pt x="467" y="45" on="0"/>
        <pt x="411" y="45" on="0"/>
        <pt x="252" y="89" on="0"/>
        <pt x="213" y="89" on="0"/>
        <pt x="158" y="70" on="0"/>
        <pt x="141" y="60" on="1"/>
        <pt x="124" y="50" on="1"/>
        <pt x="114" y="157" on="1"/>
        <pt x="178" y="209" on="0"/>
        <pt x="238" y="209" on="1"/>
        <pt x="266" y="209" on="0"/>
        <pt x="420" y="165" on="0"/>
        <pt x="440" y="165" on="1"/>
        <pt x="478" y="165" on="0"/>
        <pt x="529" y="194" on="1"/>
        <pt x="546" y="203" on="1"/>
        <pt x="555" y="96" on="1"/>
        <pt x="535" y="76" on="0"/>
      </contour>
    </TTGlyph>
    <TTGlyph name="aring" xMin="80" yMin="-12" xMax="584" yMax="763">
      <contour>
        <pt x="221" y="-12" on="1"/>
        <pt x="148" y="-12" on="0"/>
        <pt x="80" y="87" on="0"/>
        <pt x="80" y="170" on="1"/>
        <pt x="80" y="285" on="0"/>
        <pt x="138" y="391" on="1"/>
        <pt x="167" y="444" on="0"/>
        <pt x="269" y="512" on="0"/>
        <pt x="334" y="512" on="1"/>
        <pt x="403" y="512" on="0"/>
        <pt x="538" y="488" on="1"/>
        <pt x="584" y="479" on="1"/>
        <pt x="509" y="156" on="1"/>
        <pt x="482" y="3" on="1"/>
        <pt x="349" y="-2" on="1"/>
        <pt x="358" y="59" on="0"/>
        <pt x="362" y="76" on="1"/>
        <pt x="321" y="21" on="0"/>
        <pt x="266" y="-2" on="1"/>
        <pt x="243" y="-12" on="0"/>
      </contour>
      <contour>
        <pt x="338" y="398" on="1"/>
        <pt x="300" y="398" on="0"/>
        <pt x="271" y="359" on="1"/>
        <pt x="216" y="285" on="0"/>
        <pt x="216" y="170" on="1"/>
        <pt x="216" y="135" on="0"/>
        <pt x="238" y="102" on="0"/>
        <pt x="285" y="102" on="0"/>
        <pt x="344" y="146" on="0"/>
        <pt x="364" y="168" on="1"/>
        <pt x="384" y="191" on="1"/>
        <pt x="430" y="384" on="1"/>
        <pt x="364" y="398" on="0"/>
      </contour>
      <contour>
        <pt x="378" y="733" on="1"/>
        <pt x="412" y="763" on="0"/>
        <pt x="507" y="763" on="0"/>
        <pt x="525" y="732" on="1"/>
        <pt x="536" y="714" on="0"/>
        <pt x="536" y="693" on="1"/>
        <pt x="536" y="618" on="0"/>
        <pt x="485" y="576" on="1"/>
        <pt x="450" y="547" on="0"/>
        <pt x="356" y="547" on="0"/>
        <pt x="338" y="578" on="1"/>
        <pt x="326" y="597" on="0"/>
        <pt x="326" y="617" on="1"/>
        <pt x="326" y="688" on="0"/>
      </contour>
      <contour>
        <pt x="403" y="656" on="1"/>
        <pt x="401" y="652" on="0"/>
        <pt x="401" y="641" on="0"/>
        <pt x="412" y="626" on="0"/>
        <pt x="425" y="626" on="1"/>
        <pt x="452" y="626" on="0"/>
        <pt x="461" y="655" on="1"/>
        <pt x="462" y="659" on="0"/>
        <pt x="462" y="670" on="0"/>
        <pt x="450" y="683" on="0"/>
        <pt x="439" y="683" on="1"/>
        <pt x="411" y="683" on="0"/>
      </contour>
    </TTGlyph>
    <TTGlyph name="aringacute" xMin="80" yMin="-12" xMax="629" yMax="966">
      <contour>
        <pt x="365" y="758" on="1"/>
        <pt x="354" y="875" on="1"/>
        <pt x="618" y="966" on="1"/>
        <pt x="629" y="836" on="1"/>
      </contour>
      <contour>
        <pt x="221" y="-12" on="1"/>
        <pt x="148" y="-12" on="0"/>
        <pt x="80" y="87" on="0"/>
        <pt x="80" y="170" on="1"/>
        <pt x="80" y="285" on="0"/>
        <pt x="138" y="391" on="1"/>
        <pt x="167" y="444" on="0"/>
        <pt x="269" y="512" on="0"/>
        <pt x="334" y="512" on="1"/>
        <pt x="403" y="512" on="0"/>
        <pt x="538" y="488" on="1"/>
        <pt x="584" y="479" on="1"/>
        <pt x="509" y="156" on="1"/>
        <pt x="482" y="3" on="1"/>
        <pt x="349" y="-2" on="1"/>
        <pt x="358" y="59" on="0"/>
        <pt x="362" y="76" on="1"/>
        <pt x="321" y="21" on="0"/>
        <pt x="266" y="-2" on="1"/>
        <pt x="243" y="-12" on="0"/>
      </contour>
      <contour>
        <pt x="338" y="398" on="1"/>
        <pt x="300" y="398" on="0"/>
        <pt x="271" y="359" on="1"/>
        <pt x="216" y="285" on="0"/>
        <pt x="216" y="170" on="1"/>
        <pt x="216" y="135" on="0"/>
        <pt x="238" y="102" on="0"/>
        <pt x="285" y="102" on="0"/>
        <pt x="344" y="146" on="0"/>
        <pt x="364" y="168" on="1"/>
        <pt x="384" y="191" on="1"/>
        <pt x="430" y="384" on="1"/>
        <pt x="364" y="398" on="0"/>
      </contour>
      <contour>
        <pt x="372" y="713" on="1"/>
        <pt x="406" y="743" on="0"/>
        <pt x="501" y="743" on="0"/>
        <pt x="519" y="712" on="1"/>
        <pt x="530" y="694" on="0"/>
        <pt x="530" y="673" on="1"/>
        <pt x="530" y="598" on="0"/>
        <pt x="479" y="556" on="1"/>
        <pt x="444" y="527" on="0"/>
        <pt x="350" y="527" on="0"/>
        <pt x="332" y="558" on="1"/>
        <pt x="320" y="577" on="0"/>
        <pt x="320" y="597" on="1"/>
        <pt x="320" y="668" on="0"/>
      </contour>
      <contour>
        <pt x="397" y="636" on="1"/>
        <pt x="395" y="632" on="0"/>
        <pt x="395" y="621" on="0"/>
        <pt x="406" y="606" on="0"/>
        <pt x="419" y="606" on="1"/>
        <pt x="446" y="606" on="0"/>
        <pt x="455" y="635" on="1"/>
        <pt x="456" y="639" on="0"/>
        <pt x="456" y="650" on="0"/>
        <pt x="444" y="663" on="0"/>
        <pt x="433" y="663" on="1"/>
        <pt x="405" y="663" on="0"/>
      </contour>
    </TTGlyph>
    <TTGlyph name="asciicircum" xMin="55" yMin="313" xMax="557" yMax="660">
      <contour>
        <pt x="417" y="313" on="1"/>
        <pt x="308" y="530" on="1"/>
        <pt x="195" y="313" on="1"/>
        <pt x="55" y="313" on="1"/>
        <pt x="249" y="660" on="1"/>
        <pt x="363" y="660" on="1"/>
        <pt x="557" y="313" on="1"/>
      </contour>
    </TTGlyph>
    <TTGlyph name="asciitilde" xMin="120" yMin="170" xMax="556" yMax="334">
      <contour>
        <pt x="470" y="170" on="0"/>
        <pt x="414" y="170" on="0"/>
        <pt x="256" y="214" on="0"/>
        <pt x="218" y="214" on="0"/>
        <pt x="163" y="194" on="0"/>
        <pt x="146" y="184" on="1"/>
        <pt x="130" y="175" on="1"/>
        <pt x="120" y="282" on="1"/>
        <pt x="183" y="334" on="0"/>
        <pt x="243" y="334" on="1"/>
        <pt x="271" y="334" on="0"/>
        <pt x="423" y="290" on="0"/>
        <pt x="443" y="290" on="1"/>
        <pt x="480" y="290" on="0"/>
        <pt x="531" y="318" on="1"/>
        <pt x="548" y="328" on="1"/>
        <pt x="556" y="221" on="1"/>
        <pt x="537" y="202" on="0"/>
      </contour>
    </TTGlyph>
    <TTGlyph name="asterisk" xMin="162" yMin="357" xMax="511" yMax="720">
      <contour>
        <pt x="511" y="499" on="1"/>
        <pt x="388" y="499" on="1"/>
        <pt x="426" y="379" on="1"/>
        <pt x="353" y="357" on="1"/>
        <pt x="312" y="478" on="1"/>
        <pt x="209" y="399" on="1"/>
        <pt x="162" y="458" on="1"/>
        <pt x="267" y="536" on="1"/>
        <pt x="165" y="609" on="1"/>
        <pt x="211" y="672" on="1"/>
        <pt x="312" y="599" on="1"/>
        <pt x="351" y="720" on="1"/>
        <pt x="426" y="695" on="1"/>
        <pt x="388" y="573" on="1"/>
        <pt x="511" y="573" on="1"/>
      </contour>
    </TTGlyph>
    <TTGlyph name="at" xMin="76" yMin="-207" xMax="1020" yMax="727">
      <contour>
        <pt x="635" y="727" on="1"/>
        <pt x="737" y="727" on="0"/>
        <pt x="813" y="704" on="1"/>
        <pt x="954" y="663" on="0"/>
        <pt x="998" y="548" on="1"/>
        <pt x="1020" y="493" on="0"/>
        <pt x="1020" y="369" on="0"/>
        <pt x="1000" y="295" on="1"/>
        <pt x="957" y="130" on="0"/>
        <pt x="843" y="-10" on="0"/>
        <pt x="663" y="-10" on="0"/>
        <pt x="634" y="34" on="1"/>
        <pt x="601" y="18" on="0"/>
        <pt x="487" y="-12" on="0"/>
        <pt x="396" y="-12" on="0"/>
        <pt x="331" y="36" on="0"/>
        <pt x="319" y="73" on="1"/>
        <pt x="303" y="121" on="0"/>
        <pt x="303" y="209" on="0"/>
        <pt x="312" y="242" on="1"/>
        <pt x="366" y="512" on="0"/>
        <pt x="564" y="512" on="1"/>
        <pt x="612" y="512" on="0"/>
        <pt x="808" y="479" on="1"/>
        <pt x="742" y="191" on="0"/>
        <pt x="737" y="150" on="1"/>
        <pt x="733" y="117" on="0"/>
        <pt x="777" y="117" on="1"/>
        <pt x="806" y="117" on="0"/>
        <pt x="852" y="202" on="0"/>
        <pt x="872" y="282" on="1"/>
        <pt x="897" y="379" on="0"/>
        <pt x="897" y="455" on="0"/>
        <pt x="877" y="529" on="0"/>
        <pt x="847" y="556" on="1"/>
        <pt x="780" y="615" on="0"/>
        <pt x="447" y="615" on="0"/>
        <pt x="255" y="439" on="0"/>
        <pt x="215" y="271" on="1"/>
        <pt x="202" y="215" on="0"/>
        <pt x="202" y="128" on="0"/>
        <pt x="217" y="52" on="0"/>
        <pt x="261" y="-16" on="0"/>
        <pt x="295" y="-42" on="1"/>
        <pt x="366" y="-95" on="0"/>
        <pt x="497" y="-95" on="1"/>
        <pt x="634" y="-86" on="1"/>
        <pt x="608" y="-197" on="1"/>
        <pt x="511" y="-207" on="0"/>
        <pt x="466" y="-207" on="1"/>
        <pt x="373" y="-207" on="0"/>
        <pt x="225" y="-154" on="0"/>
        <pt x="134" y="-63" on="0"/>
        <pt x="106" y="-2" on="1"/>
        <pt x="77" y="61" on="0"/>
        <pt x="77" y="202" on="0"/>
        <pt x="91" y="271" on="1"/>
        <pt x="149" y="514" on="0"/>
        <pt x="413" y="727" on="0"/>
      </contour>
      <contour>
        <pt x="483" y="102" on="1"/>
        <pt x="540" y="102" on="0"/>
        <pt x="602" y="140" on="1"/>
        <pt x="606" y="180" on="0"/>
        <pt x="654" y="384" on="1"/>
        <pt x="590" y="398" on="0"/>
        <pt x="563" y="398" on="1"/>
        <pt x="482" y="398" on="0"/>
        <pt x="447" y="242" on="1"/>
        <pt x="438" y="205" on="0"/>
        <pt x="438" y="182" on="1"/>
        <pt x="438" y="103" on="0"/>
        <pt x="480" y="102" on="1"/>
        <pt x="481" y="102" on="0"/>
      </contour>
    </TTGlyph>
    <TTGlyph name="at.cap" xMin="67" yMin="-127" xMax="1011" yMax="807">
      <contour>
        <pt x="626" y="807" on="1"/>
        <pt x="728" y="807" on="0"/>
        <pt x="804" y="784" on="1"/>
        <pt x="945" y="743" on="0"/>
        <pt x="990" y="628" on="1"/>
        <pt x="1011" y="573" on="0"/>
        <pt x="1011" y="449" on="0"/>
        <pt x="991" y="375" on="1"/>
        <pt x="948" y="210" on="0"/>
        <pt x="834" y="70" on="0"/>
        <pt x="654" y="70" on="0"/>
        <pt x="625" y="114" on="1"/>
        <pt x="592" y="98" on="0"/>
        <pt x="478" y="68" on="0"/>
        <pt x="387" y="68" on="0"/>
        <pt x="322" y="116" on="0"/>
        <pt x="310" y="153" on="1"/>
        <pt x="294" y="201" on="0"/>
        <pt x="294" y="289" on="0"/>
        <pt x="303" y="322" on="1"/>
        <pt x="357" y="592" on="0"/>
        <pt x="555" y="592" on="1"/>
        <pt x="603" y="592" on="0"/>
        <pt x="799" y="559" on="1"/>
        <pt x="733" y="271" on="0"/>
        <pt x="728" y="230" on="1"/>
        <pt x="724" y="197" on="0"/>
        <pt x="768" y="197" on="1"/>
        <pt x="797" y="197" on="0"/>
        <pt x="843" y="282" on="0"/>
        <pt x="864" y="362" on="1"/>
        <pt x="888" y="459" on="0"/>
        <pt x="888" y="535" on="0"/>
        <pt x="868" y="609" on="0"/>
        <pt x="838" y="636" on="1"/>
        <pt x="771" y="695" on="0"/>
        <pt x="438" y="695" on="0"/>
        <pt x="246" y="519" on="0"/>
        <pt x="206" y="351" on="1"/>
        <pt x="193" y="295" on="0"/>
        <pt x="193" y="208" on="0"/>
        <pt x="208" y="132" on="0"/>
        <pt x="252" y="64" on="0"/>
        <pt x="286" y="38" on="1"/>
        <pt x="357" y="-15" on="0"/>
        <pt x="488" y="-15" on="1"/>
        <pt x="625" y="-6" on="1"/>
        <pt x="599" y="-117" on="1"/>
        <pt x="502" y="-127" on="0"/>
        <pt x="457" y="-127" on="1"/>
        <pt x="364" y="-127" on="0"/>
        <pt x="216" y="-74" on="0"/>
        <pt x="125" y="17" on="0"/>
        <pt x="97" y="78" on="1"/>
        <pt x="68" y="141" on="0"/>
        <pt x="68" y="282" on="0"/>
        <pt x="82" y="351" on="1"/>
        <pt x="140" y="594" on="0"/>
        <pt x="404" y="807" on="0"/>
      </contour>
      <contour>
        <pt x="474" y="182" on="1"/>
        <pt x="531" y="182" on="0"/>
        <pt x="593" y="220" on="1"/>
        <pt x="597" y="260" on="0"/>
        <pt x="645" y="464" on="1"/>
        <pt x="581" y="478" on="0"/>
        <pt x="554" y="478" on="1"/>
        <pt x="473" y="478" on="0"/>
        <pt x="438" y="322" on="1"/>
        <pt x="429" y="285" on="0"/>
        <pt x="429" y="262" on="1"/>
        <pt x="429" y="183" on="0"/>
        <pt x="471" y="182" on="1"/>
        <pt x="472" y="182" on="0"/>
      </contour>
    </TTGlyph>
    <TTGlyph name="atilde" xMin="80" yMin="-12" xMax="610" yMax="751">
      <contour>
        <pt x="221" y="-12" on="1"/>
        <pt x="148" y="-12" on="0"/>
        <pt x="80" y="87" on="0"/>
        <pt x="80" y="170" on="1"/>
        <pt x="80" y="285" on="0"/>
        <pt x="138" y="391" on="1"/>
        <pt x="167" y="444" on="0"/>
        <pt x="269" y="512" on="0"/>
        <pt x="334" y="512" on="1"/>
        <pt x="403" y="512" on="0"/>
        <pt x="538" y="488" on="1"/>
        <pt x="584" y="479" on="1"/>
        <pt x="509" y="156" on="1"/>
        <pt x="482" y="3" on="1"/>
        <pt x="349" y="-2" on="1"/>
        <pt x="358" y="59" on="0"/>
        <pt x="362" y="76" on="1"/>
        <pt x="321" y="21" on="0"/>
        <pt x="266" y="-2" on="1"/>
        <pt x="243" y="-12" on="0"/>
      </contour>
      <contour>
        <pt x="338" y="398" on="1"/>
        <pt x="300" y="398" on="0"/>
        <pt x="271" y="359" on="1"/>
        <pt x="216" y="285" on="0"/>
        <pt x="216" y="170" on="1"/>
        <pt x="216" y="135" on="0"/>
        <pt x="238" y="102" on="0"/>
        <pt x="285" y="102" on="0"/>
        <pt x="344" y="146" on="0"/>
        <pt x="364" y="168" on="1"/>
        <pt x="384" y="191" on="1"/>
        <pt x="430" y="384" on="1"/>
        <pt x="364" y="398" on="0"/>
      </contour>
      <contour>
        <pt x="578" y="626" on="0"/>
        <pt x="516" y="590" on="0"/>
        <pt x="468" y="590" on="0"/>
        <pt x="377" y="634" on="0"/>
        <pt x="364" y="634" on="1"/>
        <pt x="340" y="634" on="0"/>
        <pt x="294" y="604" on="1"/>
        <pt x="278" y="594" on="1"/>
        <pt x="275" y="686" on="1"/>
        <pt x="283" y="693" on="0"/>
        <pt x="307" y="715" on="0"/>
        <pt x="369" y="751" on="0"/>
        <pt x="421" y="751" on="0"/>
        <pt x="511" y="708" on="0"/>
        <pt x="521" y="708" on="1"/>
        <pt x="540" y="708" on="0"/>
        <pt x="590" y="738" on="1"/>
        <pt x="606" y="747" on="1"/>
        <pt x="610" y="654" on="1"/>
        <pt x="590" y="636" on="1"/>
      </contour>
    </TTGlyph>
    <TTGlyph name="b" xMin="58" yMin="-11" xMax="562" yMax="700">
      <contour>
        <pt x="412" y="512" on="1"/>
        <pt x="493" y="512" on="0"/>
        <pt x="562" y="419" on="0"/>
        <pt x="562" y="349" on="1"/>
        <pt x="562" y="192" on="0"/>
        <pt x="422" y="-11" on="0"/>
        <pt x="302" y="-11" on="1"/>
        <pt x="254" y="-11" on="0"/>
        <pt x="132" y="5" on="0"/>
        <pt x="95" y="14" on="1"/>
        <pt x="58" y="22" on="1"/>
        <pt x="214" y="700" on="1"/>
        <pt x="348" y="700" on="1"/>
        <pt x="293" y="461" on="1"/>
        <pt x="316" y="481" on="0"/>
        <pt x="385" y="512" on="0"/>
      </contour>
      <contour>
        <pt x="213" y="113" on="1"/>
        <pt x="257" y="103" on="0"/>
        <pt x="332" y="103" on="0"/>
        <pt x="384" y="153" on="0"/>
        <pt x="398" y="191" on="1"/>
        <pt x="425" y="268" on="0"/>
        <pt x="425" y="398" on="0"/>
        <pt x="372" y="398" on="1"/>
        <pt x="352" y="398" on="0"/>
        <pt x="300" y="373" on="0"/>
        <pt x="284" y="360" on="1"/>
        <pt x="267" y="348" on="1"/>
      </contour>
    </TTGlyph>
    <TTGlyph name="backslash" xMin="186" yMin="0" xMax="458" yMax="702">
      <contour>
        <pt x="458" y="0" on="1"/>
        <pt x="319" y="0" on="1"/>
        <pt x="186" y="702" on="1"/>
        <pt x="326" y="702" on="1"/>
      </contour>
    </TTGlyph>
    <TTGlyph name="bar" xMin="157" yMin="-210" xMax="291" yMax="700">
      <contour>
        <pt x="157" y="-210" on="1"/>
        <pt x="157" y="700" on="1"/>
        <pt x="291" y="700" on="1"/>
        <pt x="291" y="-210" on="1"/>
      </contour>
    </TTGlyph>
    <TTGlyph name="braceleft" xMin="63" yMin="-133" xMax="458" yMax="759">
      <contour>
        <pt x="204" y="313" on="1"/>
        <pt x="265" y="279" on="0"/>
        <pt x="265" y="227" on="1"/>
        <pt x="265" y="200" on="0"/>
        <pt x="220" y="48" on="0"/>
        <pt x="220" y="30" on="1"/>
        <pt x="220" y="-18" on="0"/>
        <pt x="278" y="-18" on="1"/>
        <pt x="247" y="-133" on="1"/>
        <pt x="174" y="-133" on="0"/>
        <pt x="88" y="-67" on="0"/>
        <pt x="88" y="-8" on="1"/>
        <pt x="88" y="13" on="0"/>
        <pt x="130" y="170" on="0"/>
        <pt x="130" y="190" on="1"/>
        <pt x="130" y="240" on="0"/>
        <pt x="63" y="275" on="1"/>
        <pt x="87" y="370" on="1"/>
        <pt x="148" y="386" on="0"/>
        <pt x="187" y="421" on="0"/>
        <pt x="196" y="457" on="1"/>
        <pt x="225" y="603" on="1"/>
        <pt x="250" y="687" on="0"/>
        <pt x="356" y="755" on="0"/>
        <pt x="458" y="759" on="1"/>
        <pt x="436" y="644" on="1"/>
        <pt x="395" y="640" on="0"/>
        <pt x="355" y="604" on="0"/>
        <pt x="347" y="572" on="1"/>
        <pt x="323" y="446" on="1"/>
        <pt x="309" y="389" on="0"/>
        <pt x="256" y="331" on="0"/>
      </contour>
    </TTGlyph>
    <TTGlyph name="braceleft.cap" xMin="70" yMin="-103" xMax="465" yMax="789">
      <contour>
        <pt x="211" y="343" on="1"/>
        <pt x="272" y="309" on="0"/>
        <pt x="272" y="257" on="1"/>
        <pt x="272" y="230" on="0"/>
        <pt x="227" y="78" on="0"/>
        <pt x="227" y="60" on="1"/>
        <pt x="227" y="12" on="0"/>
        <pt x="285" y="12" on="1"/>
        <pt x="254" y="-103" on="1"/>
        <pt x="181" y="-103" on="0"/>
        <pt x="95" y="-37" on="0"/>
        <pt x="95" y="22" on="1"/>
        <pt x="95" y="43" on="0"/>
        <pt x="137" y="200" on="0"/>
        <pt x="137" y="220" on="1"/>
        <pt x="137" y="270" on="0"/>
        <pt x="70" y="305" on="1"/>
        <pt x="94" y="400" on="1"/>
        <pt x="155" y="416" on="0"/>
        <pt x="194" y="451" on="0"/>
        <pt x="203" y="487" on="1"/>
        <pt x="232" y="633" on="1"/>
        <pt x="257" y="717" on="0"/>
        <pt x="363" y="785" on="0"/>
        <pt x="465" y="789" on="1"/>
        <pt x="443" y="674" on="1"/>
        <pt x="402" y="670" on="0"/>
        <pt x="362" y="634" on="0"/>
        <pt x="354" y="602" on="1"/>
        <pt x="330" y="476" on="1"/>
        <pt x="316" y="419" on="0"/>
        <pt x="263" y="361" on="0"/>
      </contour>
    </TTGlyph>
    <TTGlyph name="braceright" xMin="-27" yMin="-136" xMax="368" yMax="756">
      <contour>
        <pt x="227" y="310" on="1"/>
        <pt x="166" y="344" on="0"/>
        <pt x="166" y="396" on="1"/>
        <pt x="166" y="423" on="0"/>
        <pt x="211" y="575" on="0"/>
        <pt x="211" y="593" on="1"/>
        <pt x="211" y="641" on="0"/>
        <pt x="153" y="641" on="1"/>
        <pt x="184" y="756" on="1"/>
        <pt x="257" y="756" on="0"/>
        <pt x="343" y="690" on="0"/>
        <pt x="343" y="631" on="1"/>
        <pt x="343" y="610" on="0"/>
        <pt x="301" y="453" on="0"/>
        <pt x="301" y="433" on="1"/>
        <pt x="301" y="383" on="0"/>
        <pt x="368" y="348" on="1"/>
        <pt x="344" y="253" on="1"/>
        <pt x="283" y="237" on="0"/>
        <pt x="244" y="202" on="0"/>
        <pt x="235" y="166" on="1"/>
        <pt x="206" y="20" on="1"/>
        <pt x="181" y="-64" on="0"/>
        <pt x="75" y="-132" on="0"/>
        <pt x="-27" y="-136" on="1"/>
        <pt x="-5" y="-21" on="1"/>
        <pt x="36" y="-17" on="0"/>
        <pt x="76" y="19" on="0"/>
        <pt x="84" y="51" on="1"/>
        <pt x="108" y="177" on="1"/>
        <pt x="122" y="234" on="0"/>
        <pt x="175" y="292" on="0"/>
      </contour>
    </TTGlyph>
    <TTGlyph name="braceright.cap" xMin="-20" yMin="-106" xMax="375" yMax="786">
      <contour>
        <pt x="234" y="340" on="1"/>
        <pt x="173" y="374" on="0"/>
        <pt x="173" y="426" on="1"/>
        <pt x="173" y="453" on="0"/>
        <pt x="218" y="605" on="0"/>
        <pt x="218" y="623" on="1"/>
        <pt x="218" y="671" on="0"/>
        <pt x="160" y="671" on="1"/>
        <pt x="191" y="786" on="1"/>
        <pt x="264" y="786" on="0"/>
        <pt x="350" y="720" on="0"/>
        <pt x="350" y="661" on="1"/>
        <pt x="350" y="640" on="0"/>
        <pt x="308" y="483" on="0"/>
        <pt x="308" y="463" on="1"/>
        <pt x="308" y="413" on="0"/>
        <pt x="375" y="378" on="1"/>
        <pt x="351" y="283" on="1"/>
        <pt x="290" y="267" on="0"/>
        <pt x="251" y="232" on="0"/>
        <pt x="242" y="196" on="1"/>
        <pt x="213" y="50" on="1"/>
        <pt x="188" y="-34" on="0"/>
        <pt x="82" y="-102" on="0"/>
        <pt x="-20" y="-106" on="1"/>
        <pt x="2" y="9" on="1"/>
        <pt x="43" y="13" on="0"/>
        <pt x="83" y="49" on="0"/>
        <pt x="91" y="81" on="1"/>
        <pt x="115" y="207" on="1"/>
        <pt x="129" y="264" on="0"/>
        <pt x="182" y="322" on="0"/>
      </contour>
    </TTGlyph>
    <TTGlyph name="bracketleft" xMin="-15" yMin="-122" xMax="416" yMax="747">
      <contour>
        <pt x="187" y="747" on="1"/>
        <pt x="416" y="747" on="1"/>
        <pt x="388" y="633" on="1"/>
        <pt x="300" y="633" on="1"/>
        <pt x="151" y="-8" on="1"/>
        <pt x="239" y="-8" on="1"/>
        <pt x="211" y="-122" on="1"/>
        <pt x="-15" y="-122" on="1"/>
      </contour>
    </TTGlyph>
    <TTGlyph name="bracketleft.cap" xMin="-9" yMin="-92" xMax="422" yMax="777">
      <contour>
        <pt x="193" y="777" on="1"/>
        <pt x="422" y="777" on="1"/>
        <pt x="394" y="663" on="1"/>
        <pt x="306" y="663" on="1"/>
        <pt x="157" y="22" on="1"/>
        <pt x="245" y="22" on="1"/>
        <pt x="217" y="-92" on="1"/>
        <pt x="-9" y="-92" on="1"/>
      </contour>
    </TTGlyph>
    <TTGlyph name="bracketright" xMin="-26" yMin="-122" xMax="405" yMax="747">
      <contour>
        <pt x="203" y="-122" on="1"/>
        <pt x="-26" y="-122" on="1"/>
        <pt x="2" y="-8" on="1"/>
        <pt x="90" y="-8" on="1"/>
        <pt x="239" y="633" on="1"/>
        <pt x="151" y="633" on="1"/>
        <pt x="179" y="747" on="1"/>
        <pt x="405" y="747" on="1"/>
      </contour>
    </TTGlyph>
    <TTGlyph name="bracketright.cap" xMin="-19" yMin="-92" xMax="412" yMax="777">
      <contour>
        <pt x="210" y="-92" on="1"/>
        <pt x="-19" y="-92" on="1"/>
        <pt x="9" y="22" on="1"/>
        <pt x="97" y="22" on="1"/>
        <pt x="246" y="663" on="1"/>
        <pt x="158" y="663" on="1"/>
        <pt x="186" y="777" on="1"/>
        <pt x="412" y="777" on="1"/>
      </contour>
    </TTGlyph>
    <TTGlyph name="breve" xMin="207" yMin="590" xMax="557" yMax="746">
      <contour>
        <pt x="331" y="739" on="1"/>
        <pt x="331" y="702" on="0"/>
        <pt x="420" y="702" on="0"/>
        <pt x="436" y="746" on="1"/>
        <pt x="557" y="746" on="1"/>
        <pt x="505" y="590" on="0"/>
        <pt x="339" y="590" on="1"/>
        <pt x="207" y="590" on="0"/>
        <pt x="207" y="710" on="1"/>
        <pt x="207" y="727" on="0"/>
        <pt x="210" y="746" on="1"/>
        <pt x="331" y="746" on="1"/>
        <pt x="331" y="742" on="0"/>
      </contour>
    </TTGlyph>
    <TTGlyph name="breve.cap" xMin="259" yMin="783" xMax="593" yMax="927">
      <contour>
        <pt x="382" y="918" on="1"/>
        <pt x="382" y="888" on="0"/>
        <pt x="456" y="888" on="0"/>
        <pt x="471" y="927" on="1"/>
        <pt x="593" y="927" on="1"/>
        <pt x="569" y="856" on="0"/>
        <pt x="479" y="783" on="0"/>
        <pt x="322" y="783" on="0"/>
        <pt x="259" y="850" on="0"/>
        <pt x="259" y="900" on="1"/>
        <pt x="259" y="913" on="0"/>
        <pt x="261" y="927" on="1"/>
        <pt x="383" y="927" on="1"/>
        <pt x="382" y="922" on="0"/>
      </contour>
    </TTGlyph>
    <TTGlyph name="brokenbar" xMin="157" yMin="-210" xMax="291" yMax="700">
      <contour>
        <pt x="157" y="700" on="1"/>
        <pt x="291" y="700" on="1"/>
        <pt x="291" y="328" on="1"/>
        <pt x="157" y="328" on="1"/>
      </contour>
      <contour>
        <pt x="157" y="170" on="1"/>
        <pt x="291" y="170" on="1"/>
        <pt x="291" y="-210" on="1"/>
        <pt x="157" y="-210" on="1"/>
      </contour>
    </TTGlyph>
    <TTGlyph name="bullet" xMin="160" yMin="100" xMax="410" yMax="380">
      <contour>
        <pt x="160" y="100" on="1"/>
        <pt x="160" y="380" on="1"/>
        <pt x="410" y="380" on="1"/>
        <pt x="410" y="100" on="1"/>
      </contour>
    </TTGlyph>
    <TTGlyph name="c" xMin="82" yMin="-12" xMax="492" yMax="512">
      <contour>
        <pt x="343" y="512" on="1"/>
        <pt x="403" y="512" on="0"/>
        <pt x="470" y="488" on="1"/>
        <pt x="492" y="481" on="1"/>
        <pt x="458" y="383" on="1"/>
        <pt x="381" y="396" on="0"/>
        <pt x="337" y="396" on="1"/>
        <pt x="280" y="396" on="0"/>
        <pt x="218" y="271" on="0"/>
        <pt x="218" y="104" on="0"/>
        <pt x="294" y="104" on="1"/>
        <pt x="401" y="112" on="1"/>
        <pt x="390" y="13" on="1"/>
        <pt x="317" y="-12" on="0"/>
        <pt x="171" y="-12" on="0"/>
        <pt x="82" y="80" on="0"/>
        <pt x="82" y="162" on="1"/>
        <pt x="82" y="315" on="0"/>
        <pt x="217" y="512" on="0"/>
      </contour>
    </TTGlyph>
    <TTGlyph name="cacute" xMin="82" yMin="-12" xMax="532" yMax="774">
      <contour>
        <pt x="343" y="512" on="1"/>
        <pt x="403" y="512" on="0"/>
        <pt x="470" y="488" on="1"/>
        <pt x="492" y="481" on="1"/>
        <pt x="458" y="383" on="1"/>
        <pt x="381" y="396" on="0"/>
        <pt x="337" y="396" on="1"/>
        <pt x="280" y="396" on="0"/>
        <pt x="218" y="271" on="0"/>
        <pt x="218" y="104" on="0"/>
        <pt x="294" y="104" on="1"/>
        <pt x="401" y="112" on="1"/>
        <pt x="390" y="13" on="1"/>
        <pt x="317" y="-12" on="0"/>
        <pt x="171" y="-12" on="0"/>
        <pt x="82" y="80" on="0"/>
        <pt x="82" y="162" on="1"/>
        <pt x="82" y="315" on="0"/>
        <pt x="217" y="512" on="0"/>
      </contour>
      <contour>
        <pt x="268" y="576" on="1"/>
        <pt x="258" y="683" on="1"/>
        <pt x="522" y="774" on="1"/>
        <pt x="532" y="654" on="1"/>
      </contour>
    </TTGlyph>
    <TTGlyph name="caron" xMin="395" yMin="575" xMax="729" yMax="750">
      <contour>
        <pt x="562" y="575" on="1"/>
        <pt x="477" y="575" on="1"/>
        <pt x="395" y="750" on="1"/>
        <pt x="518" y="750" on="1"/>
        <pt x="547" y="684" on="1"/>
        <pt x="600" y="750" on="1"/>
        <pt x="729" y="750" on="1"/>
      </contour>
    </TTGlyph>
    <TTGlyph name="caron.cap" xMin="248" yMin="776" xMax="593" yMax="927">
      <contour>
        <pt x="593" y="927" on="1"/>
        <pt x="433" y="776" on="1"/>
        <pt x="341" y="776" on="1"/>
        <pt x="248" y="927" on="1"/>
        <pt x="380" y="927" on="1"/>
        <pt x="409" y="870" on="1"/>
        <pt x="462" y="927" on="1"/>
      </contour>
    </TTGlyph>
    <TTGlyph name="ccaron" xMin="82" yMin="-12" xMax="579" yMax="750">
      <contour>
        <pt x="412" y="575" on="1"/>
        <pt x="327" y="575" on="1"/>
        <pt x="245" y="750" on="1"/>
        <pt x="368" y="750" on="1"/>
        <pt x="397" y="684" on="1"/>
        <pt x="450" y="750" on="1"/>
        <pt x="579" y="750" on="1"/>
      </contour>
      <contour>
        <pt x="343" y="512" on="1"/>
        <pt x="403" y="512" on="0"/>
        <pt x="470" y="488" on="1"/>
        <pt x="492" y="481" on="1"/>
        <pt x="458" y="383" on="1"/>
        <pt x="381" y="396" on="0"/>
        <pt x="337" y="396" on="1"/>
        <pt x="280" y="396" on="0"/>
        <pt x="218" y="271" on="0"/>
        <pt x="218" y="104" on="0"/>
        <pt x="294" y="104" on="1"/>
        <pt x="401" y="112" on="1"/>
        <pt x="390" y="13" on="1"/>
        <pt x="317" y="-12" on="0"/>
        <pt x="171" y="-12" on="0"/>
        <pt x="82" y="80" on="0"/>
        <pt x="82" y="162" on="1"/>
        <pt x="82" y="315" on="0"/>
        <pt x="217" y="512" on="0"/>
      </contour>
    </TTGlyph>
    <TTGlyph name="ccedilla" xMin="83" yMin="-229" xMax="493" yMax="512">
      <contour>
        <pt x="262" y="-33" on="1"/>
        <pt x="355" y="-33" on="0"/>
        <pt x="355" y="-94" on="1"/>
        <pt x="355" y="-107" on="0"/>
        <pt x="351" y="-124" on="1"/>
        <pt x="326" y="-229" on="0"/>
        <pt x="222" y="-229" on="1"/>
        <pt x="182" y="-229" on="0"/>
        <pt x="150" y="-221" on="1"/>
        <pt x="138" y="-218" on="1"/>
        <pt x="158" y="-137" on="1"/>
        <pt x="188" y="-138" on="0"/>
        <pt x="204" y="-138" on="1"/>
        <pt x="240" y="-138" on="0"/>
        <pt x="246" y="-114" on="1"/>
        <pt x="249" y="-102" on="0"/>
        <pt x="234" y="-94" on="0"/>
        <pt x="215" y="-94" on="1"/>
        <pt x="193" y="-94" on="1"/>
        <pt x="212" y="-9" on="1"/>
        <pt x="152" y="1" on="0"/>
        <pt x="83" y="90" on="0"/>
        <pt x="83" y="162" on="1"/>
        <pt x="83" y="315" on="0"/>
        <pt x="218" y="512" on="0"/>
        <pt x="344" y="512" on="1"/>
        <pt x="404" y="512" on="0"/>
        <pt x="472" y="488" on="1"/>
        <pt x="493" y="481" on="1"/>
        <pt x="459" y="383" on="1"/>
        <pt x="382" y="396" on="0"/>
        <pt x="338" y="396" on="1"/>
        <pt x="281" y="396" on="0"/>
        <pt x="219" y="271" on="0"/>
        <pt x="219" y="104" on="0"/>
        <pt x="295" y="104" on="1"/>
        <pt x="402" y="112" on="1"/>
        <pt x="391" y="13" on="1"/>
        <pt x="328" y="-9" on="0"/>
        <pt x="262" y="-12" on="1"/>
        <pt x="256" y="-33" on="1"/>
      </contour>
    </TTGlyph>
    <TTGlyph name="ccircumflex" xMin="82" yMin="-12" xMax="528" yMax="750">
      <contour>
        <pt x="343" y="512" on="1"/>
        <pt x="403" y="512" on="0"/>
        <pt x="470" y="488" on="1"/>
        <pt x="492" y="481" on="1"/>
        <pt x="458" y="383" on="1"/>
        <pt x="381" y="396" on="0"/>
        <pt x="337" y="396" on="1"/>
        <pt x="280" y="396" on="0"/>
        <pt x="218" y="271" on="0"/>
        <pt x="218" y="104" on="0"/>
        <pt x="294" y="104" on="1"/>
        <pt x="401" y="112" on="1"/>
        <pt x="390" y="13" on="1"/>
        <pt x="317" y="-12" on="0"/>
        <pt x="171" y="-12" on="0"/>
        <pt x="82" y="80" on="0"/>
        <pt x="82" y="162" on="1"/>
        <pt x="82" y="315" on="0"/>
        <pt x="217" y="512" on="0"/>
      </contour>
      <contour>
        <pt x="194" y="575" on="1"/>
        <pt x="362" y="750" on="1"/>
        <pt x="442" y="750" on="1"/>
        <pt x="528" y="575" on="1"/>
        <pt x="406" y="575" on="1"/>
        <pt x="382" y="639" on="1"/>
        <pt x="324" y="575" on="1"/>
      </contour>
    </TTGlyph>
    <TTGlyph name="cdotaccent" xMin="82" yMin="-12" xMax="492" yMax="719">
      <contour>
        <pt x="343" y="512" on="1"/>
        <pt x="403" y="512" on="0"/>
        <pt x="470" y="488" on="1"/>
        <pt x="492" y="481" on="1"/>
        <pt x="458" y="383" on="1"/>
        <pt x="381" y="396" on="0"/>
        <pt x="337" y="396" on="1"/>
        <pt x="280" y="396" on="0"/>
        <pt x="218" y="271" on="0"/>
        <pt x="218" y="104" on="0"/>
        <pt x="294" y="104" on="1"/>
        <pt x="401" y="112" on="1"/>
        <pt x="390" y="13" on="1"/>
        <pt x="317" y="-12" on="0"/>
        <pt x="171" y="-12" on="0"/>
        <pt x="82" y="80" on="0"/>
        <pt x="82" y="162" on="1"/>
        <pt x="82" y="315" on="0"/>
        <pt x="217" y="512" on="0"/>
      </contour>
      <contour>
        <pt x="300" y="582" on="1"/>
        <pt x="332" y="719" on="1"/>
        <pt x="448" y="719" on="1"/>
        <pt x="416" y="582" on="1"/>
      </contour>
    </TTGlyph>
    <TTGlyph name="cedilla" xMin="292" yMin="-229" xMax="509" yMax="5">
      <contour>
        <pt x="416" y="-33" on="1"/>
        <pt x="509" y="-33" on="0"/>
        <pt x="509" y="-94" on="1"/>
        <pt x="509" y="-107" on="0"/>
        <pt x="505" y="-124" on="1"/>
        <pt x="480" y="-229" on="0"/>
        <pt x="376" y="-229" on="1"/>
        <pt x="336" y="-229" on="0"/>
        <pt x="304" y="-221" on="1"/>
        <pt x="292" y="-218" on="1"/>
        <pt x="312" y="-137" on="1"/>
        <pt x="342" y="-138" on="0"/>
        <pt x="358" y="-138" on="1"/>
        <pt x="394" y="-138" on="0"/>
        <pt x="400" y="-114" on="1"/>
        <pt x="403" y="-102" on="0"/>
        <pt x="388" y="-94" on="0"/>
        <pt x="369" y="-94" on="1"/>
        <pt x="347" y="-94" on="1"/>
        <pt x="369" y="5" on="1"/>
        <pt x="421" y="5" on="1"/>
        <pt x="410" y="-33" on="1"/>
      </contour>
    </TTGlyph>
    <TTGlyph name="cent" xMin="145" yMin="-74" xMax="554" yMax="570">
      <contour>
        <pt x="170" y="74" on="0"/>
        <pt x="148" y="136" on="0"/>
        <pt x="146" y="180" on="0"/>
        <pt x="146" y="218" on="0"/>
        <pt x="155" y="250" on="1"/>
        <pt x="181" y="353" on="0"/>
        <pt x="297" y="463" on="0"/>
        <pt x="379" y="468" on="1"/>
        <pt x="402" y="570" on="1"/>
        <pt x="510" y="570" on="1"/>
        <pt x="484" y="465" on="1"/>
        <pt x="554" y="455" on="1"/>
        <pt x="520" y="343" on="1"/>
        <pt x="449" y="346" on="0"/>
        <pt x="354" y="346" on="0"/>
        <pt x="297" y="303" on="0"/>
        <pt x="283" y="250" on="1"/>
        <pt x="278" y="228" on="0"/>
        <pt x="278" y="189" on="0"/>
        <pt x="288" y="176" on="1"/>
        <pt x="306" y="153" on="0"/>
        <pt x="370" y="153" on="1"/>
        <pt x="478" y="157" on="1"/>
        <pt x="457" y="45" on="1"/>
        <pt x="420" y="39" on="0"/>
        <pt x="382" y="36" on="1"/>
        <pt x="357" y="-74" on="1"/>
        <pt x="251" y="-74" on="1"/>
        <pt x="274" y="29" on="1"/>
        <pt x="230" y="32" on="0"/>
      </contour>
    </TTGlyph>
    <TTGlyph name="circumflex" xMin="353" yMin="575" xMax="687" yMax="750">
      <contour>
        <pt x="353" y="575" on="1"/>
        <pt x="521" y="750" on="1"/>
        <pt x="601" y="750" on="1"/>
        <pt x="687" y="575" on="1"/>
        <pt x="565" y="575" on="1"/>
        <pt x="541" y="639" on="1"/>
        <pt x="483" y="575" on="1"/>
      </contour>
    </TTGlyph>
    <TTGlyph name="circumflex.cap.001" xMin="213" yMin="779" xMax="565" yMax="931">
      <contour>
        <pt x="213" y="779" on="1"/>
        <pt x="389" y="931" on="1"/>
        <pt x="469" y="931" on="1"/>
        <pt x="565" y="779" on="1"/>
        <pt x="443" y="779" on="1"/>
        <pt x="417" y="834" on="1"/>
        <pt x="355" y="779" on="1"/>
      </contour>
    </TTGlyph>
    <TTGlyph name="colon" xMin="10" yMin="0" xMax="251" yMax="449">
      <contour>
        <pt x="80" y="296" on="1"/>
        <pt x="115" y="449" on="1"/>
        <pt x="251" y="449" on="1"/>
        <pt x="216" y="296" on="1"/>
      </contour>
      <contour>
        <pt x="10" y="0" on="1"/>
        <pt x="45" y="153" on="1"/>
        <pt x="181" y="153" on="1"/>
        <pt x="146" y="0" on="1"/>
      </contour>
    </TTGlyph>
    <TTGlyph name="comma" xMin="-53" yMin="-130" xMax="211" yMax="153">
      <contour>
        <pt x="58" y="-130" on="1"/>
        <pt x="-53" y="-130" on="1"/>
        <pt x="64" y="153" on="1"/>
        <pt x="211" y="153" on="1"/>
      </contour>
    </TTGlyph>
    <TTGlyph name="commaaccent" xMin="-77" yMin="-309" xMax="143" yMax="-72">
      <contour>
        <pt x="-77" y="-309" on="1"/>
        <pt x="20" y="-72" on="1"/>
        <pt x="143" y="-72" on="1"/>
        <pt x="36" y="-309" on="1"/>
      </contour>
    </TTGlyph>
    <TTGlyph name="copyright" xMin="145" yMin="150" xMax="696" yMax="718">
      <contour>
        <pt x="302" y="150" on="0"/>
        <pt x="145" y="314" on="0"/>
        <pt x="145" y="557" on="0"/>
        <pt x="301" y="718" on="0"/>
        <pt x="544" y="718" on="0"/>
        <pt x="696" y="553" on="0"/>
        <pt x="696" y="311" on="0"/>
        <pt x="544" y="150" on="0"/>
      </contour>
      <contour>
        <pt x="207" y="527" on="0"/>
        <pt x="207" y="341" on="0"/>
        <pt x="329" y="210" on="0"/>
        <pt x="512" y="210" on="0"/>
        <pt x="634" y="340" on="0"/>
        <pt x="634" y="526" on="0"/>
        <pt x="511" y="658" on="0"/>
        <pt x="330" y="658" on="0"/>
      </contour>
      <contour>
        <pt x="513" y="287" on="1"/>
        <pt x="485" y="269" on="0"/>
        <pt x="360" y="269" on="0"/>
        <pt x="301" y="341" on="0"/>
        <pt x="301" y="528" on="0"/>
        <pt x="362" y="598" on="0"/>
        <pt x="433" y="598" on="1"/>
        <pt x="472" y="598" on="0"/>
        <pt x="504" y="586" on="1"/>
        <pt x="513" y="583" on="1"/>
        <pt x="506" y="497" on="1"/>
        <pt x="471" y="503" on="0"/>
        <pt x="419" y="503" on="0"/>
        <pt x="404" y="475" on="0"/>
        <pt x="404" y="439" on="1"/>
        <pt x="404" y="364" on="0"/>
        <pt x="439" y="364" on="1"/>
        <pt x="506" y="369" on="1"/>
      </contour>
    </TTGlyph>
    <TTGlyph name="currency" xMin="89" yMin="2" xMax="589" yMax="502">
      <contour>
        <pt x="381" y="54" on="0"/>
        <pt x="296" y="54" on="0"/>
        <pt x="254" y="75" on="1"/>
        <pt x="181" y="2" on="1"/>
        <pt x="89" y="94" on="1"/>
        <pt x="162" y="167" on="1"/>
        <pt x="142" y="209" on="0"/>
        <pt x="142" y="294" on="0"/>
        <pt x="162" y="337" on="1"/>
        <pt x="89" y="410" on="1"/>
        <pt x="181" y="502" on="1"/>
        <pt x="254" y="429" on="1"/>
        <pt x="296" y="449" on="0"/>
        <pt x="381" y="449" on="0"/>
        <pt x="424" y="429" on="1"/>
        <pt x="497" y="502" on="1"/>
        <pt x="589" y="410" on="1"/>
        <pt x="516" y="337" on="1"/>
        <pt x="536" y="294" on="0"/>
        <pt x="536" y="209" on="0"/>
        <pt x="516" y="167" on="1"/>
        <pt x="589" y="94" on="1"/>
        <pt x="497" y="2" on="1"/>
        <pt x="424" y="75" on="1"/>
      </contour>
      <contour>
        <pt x="308" y="177" on="0"/>
        <pt x="370" y="177" on="0"/>
        <pt x="414" y="221" on="0"/>
        <pt x="414" y="283" on="0"/>
        <pt x="370" y="327" on="0"/>
        <pt x="308" y="327" on="0"/>
        <pt x="264" y="283" on="0"/>
        <pt x="264" y="221" on="0"/>
      </contour>
    </TTGlyph>
    <TTGlyph name="d" xMin="80" yMin="-12" xMax="635" yMax="700">
      <contour>
        <pt x="224" y="-12" on="1"/>
        <pt x="153" y="-12" on="0"/>
        <pt x="80" y="80" on="0"/>
        <pt x="80" y="250" on="0"/>
        <pt x="135" y="404" on="0"/>
        <pt x="253" y="511" on="0"/>
        <pt x="332" y="511" on="1"/>
        <pt x="366" y="511" on="0"/>
        <pt x="432" y="495" on="1"/>
        <pt x="452" y="490" on="1"/>
        <pt x="501" y="700" on="1"/>
        <pt x="635" y="700" on="1"/>
        <pt x="473" y="0" on="1"/>
        <pt x="343" y="0" on="1"/>
        <pt x="352" y="52" on="1"/>
        <pt x="332" y="29" on="0"/>
        <pt x="256" y="-12" on="0"/>
      </contour>
      <contour>
        <pt x="428" y="383" on="1"/>
        <pt x="370" y="397" on="0"/>
        <pt x="297" y="397" on="0"/>
        <pt x="242" y="318" on="0"/>
        <pt x="216" y="214" on="0"/>
        <pt x="216" y="166" on="1"/>
        <pt x="216" y="102" on="0"/>
        <pt x="267" y="102" on="1"/>
        <pt x="283" y="102" on="0"/>
        <pt x="340" y="138" on="0"/>
        <pt x="360" y="156" on="1"/>
        <pt x="380" y="174" on="1"/>
      </contour>
    </TTGlyph>
    <TTGlyph name="dagger" xMin="112" yMin="-70" xMax="541" yMax="668">
      <contour>
        <pt x="112" y="362" on="1"/>
        <pt x="142" y="497" on="1"/>
        <pt x="280" y="497" on="1"/>
        <pt x="320" y="668" on="1"/>
        <pt x="445" y="668" on="1"/>
        <pt x="405" y="497" on="1"/>
        <pt x="541" y="497" on="1"/>
        <pt x="512" y="362" on="1"/>
        <pt x="374" y="362" on="1"/>
        <pt x="271" y="-70" on="1"/>
        <pt x="147" y="-70" on="1"/>
        <pt x="248" y="362" on="1"/>
      </contour>
    </TTGlyph>
    <TTGlyph name="daggerdbl" xMin="59" yMin="-70" xMax="550" yMax="668">
      <contour>
        <pt x="157" y="-70" on="1"/>
        <pt x="196" y="100" on="1"/>
        <pt x="59" y="100" on="1"/>
        <pt x="90" y="235" on="1"/>
        <pt x="228" y="235" on="1"/>
        <pt x="258" y="362" on="1"/>
        <pt x="122" y="362" on="1"/>
        <pt x="152" y="497" on="1"/>
        <pt x="290" y="496" on="1"/>
        <pt x="330" y="668" on="1"/>
        <pt x="455" y="668" on="1"/>
        <pt x="415" y="497" on="1"/>
        <pt x="550" y="497" on="1"/>
        <pt x="521" y="362" on="1"/>
        <pt x="384" y="362" on="1"/>
        <pt x="353" y="235" on="1"/>
        <pt x="491" y="235" on="1"/>
        <pt x="459" y="100" on="1"/>
        <pt x="321" y="100" on="1"/>
        <pt x="281" y="-70" on="1"/>
      </contour>
    </TTGlyph>
    <TTGlyph name="dcaron" xMin="80" yMin="-12" xMax="804" yMax="700">
      <contour>
        <pt x="804" y="680" on="1"/>
        <pt x="744" y="429" on="1"/>
        <pt x="621" y="429" on="1"/>
        <pt x="682" y="680" on="1"/>
      </contour>
      <contour>
        <pt x="224" y="-12" on="1"/>
        <pt x="153" y="-12" on="0"/>
        <pt x="80" y="80" on="0"/>
        <pt x="80" y="250" on="0"/>
        <pt x="135" y="404" on="0"/>
        <pt x="253" y="511" on="0"/>
        <pt x="332" y="511" on="1"/>
        <pt x="366" y="511" on="0"/>
        <pt x="432" y="495" on="1"/>
        <pt x="452" y="490" on="1"/>
        <pt x="501" y="700" on="1"/>
        <pt x="635" y="700" on="1"/>
        <pt x="473" y="0" on="1"/>
        <pt x="343" y="0" on="1"/>
        <pt x="352" y="52" on="1"/>
        <pt x="332" y="29" on="0"/>
        <pt x="256" y="-12" on="0"/>
      </contour>
      <contour>
        <pt x="428" y="383" on="1"/>
        <pt x="370" y="397" on="0"/>
        <pt x="297" y="397" on="0"/>
        <pt x="242" y="318" on="0"/>
        <pt x="216" y="214" on="0"/>
        <pt x="216" y="166" on="1"/>
        <pt x="216" y="102" on="0"/>
        <pt x="267" y="102" on="1"/>
        <pt x="283" y="102" on="0"/>
        <pt x="340" y="138" on="0"/>
        <pt x="360" y="156" on="1"/>
        <pt x="380" y="174" on="1"/>
      </contour>
    </TTGlyph>
    <TTGlyph name="dcroat" xMin="80" yMin="-12" xMax="681" yMax="700">
      <contour>
        <pt x="224" y="-12" on="1"/>
        <pt x="153" y="-12" on="0"/>
        <pt x="80" y="80" on="0"/>
        <pt x="80" y="250" on="0"/>
        <pt x="135" y="404" on="0"/>
        <pt x="253" y="511" on="0"/>
        <pt x="332" y="511" on="1"/>
        <pt x="366" y="511" on="0"/>
        <pt x="432" y="495" on="1"/>
        <pt x="452" y="490" on="1"/>
        <pt x="465" y="547" on="1"/>
        <pt x="345" y="547" on="1"/>
        <pt x="372" y="666" on="1"/>
        <pt x="493" y="666" on="1"/>
        <pt x="501" y="700" on="1"/>
        <pt x="635" y="700" on="1"/>
        <pt x="627" y="666" on="1"/>
        <pt x="681" y="666" on="1"/>
        <pt x="653" y="547" on="1"/>
        <pt x="599" y="547" on="1"/>
        <pt x="473" y="0" on="1"/>
        <pt x="343" y="0" on="1"/>
        <pt x="352" y="52" on="1"/>
        <pt x="332" y="29" on="0"/>
        <pt x="256" y="-12" on="0"/>
      </contour>
      <contour>
        <pt x="428" y="383" on="1"/>
        <pt x="370" y="397" on="0"/>
        <pt x="297" y="397" on="0"/>
        <pt x="242" y="318" on="0"/>
        <pt x="216" y="214" on="0"/>
        <pt x="216" y="166" on="1"/>
        <pt x="216" y="102" on="0"/>
        <pt x="267" y="102" on="1"/>
        <pt x="283" y="102" on="0"/>
        <pt x="340" y="138" on="0"/>
        <pt x="360" y="156" on="1"/>
        <pt x="380" y="174" on="1"/>
      </contour>
    </TTGlyph>
    <TTGlyph name="degree" xMin="255" yMin="393" xMax="555" yMax="692">
      <contour>
        <pt x="255" y="475" on="0"/>
        <pt x="255" y="609" on="0"/>
        <pt x="338" y="692" on="0"/>
        <pt x="472" y="692" on="0"/>
        <pt x="555" y="609" on="0"/>
        <pt x="555" y="475" on="0"/>
        <pt x="472" y="393" on="0"/>
        <pt x="338" y="393" on="0"/>
      </contour>
      <contour>
        <pt x="330" y="576" on="0"/>
        <pt x="330" y="508" on="0"/>
        <pt x="371" y="466" on="0"/>
        <pt x="439" y="466" on="0"/>
        <pt x="482" y="508" on="0"/>
        <pt x="482" y="576" on="0"/>
        <pt x="439" y="619" on="0"/>
        <pt x="371" y="619" on="0"/>
      </contour>
    </TTGlyph>
    <TTGlyph name="dieresis" xMin="215" yMin="601" xMax="551" yMax="736">
      <contour>
        <pt x="215" y="601" on="1"/>
        <pt x="246" y="736" on="1"/>
        <pt x="357" y="736" on="1"/>
        <pt x="325" y="601" on="1"/>
      </contour>
      <contour>
        <pt x="409" y="601" on="1"/>
        <pt x="440" y="736" on="1"/>
        <pt x="551" y="736" on="1"/>
        <pt x="519" y="601" on="1"/>
      </contour>
    </TTGlyph>
    <TTGlyph name="dieresis.cap" xMin="256" yMin="788" xMax="597" yMax="923">
      <contour>
        <pt x="256" y="788" on="1"/>
        <pt x="287" y="923" on="1"/>
        <pt x="398" y="923" on="1"/>
        <pt x="366" y="788" on="1"/>
      </contour>
      <contour>
        <pt x="455" y="788" on="1"/>
        <pt x="486" y="923" on="1"/>
        <pt x="597" y="923" on="1"/>
        <pt x="564" y="788" on="1"/>
      </contour>
    </TTGlyph>
    <TTGlyph name="divide" xMin="108" yMin="17" xMax="568" yMax="484">
      <contour>
        <pt x="271" y="352" on="1"/>
        <pt x="271" y="484" on="1"/>
        <pt x="403" y="484" on="1"/>
        <pt x="403" y="352" on="1"/>
      </contour>
      <contour>
        <pt x="108" y="191" on="1"/>
        <pt x="108" y="311" on="1"/>
        <pt x="568" y="311" on="1"/>
        <pt x="568" y="191" on="1"/>
      </contour>
      <contour>
        <pt x="271" y="17" on="1"/>
        <pt x="271" y="149" on="1"/>
        <pt x="403" y="149" on="1"/>
        <pt x="403" y="17" on="1"/>
      </contour>
    </TTGlyph>
</ttFont>
